<svg xmlns="http://www.w3.org/2000/svg" width="1024" height="1024" viewBox="0 0 1024 1024" fill="none">
  <!-- NUSANTARAYA · Pilar T — Tradisi (clean frame + candi bentar + traced topeng) -->
  <rect x="80" y="80" width="864" height="864" rx="124" ry="124" fill="#102852"/>
  <rect x="106" y="106" width="812" height="812" rx="102" ry="102" fill="#f8f4ea"/>
  <rect x="132" y="132" width="760" height="760" rx="84" ry="84" fill="none" stroke="#e4c646" stroke-width="5"/>
  <rect x="168" y="690" width="688" height="16" rx="5" ry="5" fill="#102852"/>
  <g>
    <path d="M150 700 L150 664 L168 664 L168 612 L184 612 L184 560 L198 560 L198 508 L210 508 L210 456 L222 456 L222 412 L236 412 L236 388 L300 388 L300 700 Z" fill="#102852"/>
    <path d="M250 388 L268 356 L286 388 Z" fill="#102852"/>
    <circle cx="268" cy="352" r="6" fill="#e4c646"/>
    <rect x="156" y="656" width="140" height="5" rx="2" ry="2" fill="#e4c646"/>
    <rect x="174" y="604" width="122" height="5" rx="2" ry="2" fill="#e4c646"/>
    <rect x="190" y="552" width="106" height="5" rx="2" ry="2" fill="#e4c646"/>
    <rect x="204" y="500" width="92" height="5" rx="2" ry="2" fill="#e4c646"/>
    <rect x="216" y="448" width="80" height="5" rx="2" ry="2" fill="#e4c646"/>
    <rect x="228" y="404" width="68" height="5" rx="2" ry="2" fill="#e4c646"/>
    <rect x="156" y="672" width="140" height="5" rx="2" ry="2" fill="#e4c646"/>
    <g transform="translate(1024,0) scale(-1,1)">
      <path d="M150 700 L150 664 L168 664 L168 612 L184 612 L184 560 L198 560 L198 508 L210 508 L210 456 L222 456 L222 412 L236 412 L236 388 L300 388 L300 700 Z" fill="#102852"/>
      <path d="M250 388 L268 356 L286 388 Z" fill="#102852"/>
      <circle cx="268" cy="352" r="6" fill="#e4c646"/>
      <rect x="156" y="656" width="140" height="5" rx="2" ry="2" fill="#e4c646"/>
      <rect x="174" y="604" width="122" height="5" rx="2" ry="2" fill="#e4c646"/>
      <rect x="190" y="552" width="106" height="5" rx="2" ry="2" fill="#e4c646"/>
      <rect x="204" y="500" width="92" height="5" rx="2" ry="2" fill="#e4c646"/>
      <rect x="216" y="448" width="80" height="5" rx="2" ry="2" fill="#e4c646"/>
      <rect x="228" y="404" width="68" height="5" rx="2" ry="2" fill="#e4c646"/>
      <rect x="156" y="672" width="140" height="5" rx="2" ry="2" fill="#e4c646"/>
    </g>
  </g>
  <g>
    <path d="M 692.6 491.0 L 691.0 491.0 L 672.3 507.3 L 668.3 538.1 L 671.5 537.3 L 683.7 523.5 L 690.2 508.1 Z" fill="#e4c646" stroke="#102852" stroke-width="3" stroke-linejoin="round"/>
    <path d="M 331.4 491.0 L 333.8 504.8 L 341.1 523.5 L 349.2 533.2 L 356.5 536.5 L 352.5 507.3 L 334.6 491.8 Z" fill="#e4c646" stroke="#102852" stroke-width="3" stroke-linejoin="round"/>
    <path d="M 310.2 428.5 L 307.8 441.5 L 307.0 469.9 L 310.2 500.8 L 317.6 530.0 L 327.3 547.0 L 339.5 559.2 L 350.8 565.7 L 362.2 577.1 L 366.3 586.8 L 367.9 587.6 L 367.9 574.7 L 363.0 556.0 L 356.5 547.9 L 351.7 545.4 L 336.2 530.0 L 329.7 517.8 L 325.7 502.4 L 323.2 473.2 L 327.3 472.4 L 341.1 488.6 L 348.4 494.3 L 352.5 494.3 L 349.2 473.2 L 346.8 469.1 L 322.4 444.8 L 313.5 430.1 Z" fill="#e4c646" stroke="#102852" stroke-width="3" stroke-linejoin="round"/>
    <path d="M 714.6 427.7 L 711.3 430.1 L 703.2 443.9 L 675.6 472.4 L 673.2 494.3 L 679.7 491.8 L 698.3 472.4 L 702.4 473.2 L 700.8 492.7 L 696.7 513.0 L 691.0 526.8 L 676.4 543.0 L 662.6 553.5 L 656.9 573.0 L 656.9 586.0 L 659.4 584.4 L 663.4 575.5 L 669.9 569.0 L 685.3 559.2 L 697.5 547.0 L 707.3 530.0 L 714.6 501.6 L 717.0 478.0 L 717.0 448.0 Z" fill="#e4c646" stroke="#102852" stroke-width="3" stroke-linejoin="round"/>
    <path d="M 434.5 425.3 L 410.1 452.1 L 382.5 468.3 L 375.2 475.6 L 369.5 491.0 L 369.5 515.4 L 374.4 545.4 L 380.9 568.2 L 385.8 581.1 L 406.9 620.1 L 421.5 638.8 L 443.4 659.9 L 470.2 678.6 L 492.9 689.9 L 507.5 694.0 L 518.9 694.0 L 532.7 689.9 L 538.4 685.9 L 556.2 677.8 L 584.7 657.5 L 609.8 631.5 L 626.9 606.3 L 640.7 577.9 L 652.0 538.9 L 654.5 522.7 L 654.5 487.0 L 648.0 473.2 L 642.3 467.5 L 619.6 455.3 L 608.2 446.4 L 591.2 425.3 L 587.1 426.1 L 574.1 434.2 L 558.7 440.7 L 546.5 440.7 L 536.0 436.6 L 523.0 426.9 L 514.0 415.5 L 511.6 415.5 L 492.1 435.0 L 477.5 440.7 L 466.9 440.7 L 456.4 437.4 L 447.5 431.0 Z" fill="#e4c646" stroke="#102852" stroke-width="3" stroke-linejoin="round"/>
    <path d="M 360.6 439.1 L 363.0 441.5 L 371.1 432.6 L 376.0 433.4 L 376.0 439.9 L 368.7 448.8 L 363.0 459.4 L 361.4 473.2 L 363.8 473.2 L 372.8 456.9 L 392.2 436.6 L 407.7 425.3 L 424.7 416.3 L 450.7 408.2 L 474.2 404.2 L 498.6 403.3 L 501.0 401.7 L 538.4 402.5 L 579.0 409.0 L 596.8 414.7 L 615.5 423.6 L 627.7 431.8 L 645.6 448.8 L 656.1 462.6 L 661.0 472.4 L 663.4 473.2 L 663.4 465.0 L 661.0 456.9 L 654.5 444.8 L 648.8 438.3 L 648.8 433.4 L 654.5 432.6 L 661.8 440.7 L 663.4 440.7 L 662.6 431.8 L 655.3 417.1 L 642.3 404.2 L 627.7 394.4 L 610.6 386.3 L 583.9 378.2 L 552.2 373.3 L 475.1 373.3 L 450.7 376.6 L 420.7 384.7 L 393.9 396.9 L 384.1 403.3 L 366.3 422.0 L 361.4 433.4 Z" fill="#e4c646" stroke="#102852" stroke-width="3" stroke-linejoin="round"/>
    <path d="M 704.0 349.0 L 700.8 351.4 L 691.0 367.6 L 668.3 391.2 L 661.0 402.5 L 661.0 406.6 L 666.7 413.9 L 674.0 405.0 L 677.2 396.9 L 682.1 396.9 L 681.3 407.4 L 671.5 422.0 L 672.3 426.9 L 675.6 426.9 L 678.8 425.3 L 691.0 412.3 L 695.1 402.5 L 695.9 382.2 L 700.0 381.4 L 701.6 383.0 L 702.4 405.8 L 700.8 411.5 L 693.5 423.6 L 674.0 440.7 L 674.0 459.4 L 697.5 435.8 L 706.4 422.8 L 712.1 410.7 L 713.8 403.3 L 712.9 373.3 L 709.7 361.1 Z" fill="#e4c646" stroke="#102852" stroke-width="3" stroke-linejoin="round"/>
    <path d="M 639.1 349.0 L 636.6 366.0 L 630.1 380.6 L 630.1 384.7 L 633.4 387.9 L 637.4 388.7 L 642.3 383.9 L 644.7 378.2 L 648.8 377.4 L 649.6 384.7 L 646.4 391.2 L 646.4 395.2 L 649.6 397.7 L 653.7 397.7 L 663.4 383.0 L 665.0 369.2 L 661.8 361.9 L 654.5 354.6 L 647.2 350.6 Z" fill="#e4c646" stroke="#102852" stroke-width="3" stroke-linejoin="round"/>
    <path d="M 385.8 349.0 L 370.3 355.4 L 363.8 361.9 L 360.6 370.1 L 361.4 382.2 L 367.9 394.4 L 372.0 398.5 L 375.2 398.5 L 379.3 395.2 L 379.3 391.2 L 375.2 384.7 L 376.0 377.4 L 380.1 378.2 L 386.6 388.7 L 392.2 388.7 L 395.5 386.3 L 395.5 380.6 L 392.2 376.6 L 389.8 369.2 L 388.2 353.8 Z" fill="#e4c646" stroke="#102852" stroke-width="3" stroke-linejoin="round"/>
    <path d="M 320.0 349.0 L 315.9 357.1 L 311.1 376.6 L 310.2 399.3 L 311.9 408.2 L 317.6 422.0 L 328.1 437.4 L 346.8 457.7 L 350.8 459.4 L 350.0 439.9 L 329.7 422.0 L 323.2 409.8 L 322.4 387.9 L 324.0 383.0 L 328.9 383.0 L 328.9 397.7 L 333.0 411.5 L 349.2 427.7 L 353.3 426.1 L 353.3 422.0 L 343.5 406.6 L 342.7 396.0 L 347.6 396.0 L 351.7 406.6 L 358.1 414.7 L 360.6 413.9 L 363.0 409.0 L 363.0 403.3 L 356.5 391.2 L 332.2 365.2 L 322.4 349.0 Z" fill="#e4c646" stroke="#102852" stroke-width="3" stroke-linejoin="round"/>
    <path d="M 512.4 334.3 L 510.0 336.0 L 503.5 347.3 L 502.7 356.3 L 505.9 361.9 L 514.0 363.6 L 519.7 360.3 L 520.5 349.0 Z" fill="#e4c646" stroke="#102852" stroke-width="3" stroke-linejoin="round"/>
    <path d="M 588.7 331.1 L 584.7 327.8 L 577.4 325.4 L 566.0 325.4 L 561.1 327.8 L 548.1 340.8 L 534.3 360.3 L 534.3 362.8 L 565.2 366.8 L 576.5 348.1 L 587.1 336.8 Z" fill="#e4c646" stroke="#102852" stroke-width="3" stroke-linejoin="round"/>
    <path d="M 435.3 331.9 L 435.3 333.5 L 446.6 345.7 L 454.8 357.9 L 456.4 362.8 L 460.4 366.8 L 477.5 363.6 L 488.9 363.6 L 491.3 361.9 L 475.9 338.4 L 465.3 327.8 L 459.6 325.4 L 447.5 325.4 Z" fill="#e4c646" stroke="#102852" stroke-width="3" stroke-linejoin="round"/>
    <path d="M 618.0 320.5 L 609.8 324.6 L 595.2 338.4 L 576.5 365.2 L 577.4 368.4 L 581.4 368.4 L 588.7 371.7 L 595.2 371.7 L 599.3 366.8 L 605.0 352.2 L 609.0 351.4 L 610.6 353.0 L 610.6 359.5 L 605.0 374.9 L 616.3 380.6 L 620.4 379.0 L 625.3 370.9 L 627.7 361.9 L 627.7 344.1 L 623.6 330.3 Z" fill="#e4c646" stroke="#102852" stroke-width="3" stroke-linejoin="round"/>
    <path d="M 406.9 320.5 L 400.4 332.7 L 397.1 344.9 L 397.9 364.4 L 404.4 378.2 L 406.9 380.6 L 410.1 380.6 L 421.5 374.9 L 414.2 360.3 L 415.0 349.0 L 419.0 349.8 L 425.5 366.0 L 430.4 371.7 L 436.1 372.5 L 446.6 370.1 L 449.1 366.8 L 432.0 340.8 L 417.4 326.2 L 409.3 320.5 Z" fill="#e4c646" stroke="#102852" stroke-width="3" stroke-linejoin="round"/>
    <path d="M 511.6 299.4 L 501.0 310.8 L 492.9 323.8 L 489.7 334.3 L 490.5 344.9 L 494.5 347.3 L 499.4 335.1 L 509.2 322.2 L 513.2 322.2 L 522.1 332.7 L 528.6 348.1 L 531.9 349.0 L 534.3 346.5 L 534.3 336.0 L 531.1 324.6 L 520.5 307.5 Z" fill="#e4c646" stroke="#102852" stroke-width="3" stroke-linejoin="round"/>
    <path d="M 551.4 289.7 L 548.1 290.5 L 545.7 297.0 L 535.1 311.6 L 535.1 314.9 L 541.6 331.9 L 546.5 329.5 L 556.2 318.1 L 557.9 314.0 L 557.9 301.0 Z" fill="#e4c646" stroke="#102852" stroke-width="3" stroke-linejoin="round"/>
    <path d="M 473.4 289.7 L 466.1 301.0 L 465.3 308.4 L 470.2 319.7 L 481.6 331.1 L 490.5 311.6 L 476.7 290.5 Z" fill="#e4c646" stroke="#102852" stroke-width="3" stroke-linejoin="round"/>
    <path d="M 511.6 224.7 L 488.0 270.2 L 485.6 278.3 L 485.6 288.1 L 489.7 297.0 L 494.5 302.7 L 496.2 302.7 L 506.7 292.1 L 510.0 285.6 L 514.0 285.6 L 527.8 302.7 L 531.1 302.7 L 534.3 299.4 L 539.2 289.7 L 539.2 277.5 L 531.1 258.0 L 520.5 241.8 L 514.0 226.4 Z" fill="#e4c646" stroke="#102852" stroke-width="3" stroke-linejoin="round"/>
    <path d="M 481.6 636.4 L 481.6 638.8 L 488.9 646.1 L 496.2 650.2 L 505.9 652.6 L 519.7 652.6 L 531.1 649.3 L 537.6 645.3 L 544.1 638.0 L 544.1 636.4 L 541.6 636.4 L 536.0 640.4 L 527.8 643.7 L 506.7 644.5 L 505.9 645.3 L 489.7 641.2 L 483.2 636.4 Z" fill="#102852" fill-rule="evenodd"/>
    <path d="M 456.4 612.8 L 457.2 616.9 L 460.4 620.1 L 469.4 621.7 L 479.9 625.0 L 498.6 625.0 L 510.0 629.0 L 527.0 625.0 L 547.3 625.0 L 555.4 623.4 L 565.2 620.1 L 568.4 616.9 L 568.4 612.8 L 567.6 612.0 L 563.6 612.0 L 557.9 616.9 L 545.7 616.9 L 533.5 612.0 L 522.1 612.0 L 514.8 616.9 L 510.8 616.9 L 502.7 612.0 L 491.3 612.0 L 479.1 616.9 L 467.8 616.9 L 462.1 612.0 L 457.2 612.0 Z" fill="#102852" fill-rule="evenodd"/>
    <path d="M 477.5 573.8 L 478.3 582.8 L 483.2 587.6 L 488.9 590.1 L 499.4 590.1 L 508.3 595.8 L 518.1 595.0 L 526.2 590.1 L 536.8 590.1 L 539.2 589.3 L 547.3 581.1 L 547.3 573.8 L 544.9 569.8 L 543.3 569.8 L 543.3 578.7 L 538.4 583.6 L 533.5 580.3 L 529.5 580.3 L 515.7 589.3 L 510.8 589.3 L 505.9 587.6 L 495.4 580.3 L 491.3 580.3 L 486.4 583.6 L 481.6 577.1 L 482.4 569.0 L 479.1 569.8 Z" fill="#102852" fill-rule="evenodd"/>
    <path d="M 541.6 524.3 L 542.4 525.1 L 555.4 525.1 L 571.7 529.2 L 597.7 528.4 L 614.7 521.1 L 631.8 508.1 L 631.8 506.5 L 617.1 504.8 L 591.2 494.3 L 577.4 493.5 L 574.1 494.3 L 557.1 503.2 L 544.9 516.2 Z" fill="#102852" fill-rule="evenodd"/>
    <path d="M 564.4 508.1 L 566.0 506.5 L 577.4 501.6 L 578.2 502.4 L 585.5 502.4 L 586.3 501.6 L 593.6 505.6 L 594.4 512.1 L 592.0 517.8 L 587.1 522.7 L 573.3 523.5 L 566.0 517.0 Z" fill="#102852" fill-rule="evenodd"/>
    <path d="M 483.2 524.3 L 483.2 522.7 L 478.3 513.8 L 466.1 501.6 L 455.6 495.9 L 449.9 495.1 L 446.6 493.5 L 433.7 494.3 L 408.5 504.8 L 393.9 506.5 L 393.9 508.1 L 397.9 512.1 L 411.7 521.9 L 419.9 525.9 L 432.0 529.2 L 454.0 529.2 L 469.4 525.1 L 482.4 525.1 Z" fill="#102852" fill-rule="evenodd"/>
    <path d="M 431.2 505.6 L 436.9 502.4 L 453.1 503.2 L 460.4 508.1 L 460.4 513.0 L 458.0 518.6 L 454.8 521.9 L 449.1 524.3 L 441.0 524.3 L 432.8 517.8 L 431.2 514.6 Z" fill="#102852" fill-rule="evenodd"/>
    <path d="M 540.8 479.7 L 540.8 481.3 L 543.3 481.3 L 559.5 470.7 L 572.5 465.9 L 592.8 465.0 L 593.6 464.2 L 596.0 465.9 L 606.6 468.3 L 620.4 476.4 L 622.0 476.4 L 634.2 486.2 L 637.4 487.0 L 637.4 485.3 L 618.8 467.5 L 604.1 459.4 L 601.7 459.4 L 592.8 456.1 L 581.4 456.1 L 566.8 460.2 L 550.6 469.9 Z" fill="#102852" fill-rule="evenodd"/>
    <path d="M 389.0 486.2 L 391.4 486.2 L 407.7 474.0 L 420.7 467.5 L 426.3 466.7 L 432.0 464.2 L 432.8 465.0 L 453.1 465.9 L 475.9 476.4 L 482.4 481.3 L 484.0 481.3 L 484.0 479.7 L 468.6 465.9 L 458.0 460.2 L 443.4 456.1 L 433.7 456.1 L 420.7 459.4 L 406.9 467.5 L 389.8 482.9 Z" fill="#102852" fill-rule="evenodd"/>
    <path d="M 390.6 416.3 L 386.6 416.3 L 380.1 422.0 L 380.1 425.3 L 382.5 427.7 L 384.9 427.7 L 388.2 426.1 L 393.1 421.2 L 393.1 418.8 Z" fill="#102852" fill-rule="evenodd"/>
    <path d="M 634.2 415.5 L 632.6 417.1 L 632.6 421.2 L 639.1 426.9 L 643.1 427.7 L 646.4 424.5 L 646.4 422.8 L 639.1 415.5 Z" fill="#102852" fill-rule="evenodd"/>
    <path d="M 609.8 401.7 L 608.2 403.3 L 608.2 407.4 L 613.1 411.5 L 618.8 412.3 L 621.2 409.0 L 620.4 405.8 L 615.5 402.5 Z" fill="#102852" fill-rule="evenodd"/>
    <path d="M 415.8 402.5 L 410.1 401.7 L 406.9 403.3 L 403.6 406.6 L 402.8 409.8 L 405.2 412.3 L 410.1 412.3 L 413.4 410.7 L 415.8 408.2 Z" fill="#102852" fill-rule="evenodd"/>
    <path d="M 581.4 393.6 L 581.4 397.7 L 585.5 400.9 L 592.8 401.7 L 594.4 400.1 L 594.4 396.0 L 588.7 392.0 L 583.0 392.0 Z" fill="#102852" fill-rule="evenodd"/>
    <path d="M 444.2 395.2 L 441.0 392.0 L 435.3 392.8 L 429.6 397.7 L 429.6 399.3 L 432.8 402.5 L 436.1 402.5 L 442.6 399.3 Z" fill="#102852" fill-rule="evenodd"/>
    <path d="M 458.0 390.4 L 458.0 392.8 L 461.3 396.0 L 469.4 394.4 L 472.6 392.0 L 472.6 389.5 L 470.2 387.1 L 462.1 387.1 Z" fill="#102852" fill-rule="evenodd"/>
    <path d="M 552.2 387.9 L 552.2 391.2 L 557.1 394.4 L 562.7 395.2 L 566.0 392.8 L 566.0 388.7 L 561.1 385.5 L 554.6 385.5 Z" fill="#102852" fill-rule="evenodd"/>
    <path d="M 523.8 385.5 L 524.6 389.5 L 528.6 392.0 L 531.9 392.0 L 536.8 388.7 L 536.8 385.5 L 534.3 383.0 L 526.2 383.0 Z" fill="#102852" fill-rule="evenodd"/>
    <path d="M 488.0 387.1 L 488.0 388.7 L 490.5 392.0 L 497.8 392.0 L 502.7 387.9 L 502.7 386.3 L 498.6 383.0 L 490.5 383.9 Z" fill="#102852" fill-rule="evenodd"/>
  </g>
</svg>