<svg xmlns="http://www.w3.org/2000/svg" width="1024" height="1024" viewBox="0 0 1024 1024" fill="none">
  <!-- NUSANTARAYA · Pilar A — Aksara (candi bentar + lontar & pena) -->
  <path d="M 245 743 L 253 753 L 277 775 L 294 786 L 313 795 L 344 804 L 367 808 L 443 814 L 584 813 L 643 808 L 673 803 L 710 792 L 738 778 L 758 763 L 776 744 Z M 568 431 L 565 430 L 540 467 L 484 543 L 448 594 L 450 596 Z M 250 255 L 235 276 L 229 288 L 220 313 L 211 361 L 206 430 L 205 544 L 210 640 L 218 687 L 222 700 L 230 717 L 241 717 L 241 683 L 243 681 L 265 681 L 265 672 L 261 670 L 260 665 L 261 648 L 273 647 L 274 643 L 277 540 L 265 523 L 265 510 L 263 502 L 251 490 L 250 468 L 256 465 L 297 466 L 295 450 L 286 445 L 281 439 L 279 431 L 279 419 L 281 416 L 323 415 L 323 406 L 317 406 L 313 402 L 312 393 L 307 392 L 303 387 L 303 369 L 306 366 L 345 366 L 345 358 L 337 355 L 331 349 L 328 343 L 328 329 L 331 325 L 382 325 L 382 318 L 354 317 L 347 308 L 347 299 L 349 297 L 382 297 L 382 293 L 375 294 L 365 292 L 365 278 L 367 276 L 376 276 L 376 262 L 391 249 L 397 250 L 397 451 L 346 452 L 339 454 L 330 461 L 325 472 L 321 494 L 320 508 L 322 539 L 318 540 L 323 541 L 328 566 L 332 573 L 339 579 L 348 582 L 397 582 L 397 731 L 627 731 L 626 583 L 675 582 L 689 576 L 693 571 L 697 561 L 700 546 L 703 515 L 702 492 L 697 468 L 688 456 L 678 452 L 626 451 L 626 260 L 628 249 L 633 249 L 648 262 L 648 276 L 657 276 L 659 278 L 659 292 L 648 294 L 642 293 L 642 297 L 675 297 L 677 299 L 677 309 L 673 315 L 668 318 L 642 318 L 642 325 L 693 325 L 696 330 L 696 342 L 692 350 L 688 354 L 680 358 L 680 366 L 718 366 L 721 370 L 721 387 L 717 392 L 711 394 L 711 402 L 708 406 L 701 406 L 702 416 L 744 417 L 745 430 L 743 439 L 737 446 L 729 450 L 727 466 L 773 467 L 774 485 L 772 491 L 761 502 L 759 511 L 759 523 L 747 540 L 750 641 L 751 647 L 763 648 L 763 670 L 761 672 L 758 672 L 759 681 L 781 681 L 783 683 L 783 717 L 793 717 L 801 698 L 807 676 L 812 649 L 815 618 L 818 553 L 818 459 L 815 393 L 810 344 L 806 322 L 799 297 L 784 267 L 765 245 L 749 233 L 721 220 L 695 213 L 671 209 L 629 205 L 565 202 L 463 202 L 386 206 L 352 210 L 325 215 L 301 222 L 279 232 L 264 242 Z M 689 469 L 695 494 L 695 526 L 690 559 L 688 565 L 681 572 L 669 575 L 500 573 L 500 569 L 578 460 L 677 459 L 683 462 Z M 337 567 L 333 557 L 329 533 L 328 494 L 333 472 L 342 461 L 347 459 L 444 459 L 521 461 L 521 466 L 442 574 L 354 575 L 346 574 Z M 605 383 L 611 391 L 610 403 L 466 606 L 449 626 L 421 651 L 414 651 L 412 649 L 412 644 L 416 633 L 437 594 L 585 387 L 593 381 L 602 381 Z M 250 222 L 230 241 L 219 256 L 207 278 L 198 303 L 191 333 L 186 374 L 182 442 L 181 489 L 183 596 L 187 646 L 193 684 L 202 715 L 210 733 L 227 760 L 239 774 L 253 787 L 275 803 L 304 817 L 322 823 L 349 829 L 377 833 L 467 838 L 585 836 L 648 831 L 673 827 L 699 821 L 729 810 L 753 797 L 772 783 L 792 763 L 801 751 L 812 733 L 821 713 L 832 674 L 836 647 L 840 595 L 842 490 L 839 400 L 835 352 L 830 320 L 823 293 L 810 263 L 795 241 L 769 217 L 744 203 L 722 195 L 677 186 L 603 180 L 455 179 L 368 184 L 333 189 L 303 196 L 283 203 L 265 212 Z M 254 233 L 277 218 L 298 209 L 318 203 L 356 196 L 394 192 L 451 189 L 576 189 L 666 195 L 687 198 L 718 205 L 737 212 L 753 220 L 769 231 L 788 250 L 798 264 L 811 291 L 819 318 L 825 354 L 831 441 L 831 570 L 825 654 L 817 692 L 808 717 L 796 739 L 786 753 L 768 772 L 741 792 L 719 803 L 696 811 L 667 818 L 630 823 L 590 826 L 470 828 L 413 826 L 369 822 L 345 818 L 318 811 L 302 805 L 281 794 L 258 777 L 244 763 L 225 738 L 214 717 L 206 694 L 199 662 L 194 607 L 192 562 L 192 444 L 197 365 L 202 330 L 206 313 L 215 286 L 223 270 L 237 250 Z M 0 0 L 0 1023 L 1023 1023 L 1023 0 Z M 236 210 L 262 193 L 282 184 L 313 175 L 346 169 L 385 165 L 439 162 L 588 162 L 643 165 L 684 169 L 711 174 L 737 181 L 770 196 L 792 212 L 807 227 L 823 249 L 834 271 L 842 294 L 851 337 L 858 427 L 858 582 L 856 623 L 852 662 L 846 693 L 839 717 L 829 740 L 817 760 L 802 779 L 788 793 L 760 814 L 735 827 L 712 836 L 674 845 L 626 851 L 568 854 L 426 854 L 369 850 L 342 846 L 316 840 L 298 834 L 268 820 L 257 813 L 239 799 L 220 780 L 200 753 L 190 734 L 179 704 L 172 670 L 167 621 L 164 551 L 165 430 L 171 348 L 182 293 L 191 269 L 204 245 L 219 226 Z" fill="#fffffc" stroke="#fffffc" stroke-width="1" fill-rule="evenodd"/>
  <path d="M 237 732 L 244 742 L 777 742 L 780 739 L 793 718 L 782 718 L 781 716 L 780 717 L 769 717 L 768 716 L 673 716 L 672 717 L 669 717 L 667 715 L 667 708 L 669 706 L 782 706 L 782 683 L 781 682 L 681 682 L 680 681 L 680 582 L 677 583 L 628 583 L 628 731 L 627 732 L 397 732 L 396 731 L 396 583 L 346 583 L 344 582 L 344 681 L 343 682 L 243 682 L 242 706 L 355 706 L 357 708 L 357 715 L 356 716 L 243 716 L 242 718 L 230 718 Z M 704 520 L 703 521 L 702 541 L 701 542 L 701 548 L 700 549 L 698 563 L 694 572 L 691 575 L 691 671 L 759 671 L 762 669 L 762 649 L 761 648 L 751 648 L 750 649 L 742 649 L 741 650 L 715 650 L 713 648 L 713 644 L 714 643 L 749 643 L 749 624 L 748 623 L 747 585 L 746 584 L 746 580 L 728 580 L 727 579 L 727 572 L 728 571 L 734 571 L 735 570 L 745 570 L 746 571 L 746 553 L 706 553 L 705 552 L 705 539 L 706 538 L 719 538 L 720 539 L 723 539 L 724 538 L 727 538 L 728 539 L 729 538 L 747 538 L 757 525 L 758 520 Z M 266 520 L 266 522 L 269 528 L 278 539 L 279 538 L 318 538 L 319 539 L 319 552 L 318 553 L 278 553 L 278 571 L 281 570 L 293 570 L 297 572 L 297 579 L 296 580 L 278 580 L 277 583 L 277 608 L 276 609 L 276 625 L 275 626 L 275 643 L 310 643 L 311 644 L 311 649 L 310 650 L 275 650 L 273 648 L 263 648 L 262 649 L 262 670 L 264 671 L 333 671 L 333 575 L 328 569 L 325 561 L 325 557 L 324 556 L 324 552 L 322 546 L 322 540 L 321 539 L 320 520 Z M 549 503 L 545 508 L 547 511 L 549 511 L 551 509 L 551 505 Z M 644 494 L 639 494 L 636 496 L 630 494 L 627 497 L 627 506 L 628 509 L 631 511 L 633 510 L 635 507 L 634 501 L 636 498 L 642 496 L 645 499 L 644 508 L 638 516 L 634 525 L 634 528 L 633 529 L 633 533 L 634 534 L 636 533 L 635 528 L 637 522 L 648 506 L 648 503 L 649 502 L 648 501 L 648 498 L 647 496 Z M 629 498 L 632 497 L 633 500 L 630 501 Z M 603 497 L 603 499 L 608 496 L 613 496 L 618 500 L 617 503 L 613 503 L 612 502 L 603 503 L 602 504 L 602 509 L 603 510 L 608 511 L 611 510 L 615 506 L 618 507 L 617 510 L 618 510 L 618 506 L 620 502 L 620 499 L 617 495 L 615 494 L 608 494 Z M 607 504 L 610 505 L 610 507 L 608 509 L 605 508 L 605 506 Z M 572 495 L 568 500 L 568 508 L 571 511 L 574 511 L 576 509 L 576 503 L 572 500 L 572 498 L 574 496 L 578 496 L 581 499 L 581 510 L 584 509 L 584 499 L 587 496 L 589 496 L 593 501 L 592 509 L 588 517 L 586 519 L 578 519 L 574 521 L 572 524 L 572 527 L 575 529 L 577 529 L 584 525 L 587 522 L 590 522 L 593 527 L 593 532 L 594 534 L 595 531 L 594 523 L 591 520 L 591 517 L 595 509 L 595 499 L 591 494 L 587 494 L 584 496 L 582 496 L 579 494 L 574 494 Z M 574 525 L 574 523 L 578 520 L 581 520 L 582 521 L 582 523 L 578 526 L 575 526 Z M 570 505 L 573 504 L 574 505 L 574 508 L 571 509 L 570 508 Z M 462 497 L 461 502 L 463 508 L 466 511 L 470 509 L 470 505 L 468 503 L 464 503 L 463 502 L 463 499 L 466 496 L 469 496 L 473 500 L 476 497 L 480 496 L 484 500 L 484 505 L 481 509 L 478 510 L 479 511 L 483 510 L 486 507 L 487 500 L 485 496 L 482 494 L 477 494 L 475 496 L 473 496 L 470 494 L 466 494 Z M 453 494 L 450 494 L 448 497 L 448 503 L 448 499 L 449 498 L 452 498 L 453 499 L 453 513 L 451 520 L 444 527 L 440 529 L 431 529 L 429 528 L 427 525 L 427 522 L 433 517 L 431 517 L 427 520 L 425 524 L 425 526 L 428 530 L 430 531 L 441 531 L 446 529 L 452 524 L 455 517 L 455 496 Z M 430 494 L 428 497 L 428 500 L 429 500 L 430 497 L 433 497 L 434 498 L 434 507 L 433 510 L 435 509 L 436 498 L 439 497 L 441 499 L 441 510 L 443 511 L 444 510 L 444 499 L 443 496 L 441 494 L 437 494 L 436 495 Z M 406 511 L 407 511 L 410 500 L 412 497 L 415 497 L 416 498 L 416 508 L 417 510 L 427 511 L 429 510 L 429 509 L 421 509 L 418 506 L 418 496 L 416 494 L 413 494 L 409 500 Z M 372 496 L 371 503 L 370 504 L 371 511 L 371 503 L 373 498 L 376 498 L 377 499 L 377 510 L 381 509 L 384 511 L 391 511 L 394 507 L 396 507 L 397 510 L 400 511 L 400 497 L 399 495 L 397 494 L 392 494 L 390 496 L 392 498 L 392 507 L 390 509 L 385 509 L 381 506 L 380 498 L 377 494 L 374 494 Z M 557 492 L 554 496 L 558 498 L 558 504 L 555 508 L 555 510 L 558 510 L 561 505 L 561 498 Z M 484 483 L 482 480 L 477 480 L 472 484 L 471 488 L 473 488 L 474 485 L 478 482 L 481 483 L 481 487 L 480 488 L 481 488 Z M 648 481 L 646 479 L 641 479 L 635 482 L 630 487 L 632 488 L 636 484 L 640 482 L 645 482 L 647 483 Z M 697 467 L 699 470 L 699 473 L 702 482 L 713 482 L 714 483 L 714 490 L 713 491 L 703 491 L 703 495 L 704 496 L 704 510 L 758 510 L 759 509 L 759 503 L 760 501 L 768 495 L 772 488 L 772 483 L 773 481 L 772 480 L 772 468 L 771 467 Z M 251 471 L 251 485 L 252 486 L 252 489 L 255 494 L 265 503 L 265 509 L 266 510 L 319 510 L 320 491 L 311 491 L 310 490 L 310 483 L 311 482 L 322 482 L 324 471 L 326 467 L 253 467 Z M 687 468 L 682 463 L 673 460 L 662 460 L 661 461 L 579 461 L 574 467 L 574 468 L 575 467 L 675 467 L 679 469 L 684 477 L 686 492 L 687 493 L 687 520 L 686 521 L 686 527 L 684 534 L 682 538 L 677 542 L 674 543 L 605 543 L 604 544 L 520 544 L 515 550 L 634 550 L 635 549 L 638 549 L 639 550 L 640 549 L 677 549 L 678 550 L 677 553 L 672 555 L 512 555 L 507 561 L 507 562 L 508 561 L 675 561 L 678 560 L 679 563 L 674 567 L 504 566 L 500 572 L 511 572 L 512 573 L 675 573 L 676 572 L 679 572 L 686 566 L 689 558 L 689 553 L 690 552 L 690 547 L 692 540 L 692 533 L 693 532 L 693 521 L 694 520 L 694 497 L 693 496 L 693 490 L 692 489 L 691 479 Z M 337 565 L 343 571 L 348 573 L 442 573 L 447 566 L 420 566 L 419 567 L 350 567 L 347 566 L 344 563 L 344 561 L 347 560 L 348 561 L 449 561 L 450 562 L 455 555 L 353 555 L 352 554 L 348 554 L 346 552 L 346 550 L 347 549 L 459 550 L 463 544 L 431 544 L 430 543 L 424 543 L 423 544 L 420 543 L 349 543 L 344 541 L 339 534 L 338 526 L 337 525 L 337 519 L 336 518 L 336 494 L 337 493 L 337 487 L 338 486 L 338 482 L 340 475 L 345 468 L 347 467 L 518 467 L 523 461 L 360 461 L 359 460 L 350 460 L 341 463 L 337 467 L 334 473 L 334 476 L 331 485 L 331 489 L 330 490 L 330 497 L 329 498 L 330 530 L 331 531 L 331 538 L 332 539 L 334 556 Z M 606 385 L 600 382 L 594 382 L 590 384 L 585 389 L 563 421 L 549 439 L 439 593 L 430 610 L 428 612 L 417 634 L 413 645 L 413 648 L 415 650 L 418 651 L 426 646 L 452 621 L 463 608 L 485 578 L 489 571 L 495 564 L 511 540 L 544 495 L 548 488 L 608 404 L 610 400 L 610 392 Z M 445 601 L 453 608 L 453 610 L 428 636 L 426 636 L 425 635 L 426 630 L 436 610 L 442 601 Z M 567 429 L 575 435 L 576 438 L 516 523 L 510 530 L 487 564 L 476 578 L 465 595 L 459 602 L 456 602 L 448 596 L 447 593 L 517 495 L 523 488 L 535 470 L 541 463 L 565 429 Z M 570 421 L 572 419 L 577 420 L 583 425 L 583 428 L 581 430 L 578 430 L 570 423 Z M 600 389 L 604 394 L 604 398 L 589 419 L 585 419 L 578 413 L 578 411 L 591 392 L 595 389 Z M 628 247 L 628 451 L 660 451 L 661 450 L 672 450 L 673 451 L 679 451 L 685 453 L 691 457 L 727 457 L 727 450 L 729 448 L 735 446 L 742 438 L 742 435 L 743 434 L 743 418 L 742 417 L 642 417 L 641 416 L 641 406 L 642 405 L 706 405 L 708 404 L 710 401 L 710 393 L 718 390 L 720 387 L 720 371 L 718 367 L 716 368 L 642 368 L 641 367 L 641 358 L 642 357 L 679 357 L 680 356 L 683 356 L 688 353 L 694 344 L 695 331 L 693 326 L 642 326 L 641 325 L 641 318 L 642 317 L 667 317 L 671 315 L 674 312 L 676 307 L 676 299 L 642 299 L 641 298 L 641 293 L 642 292 L 658 292 L 658 279 L 656 277 L 647 277 L 646 276 L 646 262 L 639 255 Z M 396 247 L 385 255 L 378 262 L 378 276 L 377 277 L 368 277 L 366 279 L 366 291 L 367 292 L 382 292 L 383 293 L 383 298 L 382 299 L 349 299 L 348 300 L 348 306 L 351 313 L 353 315 L 357 317 L 382 317 L 383 318 L 383 325 L 382 326 L 331 326 L 329 330 L 329 341 L 331 347 L 336 353 L 346 357 L 382 357 L 383 358 L 383 367 L 382 368 L 308 368 L 306 367 L 304 370 L 304 375 L 303 376 L 304 386 L 308 391 L 314 393 L 314 400 L 316 404 L 318 405 L 382 405 L 383 406 L 383 416 L 382 417 L 282 417 L 281 418 L 281 435 L 282 438 L 288 445 L 294 448 L 297 451 L 297 457 L 333 457 L 341 452 L 351 451 L 352 450 L 363 450 L 364 451 L 396 451 Z M 780 204 L 760 192 L 739 183 L 726 180 L 722 178 L 718 178 L 714 176 L 706 175 L 705 174 L 700 174 L 699 173 L 694 173 L 687 171 L 681 171 L 680 170 L 672 170 L 671 169 L 663 169 L 662 168 L 651 168 L 650 167 L 638 167 L 637 166 L 625 166 L 624 165 L 578 164 L 577 163 L 519 163 L 518 162 L 508 162 L 507 163 L 422 164 L 421 165 L 390 166 L 389 167 L 378 167 L 377 168 L 367 168 L 366 169 L 342 171 L 341 172 L 335 172 L 334 173 L 329 173 L 328 174 L 314 176 L 302 180 L 299 180 L 295 182 L 292 182 L 278 187 L 273 190 L 271 190 L 254 199 L 233 214 L 216 231 L 203 249 L 189 277 L 182 298 L 181 306 L 179 310 L 178 319 L 176 324 L 175 334 L 174 335 L 174 342 L 173 343 L 173 350 L 172 351 L 172 360 L 171 361 L 171 370 L 170 371 L 168 419 L 167 420 L 167 442 L 166 443 L 166 572 L 167 573 L 168 617 L 169 618 L 169 630 L 170 631 L 172 660 L 173 661 L 175 680 L 176 681 L 176 685 L 178 690 L 178 694 L 179 695 L 181 706 L 190 731 L 202 754 L 218 776 L 234 793 L 248 805 L 262 815 L 289 829 L 311 837 L 314 837 L 318 839 L 321 839 L 330 842 L 334 842 L 339 844 L 344 844 L 345 845 L 350 845 L 357 847 L 363 847 L 364 848 L 383 849 L 384 850 L 415 851 L 416 852 L 441 852 L 442 853 L 549 853 L 550 852 L 581 852 L 582 851 L 622 850 L 623 849 L 633 849 L 634 848 L 644 848 L 645 847 L 651 847 L 652 846 L 659 846 L 660 845 L 672 844 L 673 843 L 692 840 L 717 833 L 720 831 L 732 827 L 741 822 L 743 822 L 761 812 L 784 795 L 804 775 L 817 758 L 832 731 L 842 703 L 842 700 L 847 683 L 848 674 L 849 673 L 849 667 L 850 666 L 850 660 L 851 659 L 851 653 L 852 652 L 852 643 L 853 642 L 854 619 L 855 618 L 856 573 L 857 572 L 857 441 L 856 440 L 856 414 L 855 413 L 854 382 L 853 381 L 853 369 L 852 368 L 852 359 L 851 358 L 851 349 L 850 348 L 849 333 L 848 332 L 848 327 L 847 326 L 844 307 L 835 277 L 825 255 L 809 231 L 796 217 Z M 252 219 L 266 210 L 280 203 L 305 194 L 308 194 L 321 190 L 330 189 L 331 188 L 336 188 L 337 187 L 342 187 L 349 185 L 356 185 L 357 184 L 364 184 L 365 183 L 386 182 L 387 181 L 400 181 L 401 180 L 416 180 L 417 179 L 440 179 L 441 178 L 495 178 L 496 177 L 585 178 L 586 179 L 629 180 L 630 181 L 642 181 L 643 182 L 654 182 L 655 183 L 663 183 L 664 184 L 673 184 L 674 185 L 692 187 L 693 188 L 697 188 L 698 189 L 702 189 L 703 190 L 707 190 L 708 191 L 723 194 L 735 199 L 740 200 L 745 203 L 747 203 L 765 213 L 776 221 L 793 237 L 809 259 L 819 279 L 827 302 L 827 305 L 830 314 L 830 318 L 831 319 L 831 323 L 832 324 L 832 328 L 833 329 L 833 334 L 834 335 L 836 357 L 837 358 L 837 367 L 838 368 L 839 391 L 840 392 L 841 431 L 842 432 L 842 466 L 843 467 L 842 580 L 841 581 L 840 618 L 839 619 L 839 630 L 838 631 L 836 657 L 835 658 L 833 675 L 832 676 L 831 684 L 827 696 L 827 699 L 820 719 L 809 741 L 795 761 L 776 781 L 761 793 L 736 808 L 734 808 L 723 814 L 697 823 L 680 826 L 675 828 L 670 828 L 669 829 L 659 830 L 658 831 L 643 832 L 642 833 L 634 833 L 633 834 L 610 835 L 609 836 L 594 836 L 593 837 L 533 838 L 532 839 L 457 839 L 456 838 L 409 837 L 408 836 L 394 836 L 393 835 L 366 833 L 365 832 L 359 832 L 358 831 L 352 831 L 351 830 L 337 828 L 336 827 L 321 824 L 317 822 L 314 822 L 298 815 L 296 815 L 276 805 L 264 797 L 249 785 L 233 769 L 216 746 L 203 721 L 195 698 L 193 686 L 191 681 L 191 677 L 190 676 L 189 665 L 188 664 L 186 640 L 185 639 L 185 630 L 184 629 L 183 602 L 182 601 L 182 580 L 181 579 L 181 547 L 180 546 L 181 433 L 182 432 L 183 395 L 184 394 L 184 382 L 185 381 L 187 352 L 188 351 L 190 331 L 191 330 L 193 317 L 194 316 L 196 305 L 199 298 L 199 295 L 201 292 L 204 282 L 209 273 L 209 271 L 221 251 L 232 237 Z" fill="#142745" stroke="#142745" stroke-width="1" fill-rule="evenodd"/>
  <path d="M 668 709 L 668 714 L 669 716 L 672 716 L 673 714 L 768 714 L 769 716 L 780 716 L 780 715 L 782 714 L 782 709 L 781 707 L 669 707 Z M 243 707 L 243 714 L 244 716 L 247 716 L 248 714 L 354 714 L 354 712 L 356 711 L 354 710 L 354 707 Z M 310 649 L 308 648 L 307 645 L 304 645 L 303 646 L 275 646 L 274 648 L 275 649 Z M 750 645 L 749 644 L 748 645 L 736 645 L 735 646 L 716 645 L 716 648 L 715 649 L 741 649 L 742 647 L 749 647 L 750 648 Z M 445 602 L 445 605 L 442 609 L 439 611 L 439 613 L 434 621 L 431 622 L 427 630 L 428 631 L 427 636 L 431 632 L 431 630 L 439 622 L 441 622 L 445 618 L 445 616 L 448 612 L 452 610 L 449 605 L 446 605 L 445 604 Z M 682 581 L 683 582 L 683 671 L 681 672 L 681 677 L 682 677 L 683 679 L 757 679 L 757 673 L 691 673 L 689 671 L 689 589 L 688 588 L 689 580 L 688 578 Z M 343 582 L 338 580 L 336 578 L 335 580 L 335 586 L 336 587 L 336 591 L 335 592 L 335 598 L 336 599 L 336 610 L 335 611 L 335 671 L 333 673 L 267 673 L 267 680 L 285 680 L 286 679 L 337 679 L 338 681 L 339 679 L 342 679 L 343 681 L 343 660 L 341 656 L 341 648 L 343 646 L 343 637 L 341 636 L 341 626 L 343 625 L 341 624 L 341 622 L 343 621 Z M 729 573 L 729 576 L 731 578 L 742 578 L 745 577 L 746 579 L 746 573 L 745 571 L 735 571 L 734 573 Z M 278 573 L 278 579 L 291 579 L 293 577 L 295 577 L 295 572 L 296 571 L 281 571 L 280 573 Z M 676 565 L 676 561 L 675 563 L 641 563 L 640 564 L 623 564 L 622 562 L 508 562 L 514 562 L 515 564 L 604 564 L 605 566 L 628 566 L 629 564 L 673 565 L 674 566 Z M 347 565 L 348 564 L 352 564 L 353 565 L 392 564 L 393 566 L 419 566 L 420 564 L 446 564 L 447 562 L 449 562 L 393 562 L 392 564 L 379 564 L 378 563 L 348 563 L 347 561 Z M 439 552 L 442 553 L 451 552 L 452 554 L 455 554 L 457 552 Z M 677 552 L 672 550 L 635 550 L 634 552 L 589 552 L 588 553 L 559 553 L 558 551 L 531 551 L 532 551 L 533 553 L 544 553 L 545 551 L 550 551 L 551 553 L 633 553 L 634 552 L 637 553 L 638 552 L 649 552 L 650 554 L 672 554 L 673 552 Z M 350 550 L 350 552 L 352 552 L 353 554 L 383 554 L 384 552 L 394 552 L 395 553 L 434 552 L 388 552 L 387 550 Z M 706 539 L 707 540 L 707 549 L 709 551 L 745 551 L 746 554 L 746 539 Z M 278 541 L 278 551 L 313 551 L 314 550 L 317 550 L 317 540 L 318 539 L 279 539 Z M 703 520 L 705 518 L 718 518 L 719 517 L 743 517 L 744 519 L 758 519 L 758 512 L 716 513 L 715 512 L 705 512 L 704 511 L 704 519 Z M 319 511 L 318 512 L 308 512 L 307 513 L 302 513 L 301 512 L 297 512 L 296 513 L 293 512 L 266 512 L 266 518 L 284 518 L 285 517 L 319 518 Z M 702 484 L 702 489 L 703 490 L 704 489 L 713 489 L 713 484 Z M 312 484 L 313 489 L 320 489 L 321 492 L 321 485 L 322 484 Z M 520 543 L 604 543 L 605 541 L 672 541 L 673 542 L 677 541 L 681 538 L 684 531 L 683 528 L 685 527 L 684 521 L 686 520 L 685 518 L 685 496 L 686 493 L 684 492 L 685 487 L 683 486 L 683 483 L 684 481 L 682 480 L 683 477 L 680 475 L 680 471 L 675 469 L 575 468 L 572 470 L 558 490 L 558 492 L 556 493 L 558 493 L 561 497 L 563 498 L 563 505 L 561 506 L 560 510 L 559 511 L 554 511 L 552 509 L 552 507 L 553 506 L 556 506 L 557 504 L 554 495 L 553 498 L 550 501 L 550 504 L 546 506 L 547 506 L 548 508 L 549 506 L 552 507 L 552 509 L 550 510 L 550 512 L 547 513 L 546 511 L 544 510 L 542 512 L 538 519 Z M 631 529 L 632 528 L 635 528 L 636 529 L 636 533 L 635 534 L 632 534 L 631 533 Z M 635 521 L 638 522 L 636 528 L 633 527 Z M 630 492 L 632 492 L 633 494 L 638 494 L 639 492 L 644 492 L 645 494 L 648 495 L 649 498 L 649 506 L 648 509 L 646 510 L 646 512 L 644 513 L 644 515 L 641 517 L 640 520 L 637 520 L 636 519 L 636 516 L 639 514 L 639 512 L 641 511 L 641 509 L 643 508 L 642 507 L 643 499 L 642 497 L 640 497 L 639 499 L 636 499 L 635 501 L 632 500 L 632 502 L 634 502 L 635 504 L 637 505 L 637 507 L 636 508 L 632 508 L 631 511 L 628 511 L 627 510 L 627 507 L 625 506 L 625 504 L 626 503 L 626 497 L 627 496 L 630 497 L 629 496 L 629 493 Z M 619 494 L 620 495 L 620 498 L 622 499 L 622 502 L 620 503 L 619 506 L 617 506 L 616 509 L 613 510 L 612 512 L 609 511 L 608 513 L 605 513 L 604 511 L 601 510 L 601 503 L 602 502 L 605 502 L 606 500 L 612 500 L 613 502 L 614 500 L 613 497 L 612 499 L 609 499 L 608 497 L 607 499 L 603 499 L 602 498 L 603 495 L 607 495 L 608 492 L 615 492 L 616 494 Z M 574 492 L 579 492 L 580 494 L 583 494 L 584 495 L 586 495 L 587 492 L 591 492 L 595 497 L 597 509 L 595 510 L 594 512 L 595 515 L 591 518 L 592 520 L 595 522 L 595 528 L 597 529 L 596 532 L 594 533 L 591 532 L 591 528 L 589 525 L 589 522 L 586 526 L 583 526 L 582 528 L 578 529 L 577 531 L 575 531 L 574 529 L 571 527 L 571 524 L 572 523 L 575 523 L 578 521 L 577 520 L 578 517 L 580 517 L 581 520 L 584 521 L 584 519 L 587 517 L 588 511 L 591 509 L 590 504 L 592 503 L 592 501 L 587 497 L 586 499 L 586 509 L 583 511 L 580 511 L 579 508 L 577 507 L 578 499 L 574 497 L 574 499 L 577 501 L 577 511 L 574 513 L 570 513 L 569 510 L 566 509 L 566 507 L 567 506 L 570 506 L 571 508 L 572 506 L 568 506 L 567 505 L 567 500 L 571 495 L 573 495 Z M 648 479 L 648 483 L 647 484 L 641 484 L 640 483 L 636 485 L 633 489 L 630 488 L 630 486 L 634 481 L 636 481 L 641 478 L 647 478 Z M 519 467 L 518 468 L 430 468 L 429 469 L 348 469 L 347 468 L 343 471 L 343 474 L 341 475 L 340 478 L 341 481 L 339 482 L 340 483 L 340 486 L 338 487 L 339 493 L 337 494 L 338 497 L 338 515 L 337 518 L 339 519 L 338 525 L 340 526 L 340 529 L 339 530 L 341 531 L 340 534 L 344 540 L 348 540 L 349 542 L 352 542 L 353 541 L 420 541 L 421 543 L 423 543 L 424 541 L 430 541 L 431 543 L 464 543 L 498 496 L 507 482 L 513 475 L 516 469 Z M 426 519 L 429 518 L 430 521 L 427 522 Z M 431 508 L 432 507 L 435 507 L 436 510 L 435 511 L 432 511 Z M 369 503 L 372 504 L 372 508 L 371 509 L 368 508 L 368 504 Z M 462 504 L 465 503 L 466 501 L 468 501 L 471 505 L 471 507 L 470 508 L 463 509 L 462 508 Z M 459 500 L 460 499 L 464 499 L 465 502 L 464 503 L 460 503 Z M 370 500 L 373 499 L 374 502 L 371 503 Z M 453 493 L 456 496 L 456 513 L 457 514 L 457 517 L 455 518 L 453 525 L 450 528 L 448 528 L 447 530 L 441 532 L 430 532 L 428 531 L 427 529 L 423 526 L 424 523 L 428 522 L 429 523 L 429 527 L 431 528 L 432 527 L 439 527 L 440 528 L 441 526 L 450 520 L 451 518 L 450 514 L 452 513 L 452 499 L 448 496 L 448 494 L 449 493 Z M 371 496 L 374 493 L 377 493 L 380 497 L 382 498 L 381 501 L 382 506 L 385 508 L 387 507 L 392 508 L 393 509 L 393 512 L 392 513 L 384 513 L 383 511 L 377 511 L 376 510 L 376 499 L 372 499 Z M 461 496 L 463 494 L 465 494 L 466 492 L 470 492 L 471 494 L 474 493 L 475 495 L 476 492 L 483 492 L 484 495 L 485 495 L 487 499 L 489 500 L 489 504 L 487 505 L 487 507 L 484 509 L 481 513 L 479 513 L 478 510 L 479 508 L 482 507 L 483 505 L 481 504 L 481 501 L 483 500 L 481 500 L 480 497 L 478 497 L 476 500 L 470 500 L 466 497 L 465 499 L 462 499 Z M 426 497 L 428 496 L 430 493 L 433 493 L 434 494 L 436 492 L 441 492 L 444 495 L 444 498 L 447 499 L 446 510 L 445 511 L 441 511 L 440 510 L 440 506 L 438 505 L 438 501 L 438 505 L 437 506 L 434 506 L 432 503 L 432 499 L 430 498 L 430 500 L 427 501 L 426 500 Z M 413 492 L 416 492 L 419 496 L 419 506 L 420 506 L 421 508 L 423 507 L 429 507 L 430 508 L 430 510 L 428 511 L 427 513 L 420 513 L 419 511 L 416 510 L 414 499 L 412 496 L 412 493 Z M 392 492 L 397 492 L 398 494 L 400 494 L 402 496 L 402 499 L 401 500 L 401 512 L 400 513 L 398 513 L 394 508 L 392 508 L 390 506 L 390 500 L 391 499 L 390 495 Z M 484 480 L 484 484 L 483 485 L 479 485 L 478 483 L 475 485 L 475 488 L 474 489 L 471 488 L 471 482 L 473 480 L 476 480 L 477 478 Z M 693 459 L 697 465 L 699 464 L 703 464 L 704 465 L 726 464 L 726 459 Z M 298 465 L 325 465 L 326 466 L 331 459 L 298 459 Z M 571 433 L 569 433 L 566 436 L 557 450 L 551 457 L 534 482 L 525 493 L 521 500 L 492 539 L 481 556 L 455 591 L 452 596 L 452 598 L 454 598 L 456 601 L 457 600 L 460 600 L 460 597 L 462 595 L 464 595 L 464 592 L 468 586 L 471 585 L 471 583 L 473 582 L 473 580 L 475 579 L 475 577 L 478 575 L 478 573 L 480 572 L 480 569 L 483 568 L 483 565 L 484 564 L 486 564 L 486 562 L 488 561 L 488 559 L 490 558 L 490 555 L 493 554 L 493 552 L 495 551 L 495 548 L 498 547 L 498 545 L 500 544 L 500 542 L 502 541 L 502 538 L 505 537 L 505 535 L 507 534 L 507 532 L 509 531 L 509 529 L 512 527 L 512 524 L 515 523 L 515 521 L 517 520 L 517 517 L 520 516 L 520 514 L 522 513 L 522 511 L 524 510 L 525 507 L 527 506 L 527 503 L 530 502 L 530 500 L 532 499 L 532 497 L 534 496 L 534 493 L 537 492 L 537 490 L 539 489 L 539 486 L 542 485 L 542 483 L 544 482 L 544 479 L 547 478 L 547 476 L 549 475 L 549 473 L 551 472 L 551 469 L 554 468 L 554 466 L 556 465 L 556 463 L 558 462 L 558 460 L 561 458 L 561 456 L 563 455 L 563 453 L 566 451 L 566 448 L 569 447 L 569 445 L 571 444 L 571 442 L 573 441 L 573 438 L 575 436 L 572 436 Z M 570 422 L 571 422 L 572 424 L 576 425 L 578 429 L 581 427 L 583 427 L 581 426 L 581 424 L 578 424 L 577 421 L 575 421 L 574 419 L 573 421 Z M 643 408 L 643 414 L 661 414 L 662 415 L 676 414 L 677 416 L 678 414 L 680 414 L 681 416 L 682 414 L 685 414 L 686 415 L 696 415 L 699 414 L 700 415 L 700 407 L 644 407 Z M 324 407 L 324 414 L 326 415 L 364 415 L 365 414 L 380 414 L 381 413 L 381 409 L 379 407 Z M 600 390 L 599 391 L 596 391 L 595 390 L 593 391 L 592 394 L 590 395 L 589 398 L 587 399 L 587 402 L 584 403 L 584 405 L 582 406 L 582 409 L 580 411 L 580 414 L 581 415 L 584 415 L 585 418 L 590 417 L 590 415 L 592 414 L 592 412 L 595 410 L 595 408 L 597 407 L 597 405 L 599 404 L 599 401 L 602 400 L 603 398 L 600 392 Z M 643 360 L 644 367 L 677 367 L 677 366 L 679 365 L 679 359 L 644 359 Z M 346 359 L 346 365 L 347 365 L 348 367 L 381 367 L 380 366 L 380 359 Z M 256 233 L 250 238 L 236 253 L 225 269 L 215 290 L 207 315 L 205 327 L 203 332 L 201 351 L 200 352 L 200 359 L 199 360 L 199 367 L 198 368 L 198 380 L 197 381 L 197 393 L 196 394 L 196 410 L 195 411 L 195 430 L 194 431 L 194 462 L 193 463 L 193 551 L 194 552 L 194 578 L 195 579 L 196 616 L 197 617 L 197 629 L 198 630 L 200 659 L 201 660 L 202 671 L 203 672 L 203 676 L 204 677 L 208 696 L 215 716 L 227 739 L 242 759 L 261 778 L 285 795 L 303 804 L 323 811 L 326 811 L 330 813 L 342 815 L 347 817 L 365 819 L 366 820 L 372 820 L 373 821 L 382 821 L 383 822 L 392 822 L 393 823 L 404 823 L 405 824 L 421 824 L 422 825 L 448 825 L 449 826 L 552 826 L 553 825 L 580 825 L 581 824 L 598 824 L 599 823 L 613 823 L 614 822 L 635 821 L 636 820 L 643 820 L 644 819 L 665 817 L 666 816 L 670 816 L 675 814 L 679 814 L 680 813 L 691 811 L 718 802 L 742 790 L 765 773 L 782 756 L 794 740 L 807 716 L 807 714 L 813 700 L 813 697 L 815 694 L 815 691 L 820 674 L 820 670 L 821 669 L 823 651 L 824 650 L 824 643 L 825 642 L 826 620 L 827 619 L 827 605 L 828 604 L 828 584 L 829 583 L 829 557 L 830 556 L 830 458 L 829 457 L 829 426 L 828 425 L 828 405 L 827 404 L 826 379 L 825 378 L 825 368 L 824 367 L 824 358 L 823 357 L 822 343 L 821 342 L 821 337 L 820 336 L 820 331 L 819 330 L 819 325 L 817 320 L 817 316 L 808 287 L 797 265 L 784 247 L 772 235 L 754 222 L 736 213 L 713 205 L 696 202 L 695 201 L 691 201 L 690 200 L 685 200 L 678 198 L 671 198 L 670 197 L 663 197 L 662 196 L 652 196 L 651 195 L 641 195 L 640 194 L 627 194 L 626 193 L 590 192 L 589 191 L 558 191 L 557 190 L 468 190 L 467 191 L 436 191 L 435 192 L 400 193 L 399 194 L 387 194 L 386 195 L 359 197 L 358 198 L 352 198 L 351 199 L 345 199 L 344 200 L 329 202 L 328 203 L 320 204 L 302 209 L 276 220 Z M 262 242 L 278 231 L 297 222 L 315 216 L 323 215 L 327 213 L 342 211 L 343 210 L 348 210 L 349 209 L 362 208 L 363 207 L 371 207 L 372 206 L 380 206 L 381 205 L 392 205 L 393 204 L 405 204 L 406 203 L 445 202 L 446 201 L 501 201 L 502 200 L 580 201 L 581 202 L 622 203 L 623 204 L 636 204 L 637 205 L 658 206 L 659 207 L 681 209 L 682 210 L 687 210 L 697 213 L 706 214 L 730 222 L 748 231 L 763 242 L 778 257 L 792 278 L 793 282 L 800 296 L 807 320 L 807 324 L 808 325 L 809 334 L 810 335 L 810 340 L 811 341 L 811 346 L 812 347 L 812 354 L 813 355 L 813 362 L 814 363 L 814 374 L 815 375 L 815 386 L 816 387 L 817 418 L 818 419 L 818 445 L 819 446 L 819 569 L 818 570 L 818 592 L 817 593 L 817 610 L 816 611 L 816 623 L 815 624 L 814 644 L 813 645 L 813 652 L 812 653 L 812 659 L 810 664 L 809 674 L 808 675 L 806 686 L 804 690 L 804 693 L 800 704 L 797 709 L 797 711 L 794 716 L 794 718 L 790 724 L 790 727 L 787 729 L 787 731 L 785 732 L 785 734 L 783 735 L 783 737 L 781 738 L 781 740 L 778 742 L 774 748 L 764 759 L 746 774 L 730 784 L 711 793 L 684 802 L 680 802 L 679 803 L 666 805 L 665 806 L 654 807 L 653 808 L 630 810 L 629 811 L 606 812 L 605 813 L 592 813 L 591 814 L 531 815 L 530 816 L 465 816 L 464 815 L 414 814 L 413 813 L 401 813 L 400 812 L 379 811 L 378 810 L 371 810 L 370 809 L 364 809 L 363 808 L 358 808 L 357 807 L 342 805 L 315 797 L 301 790 L 297 789 L 279 778 L 257 759 L 242 742 L 242 740 L 240 739 L 240 737 L 236 734 L 234 727 L 232 726 L 232 724 L 225 711 L 225 709 L 221 701 L 214 676 L 213 667 L 212 666 L 212 660 L 211 659 L 211 653 L 210 652 L 210 644 L 209 643 L 208 622 L 207 621 L 206 589 L 205 588 L 205 561 L 204 560 L 204 449 L 205 448 L 205 421 L 206 420 L 206 404 L 207 403 L 207 388 L 208 387 L 209 366 L 210 365 L 210 357 L 211 356 L 211 349 L 212 348 L 213 337 L 214 336 L 214 332 L 215 331 L 215 327 L 216 326 L 218 315 L 228 287 L 236 272 L 246 258 Z" fill="#b6933a" stroke="#b6933a" stroke-width="1" fill-rule="evenodd"/>
  <path d="M 242 707 L 242 717 L 243 715 L 356 715 L 356 708 L 355 707 L 354 708 L 243 708 Z M 242 709 L 243 708 L 354 708 L 355 709 L 355 714 L 354 715 L 243 715 L 242 714 Z M 274 644 L 274 647 L 275 648 L 310 648 L 310 644 Z M 303 645 L 304 644 L 307 644 L 308 647 L 307 648 L 304 648 Z M 750 640 L 750 643 L 749 644 L 714 644 L 714 648 L 749 648 L 750 647 Z M 735 645 L 736 644 L 746 644 L 747 647 L 746 648 L 736 648 Z M 715 645 L 716 644 L 725 644 L 726 647 L 725 648 L 716 648 Z M 446 603 L 446 604 L 451 608 L 451 610 L 432 630 L 430 630 L 429 627 L 435 618 L 436 614 L 438 613 L 436 612 L 424 638 L 440 623 L 452 609 L 452 608 Z M 342 581 L 342 639 L 343 639 L 343 622 L 342 621 L 342 582 L 343 581 Z M 334 576 L 334 671 L 333 672 L 266 672 L 266 681 L 342 681 L 343 680 L 342 678 L 342 673 L 342 679 L 341 680 L 286 680 L 285 681 L 275 681 L 274 680 L 273 681 L 269 681 L 266 679 L 266 673 L 267 672 L 333 672 L 334 671 L 334 649 L 335 648 L 335 645 L 334 644 L 334 617 L 335 616 L 335 587 L 334 586 L 334 580 L 335 579 L 338 579 Z M 680 581 L 681 582 L 681 671 L 682 672 L 681 680 L 682 681 L 758 681 L 758 672 L 691 672 L 690 671 L 690 575 L 692 573 L 689 577 L 685 579 L 688 578 L 690 580 L 690 583 L 689 584 L 689 588 L 690 589 L 690 671 L 691 672 L 757 672 L 758 673 L 758 679 L 757 680 L 683 680 L 682 679 L 682 581 L 683 580 Z M 747 567 L 747 571 L 746 572 L 728 572 L 728 579 L 746 579 L 747 580 L 747 584 Z M 728 573 L 729 572 L 746 572 L 747 573 L 747 577 L 742 579 L 731 579 L 728 576 Z M 681 560 L 676 562 L 623 562 L 622 563 L 507 563 L 506 562 L 505 565 L 628 565 L 629 566 L 673 566 L 677 564 Z M 648 563 L 649 562 L 672 562 L 673 565 L 672 566 L 649 566 Z M 342 559 L 344 560 L 344 562 L 346 564 L 350 566 L 392 566 L 393 565 L 447 565 L 448 566 L 451 562 L 450 563 L 347 562 Z M 352 563 L 353 562 L 370 562 L 371 565 L 370 566 L 353 566 Z M 344 550 L 349 553 L 454 554 L 455 556 L 458 551 L 350 551 L 349 550 Z M 510 556 L 512 554 L 649 554 L 650 553 L 675 553 L 680 549 L 678 550 L 673 550 L 672 551 L 559 551 L 558 552 L 552 552 L 551 551 L 550 552 L 547 551 L 537 552 L 535 551 L 534 552 L 531 552 L 530 551 L 517 551 L 516 548 Z M 703 516 L 703 519 L 743 519 L 744 518 L 751 518 L 717 518 L 716 519 L 704 519 Z M 759 510 L 758 511 L 705 511 L 705 512 L 709 512 L 710 511 L 715 511 L 716 512 L 733 512 L 734 511 L 758 511 Z M 590 509 L 589 513 L 586 517 L 581 517 L 575 519 L 571 523 L 571 527 L 571 523 L 572 522 L 574 522 L 575 525 L 578 525 L 584 520 L 584 518 L 588 515 Z M 320 509 L 319 511 L 266 511 L 293 511 L 294 512 L 317 511 L 320 513 L 320 517 L 317 519 L 314 519 L 313 518 L 310 518 L 309 519 L 304 519 L 303 518 L 283 518 L 282 519 L 266 519 L 265 520 L 266 519 L 320 519 Z M 566 503 L 567 509 L 570 512 L 574 512 L 576 511 L 577 509 L 579 509 L 583 512 L 585 510 L 585 499 L 586 498 L 590 498 L 591 499 L 591 507 L 591 499 L 589 497 L 585 498 L 585 510 L 584 511 L 581 511 L 580 510 L 580 499 L 578 497 L 575 497 L 571 500 L 571 504 L 570 505 L 572 508 L 573 508 L 573 505 L 571 503 L 572 500 L 574 500 L 578 505 L 577 509 L 575 510 L 574 512 L 571 512 L 568 510 L 566 506 Z M 465 498 L 464 502 L 469 502 L 471 504 L 472 501 L 474 501 L 477 498 L 480 498 L 482 500 L 482 506 L 480 508 L 478 508 L 481 508 L 483 504 L 482 499 L 479 497 L 476 498 L 474 501 L 472 501 L 469 497 Z M 465 499 L 466 498 L 469 498 L 470 501 L 469 502 L 466 502 Z M 438 497 L 437 498 L 437 506 L 440 505 L 440 499 Z M 396 497 L 395 498 L 395 508 L 393 511 L 391 512 L 383 512 L 380 509 L 379 509 L 379 510 L 383 512 L 396 511 Z M 562 498 L 562 506 L 558 511 L 555 511 L 554 508 L 557 502 L 557 498 L 554 498 L 553 496 L 551 499 L 552 498 L 556 498 L 557 499 L 556 505 L 553 506 L 551 503 L 551 505 L 553 506 L 553 508 L 551 509 L 550 512 L 547 512 L 550 512 L 552 510 L 559 511 L 562 506 Z M 406 505 L 406 507 L 408 507 L 409 509 L 411 501 L 414 500 L 415 501 L 415 509 L 418 512 L 428 512 L 431 510 L 434 511 L 436 509 L 436 508 L 435 510 L 433 510 L 432 507 L 431 508 L 423 508 L 420 506 L 420 498 L 420 507 L 428 508 L 429 511 L 428 512 L 418 512 L 415 509 L 415 498 L 412 497 L 411 494 Z M 372 494 L 369 501 L 369 509 L 369 501 L 372 500 L 373 501 L 373 510 L 370 511 L 376 511 L 375 510 L 375 497 L 374 497 L 373 500 L 370 499 L 370 497 L 372 496 Z M 629 493 L 632 493 L 629 493 L 626 496 L 625 503 L 627 509 L 630 512 L 633 512 L 636 508 L 635 501 L 638 498 L 643 498 L 644 499 L 643 507 L 635 520 L 644 505 L 644 499 L 641 497 L 640 498 L 637 498 L 635 501 L 633 501 L 632 500 L 632 497 L 630 498 L 630 501 L 632 501 L 636 504 L 636 508 L 634 511 L 630 512 L 629 509 L 631 508 L 632 506 L 630 505 L 630 507 L 627 508 L 625 503 L 626 496 Z M 602 497 L 604 498 L 604 501 L 601 504 L 605 501 L 613 501 L 614 502 L 617 501 L 615 498 L 612 497 L 605 498 L 604 495 L 607 493 L 616 493 L 621 498 L 621 503 L 619 507 L 615 507 L 611 511 L 605 512 L 612 511 L 613 509 L 616 510 L 617 507 L 620 507 L 621 498 L 619 495 L 616 493 L 607 493 Z M 453 493 L 450 493 L 447 496 L 444 496 L 441 493 L 430 493 L 434 493 L 435 494 L 441 493 L 445 498 L 445 510 L 445 504 L 446 503 L 450 503 L 451 504 L 451 516 L 449 521 L 445 525 L 439 528 L 432 528 L 429 526 L 429 521 L 433 518 L 432 516 L 431 516 L 425 521 L 424 527 L 424 523 L 425 522 L 427 522 L 428 525 L 432 528 L 439 528 L 444 526 L 449 521 L 451 516 L 451 497 L 449 496 L 449 494 L 450 493 Z M 474 480 L 470 486 L 471 492 L 470 493 L 466 493 L 471 493 L 473 495 L 477 493 L 482 493 L 484 494 L 488 499 L 487 508 L 482 512 L 478 512 L 477 511 L 478 512 L 485 511 L 486 513 L 487 510 L 489 509 L 489 507 L 492 505 L 491 506 L 488 505 L 488 499 L 487 497 L 483 493 L 480 492 L 480 490 L 482 489 L 484 486 L 482 486 L 480 483 L 477 484 L 474 487 L 473 490 L 470 489 L 470 486 L 475 480 Z M 478 485 L 480 488 L 480 492 L 479 493 L 472 494 L 471 491 L 474 489 L 476 485 Z M 691 458 L 692 459 L 693 458 L 726 458 L 727 459 L 727 464 L 726 465 L 717 465 L 716 466 L 696 465 L 697 466 L 726 466 L 727 464 L 727 458 Z M 569 432 L 568 432 L 567 434 L 570 433 L 574 436 L 574 439 L 549 473 L 543 483 L 535 493 L 511 528 L 505 535 L 477 576 L 471 583 L 465 593 L 459 600 L 455 600 L 452 597 L 452 595 L 451 597 L 458 602 L 546 479 L 557 462 L 575 438 L 575 437 Z M 573 419 L 571 423 L 580 430 L 583 426 Z M 572 421 L 575 420 L 581 425 L 581 427 L 578 428 L 572 423 Z M 642 407 L 642 416 L 701 416 L 701 407 L 700 406 L 643 406 Z M 642 408 L 644 406 L 700 406 L 701 407 L 701 414 L 696 416 L 686 416 L 685 415 L 667 415 L 666 416 L 663 415 L 643 415 L 642 414 Z M 323 416 L 382 416 L 382 406 L 324 406 L 379 406 L 382 409 L 382 413 L 380 415 L 363 415 L 362 416 L 326 416 L 325 415 Z M 599 390 L 596 390 L 599 390 L 602 393 L 603 397 L 588 418 L 586 418 L 580 413 L 580 410 L 594 391 L 578 412 L 587 419 L 589 418 L 603 397 L 602 392 Z M 308 367 L 347 367 L 348 366 L 381 366 L 382 367 L 382 358 L 346 358 L 344 357 L 345 358 L 345 366 L 344 367 Z M 345 359 L 346 358 L 380 358 L 381 359 L 381 365 L 380 366 L 346 366 L 345 365 Z" fill="#bdb18c" stroke="#bdb18c" stroke-width="1" fill-rule="evenodd"/>
</svg>