<svg xmlns="http://www.w3.org/2000/svg" width="1024" height="1024" viewBox="0 0 1024 1024" fill="none">
  <!-- NUSANTARAYA · Pilar A — Aksara (candi bentar + lontar & pena) -->
  <path d="M 508 490 L 504 494 L 500 494 L 498 488 L 495 510 L 489 510 L 489 503 L 487 520 L 477 521 L 488 522 L 488 528 L 493 524 L 493 517 L 489 517 L 488 512 L 493 511 L 494 515 L 498 515 L 499 517 L 499 510 L 501 508 L 502 499 L 504 494 Z M 580 484 L 573 490 L 569 490 L 568 485 L 571 482 L 555 497 L 551 497 L 545 492 L 545 485 L 544 493 L 556 499 L 556 503 L 553 504 L 558 508 L 560 513 L 557 507 L 557 503 Z M 728 259 L 728 266 L 722 276 L 723 281 L 728 280 L 731 266 L 736 265 L 729 264 Z M 301 251 L 296 256 L 295 266 L 292 267 L 294 278 L 297 281 L 300 281 L 302 278 L 295 266 L 295 259 Z M 0 0 L 0 1023 L 1023 1023 L 1023 0 Z M 154 137 L 182 116 L 209 102 L 242 91 L 274 86 L 751 86 L 789 93 L 812 101 L 829 109 L 857 127 L 889 157 L 909 184 L 924 213 L 933 239 L 939 270 L 940 742 L 935 776 L 922 814 L 915 828 L 901 850 L 889 865 L 868 886 L 841 906 L 815 920 L 784 931 L 749 937 L 275 937 L 258 935 L 236 930 L 213 922 L 194 913 L 166 895 L 135 866 L 114 838 L 99 809 L 87 771 L 83 744 L 83 280 L 86 256 L 90 239 L 104 202 L 116 181 L 126 167 Z" fill="#ffffff" stroke="#ffffff" stroke-width="1" fill-rule="evenodd"/>
  <path d="M 539 458 L 535 460 L 535 463 L 534 464 L 531 464 L 528 471 L 527 479 L 527 477 L 529 475 L 537 476 L 538 479 L 540 480 L 540 482 L 542 482 L 543 484 L 546 486 L 546 489 L 544 490 L 543 493 L 549 495 L 551 498 L 556 497 L 556 495 L 560 492 L 562 492 L 573 481 L 576 476 L 571 472 L 559 459 L 557 459 L 556 457 L 555 458 L 545 458 L 544 457 Z M 160 199 L 149 216 L 136 244 L 130 265 L 128 280 L 127 281 L 127 292 L 126 293 L 126 699 L 127 698 L 145 698 L 145 692 L 141 691 L 135 684 L 135 676 L 132 672 L 132 668 L 130 667 L 130 660 L 132 659 L 133 653 L 138 649 L 144 649 L 149 653 L 149 656 L 151 658 L 155 658 L 154 652 L 155 651 L 154 649 L 150 647 L 149 645 L 149 639 L 155 634 L 156 632 L 159 633 L 179 633 L 179 627 L 181 626 L 180 624 L 181 619 L 178 621 L 175 621 L 174 619 L 173 619 L 172 621 L 170 621 L 164 613 L 164 600 L 163 599 L 163 596 L 161 595 L 161 589 L 162 588 L 157 588 L 155 585 L 155 577 L 160 573 L 162 573 L 163 571 L 167 571 L 168 573 L 169 572 L 173 572 L 173 571 L 171 570 L 171 567 L 173 566 L 172 563 L 175 560 L 180 560 L 181 558 L 184 558 L 184 557 L 182 556 L 183 551 L 181 550 L 182 547 L 182 536 L 181 533 L 183 532 L 184 526 L 187 521 L 187 519 L 190 517 L 190 515 L 193 514 L 196 510 L 203 508 L 204 506 L 210 506 L 211 508 L 218 510 L 221 513 L 222 517 L 224 518 L 224 520 L 223 521 L 214 522 L 213 524 L 211 525 L 212 526 L 212 531 L 211 532 L 213 533 L 213 536 L 218 540 L 218 542 L 225 548 L 226 552 L 228 553 L 227 556 L 227 561 L 228 562 L 247 562 L 241 559 L 240 562 L 237 562 L 236 559 L 238 557 L 233 552 L 232 549 L 230 548 L 230 544 L 231 543 L 230 542 L 230 538 L 232 535 L 247 535 L 246 534 L 246 531 L 247 530 L 247 518 L 245 519 L 234 519 L 233 517 L 230 515 L 230 509 L 231 508 L 227 506 L 223 502 L 220 497 L 220 495 L 218 494 L 219 491 L 219 479 L 218 479 L 217 476 L 215 475 L 214 477 L 211 477 L 208 472 L 206 471 L 206 469 L 210 462 L 210 459 L 213 457 L 215 457 L 215 456 L 213 455 L 215 438 L 217 434 L 224 427 L 228 426 L 229 424 L 234 424 L 235 426 L 238 426 L 242 431 L 243 435 L 242 436 L 238 436 L 234 441 L 239 447 L 242 449 L 244 449 L 246 451 L 250 458 L 252 459 L 251 463 L 257 463 L 257 434 L 258 432 L 256 431 L 256 424 L 255 425 L 247 425 L 246 423 L 242 421 L 242 416 L 243 414 L 239 412 L 235 408 L 235 405 L 234 405 L 232 402 L 232 391 L 230 388 L 226 388 L 223 385 L 223 381 L 225 380 L 229 375 L 231 375 L 232 373 L 235 373 L 236 375 L 238 376 L 238 375 L 236 374 L 237 371 L 237 359 L 240 354 L 240 351 L 247 348 L 248 346 L 253 346 L 254 348 L 259 351 L 260 355 L 254 357 L 254 362 L 256 362 L 258 365 L 260 365 L 265 370 L 266 377 L 267 378 L 273 378 L 272 377 L 272 362 L 274 361 L 274 352 L 273 351 L 273 348 L 270 349 L 268 347 L 268 340 L 263 341 L 260 338 L 260 330 L 256 330 L 251 325 L 250 323 L 250 314 L 249 312 L 243 310 L 242 309 L 242 306 L 244 305 L 244 303 L 247 298 L 255 299 L 259 302 L 262 302 L 266 304 L 266 297 L 268 293 L 272 291 L 277 291 L 276 290 L 276 280 L 278 279 L 278 274 L 280 273 L 280 271 L 282 270 L 283 268 L 288 265 L 290 265 L 292 267 L 292 272 L 294 273 L 293 276 L 296 277 L 295 280 L 299 282 L 302 280 L 302 277 L 301 275 L 299 274 L 299 272 L 294 264 L 294 260 L 296 259 L 295 256 L 298 255 L 299 252 L 301 252 L 303 250 L 306 250 L 307 248 L 311 248 L 312 250 L 314 250 L 319 253 L 320 256 L 321 255 L 321 252 L 319 249 L 319 247 L 317 246 L 317 242 L 319 241 L 319 238 L 326 233 L 327 225 L 330 223 L 332 216 L 335 215 L 339 210 L 342 210 L 343 211 L 343 321 L 341 328 L 343 330 L 343 338 L 342 339 L 342 350 L 343 351 L 343 401 L 342 402 L 342 414 L 343 415 L 343 423 L 341 424 L 342 425 L 342 431 L 343 432 L 343 498 L 342 499 L 342 507 L 343 508 L 343 516 L 342 517 L 342 526 L 343 527 L 343 716 L 342 717 L 342 725 L 341 726 L 343 728 L 343 736 L 342 737 L 342 743 L 341 744 L 343 746 L 343 754 L 342 755 L 342 764 L 343 765 L 343 801 L 680 801 L 680 767 L 681 766 L 680 746 L 682 745 L 681 743 L 681 737 L 680 736 L 680 728 L 682 726 L 681 725 L 681 717 L 680 716 L 680 528 L 681 527 L 680 508 L 682 507 L 681 506 L 681 499 L 680 498 L 680 433 L 681 432 L 681 425 L 682 424 L 680 421 L 680 415 L 681 414 L 681 402 L 680 401 L 680 349 L 681 348 L 681 341 L 682 340 L 680 338 L 680 330 L 681 329 L 681 323 L 682 322 L 680 320 L 680 211 L 681 210 L 683 210 L 688 215 L 690 215 L 692 217 L 692 221 L 693 223 L 696 225 L 697 231 L 699 232 L 699 235 L 700 235 L 704 239 L 704 241 L 706 242 L 706 246 L 704 247 L 704 249 L 702 252 L 702 255 L 704 255 L 705 252 L 707 252 L 710 250 L 713 250 L 714 248 L 716 248 L 717 250 L 722 251 L 726 255 L 727 259 L 729 260 L 729 264 L 727 265 L 727 267 L 721 277 L 722 281 L 726 278 L 729 279 L 731 273 L 731 270 L 730 269 L 731 266 L 733 265 L 740 266 L 745 276 L 745 279 L 747 280 L 747 284 L 746 285 L 747 289 L 746 290 L 747 291 L 750 291 L 751 290 L 754 291 L 754 293 L 757 297 L 757 303 L 763 303 L 766 300 L 772 298 L 775 299 L 779 304 L 781 305 L 781 309 L 777 312 L 774 312 L 773 313 L 773 324 L 769 329 L 763 331 L 763 338 L 760 341 L 755 340 L 755 347 L 753 349 L 750 349 L 751 350 L 751 377 L 750 378 L 757 378 L 756 374 L 758 373 L 759 369 L 762 366 L 764 366 L 765 364 L 767 364 L 768 361 L 770 360 L 769 357 L 763 355 L 764 350 L 770 347 L 775 347 L 782 350 L 785 357 L 787 358 L 786 362 L 788 363 L 788 368 L 786 369 L 787 375 L 788 375 L 789 373 L 792 373 L 793 375 L 796 376 L 798 380 L 800 381 L 800 386 L 797 388 L 793 388 L 793 389 L 791 390 L 791 402 L 788 408 L 784 412 L 780 414 L 781 416 L 781 421 L 777 423 L 776 425 L 769 425 L 767 424 L 767 431 L 765 432 L 766 434 L 766 463 L 771 463 L 771 461 L 773 460 L 773 457 L 776 451 L 783 448 L 784 446 L 788 443 L 786 436 L 780 436 L 779 435 L 779 433 L 781 432 L 781 430 L 785 426 L 788 426 L 789 424 L 795 424 L 796 426 L 801 427 L 804 430 L 804 432 L 806 435 L 808 436 L 808 439 L 809 440 L 809 452 L 810 453 L 810 455 L 808 456 L 814 461 L 815 465 L 817 466 L 817 472 L 815 473 L 812 477 L 807 477 L 806 476 L 805 477 L 806 478 L 806 490 L 804 491 L 805 495 L 803 496 L 801 499 L 801 501 L 796 506 L 792 508 L 793 509 L 793 516 L 790 519 L 778 519 L 776 518 L 776 535 L 791 535 L 792 536 L 792 548 L 790 552 L 784 559 L 782 559 L 781 561 L 777 562 L 795 562 L 795 555 L 797 554 L 797 550 L 799 549 L 799 547 L 804 543 L 804 541 L 807 540 L 807 538 L 811 535 L 811 532 L 813 531 L 813 526 L 811 525 L 811 523 L 805 521 L 800 521 L 799 520 L 799 518 L 801 517 L 802 513 L 805 510 L 807 510 L 810 508 L 813 508 L 814 506 L 819 506 L 820 508 L 822 508 L 828 512 L 834 514 L 834 518 L 839 526 L 840 531 L 842 532 L 842 535 L 841 536 L 842 551 L 840 552 L 841 558 L 840 559 L 850 562 L 850 565 L 852 566 L 852 572 L 850 573 L 850 574 L 856 573 L 857 571 L 861 571 L 862 573 L 866 575 L 869 581 L 869 583 L 866 588 L 861 588 L 862 589 L 862 597 L 860 598 L 859 601 L 859 614 L 858 617 L 855 618 L 854 620 L 851 619 L 843 620 L 844 630 L 848 633 L 867 633 L 872 637 L 875 638 L 874 645 L 869 649 L 868 651 L 868 658 L 869 657 L 872 658 L 872 657 L 875 655 L 876 651 L 880 649 L 885 649 L 889 653 L 891 659 L 893 660 L 893 668 L 891 669 L 891 672 L 890 674 L 888 675 L 888 685 L 885 689 L 880 692 L 878 692 L 878 699 L 879 698 L 896 698 L 897 699 L 897 291 L 896 290 L 896 281 L 895 280 L 893 264 L 891 260 L 890 253 L 886 241 L 884 238 L 882 231 L 873 214 L 860 195 L 848 181 L 835 169 L 822 159 L 806 149 L 787 140 L 769 134 L 765 134 L 764 133 L 756 132 L 755 131 L 750 131 L 749 130 L 742 130 L 741 129 L 282 129 L 281 130 L 274 130 L 273 131 L 268 131 L 267 132 L 263 132 L 262 133 L 251 135 L 236 140 L 212 152 L 188 169 L 168 189 Z M 660 590 L 661 591 L 661 747 L 660 748 L 655 748 L 654 747 L 650 747 L 644 745 L 632 744 L 631 743 L 623 743 L 622 742 L 584 742 L 583 743 L 575 743 L 574 744 L 556 746 L 555 747 L 544 749 L 543 748 L 544 745 L 558 739 L 570 735 L 573 735 L 577 733 L 595 730 L 596 729 L 616 728 L 617 727 L 635 727 L 636 728 L 647 728 L 648 729 L 648 695 L 649 694 L 648 693 L 648 688 L 649 687 L 648 685 L 648 681 L 649 680 L 648 679 L 648 675 L 649 674 L 649 667 L 648 666 L 648 659 L 649 658 L 649 652 L 648 651 L 648 645 L 649 644 L 649 641 L 648 640 L 648 621 L 649 620 L 648 619 L 648 591 L 649 590 Z M 363 590 L 374 590 L 375 591 L 375 729 L 377 728 L 389 728 L 390 727 L 406 727 L 407 728 L 420 728 L 421 729 L 433 730 L 434 731 L 438 731 L 439 732 L 450 734 L 468 740 L 480 746 L 479 749 L 472 748 L 467 746 L 457 745 L 456 744 L 441 743 L 440 742 L 402 742 L 401 743 L 391 743 L 390 744 L 379 745 L 378 746 L 374 746 L 368 748 L 363 748 L 362 747 L 362 591 Z M 641 568 L 642 569 L 642 580 L 641 581 L 641 590 L 642 591 L 642 708 L 641 709 L 641 713 L 642 714 L 642 720 L 641 721 L 608 721 L 607 722 L 592 723 L 591 724 L 582 725 L 577 727 L 573 727 L 540 739 L 539 736 L 547 730 L 564 721 L 566 719 L 570 718 L 577 714 L 599 707 L 614 705 L 615 704 L 625 704 L 628 703 L 628 569 L 629 568 Z M 383 568 L 394 568 L 395 569 L 395 703 L 397 704 L 407 704 L 408 705 L 414 705 L 415 706 L 424 707 L 451 716 L 463 722 L 479 732 L 484 736 L 483 739 L 450 727 L 446 727 L 445 726 L 432 724 L 431 723 L 417 722 L 416 721 L 383 721 L 382 720 L 382 569 Z M 620 547 L 621 548 L 621 696 L 618 698 L 611 698 L 610 699 L 605 699 L 604 700 L 600 700 L 599 701 L 588 703 L 569 710 L 545 723 L 530 734 L 518 745 L 516 745 L 515 744 L 515 597 L 531 582 L 545 572 L 557 566 L 559 564 L 561 564 L 568 560 L 587 553 L 599 551 L 604 549 Z M 403 547 L 419 549 L 420 550 L 424 550 L 425 551 L 436 553 L 453 559 L 462 564 L 464 564 L 491 581 L 508 597 L 508 744 L 507 745 L 505 745 L 492 733 L 473 720 L 454 710 L 428 701 L 419 700 L 413 698 L 405 698 L 402 696 L 402 548 Z M 605 496 L 608 497 L 611 504 L 617 506 L 617 508 L 615 510 L 613 510 L 610 512 L 607 520 L 604 519 L 604 516 L 602 512 L 595 509 L 595 507 L 597 505 L 599 505 L 602 503 L 602 501 Z M 428 470 L 431 471 L 433 479 L 436 483 L 446 487 L 446 490 L 445 491 L 440 492 L 435 495 L 430 507 L 427 506 L 425 497 L 421 493 L 414 491 L 412 489 L 413 486 L 421 484 L 424 481 Z M 612 449 L 617 450 L 619 453 L 619 457 L 616 460 L 611 460 L 608 457 L 608 452 Z M 448 429 L 451 429 L 455 432 L 455 437 L 454 439 L 451 441 L 446 440 L 444 437 L 444 433 L 445 431 Z M 582 403 L 584 403 L 586 405 L 587 410 L 590 414 L 598 417 L 598 420 L 597 421 L 590 423 L 588 425 L 585 433 L 582 433 L 581 432 L 579 425 L 577 423 L 569 420 L 569 417 L 570 416 L 572 416 L 578 413 Z M 518 391 L 530 391 L 531 393 L 536 394 L 538 397 L 538 399 L 540 400 L 541 405 L 543 406 L 543 410 L 542 411 L 543 416 L 541 417 L 539 423 L 535 427 L 534 430 L 532 430 L 531 432 L 529 432 L 524 435 L 521 435 L 520 437 L 522 440 L 524 440 L 525 442 L 528 442 L 530 443 L 531 445 L 534 446 L 537 445 L 538 447 L 541 447 L 542 448 L 548 447 L 549 449 L 556 448 L 557 450 L 560 450 L 571 462 L 573 462 L 574 464 L 577 466 L 577 468 L 585 476 L 585 481 L 582 482 L 579 486 L 577 486 L 576 489 L 573 489 L 572 492 L 569 492 L 566 496 L 563 497 L 562 500 L 559 500 L 557 503 L 554 503 L 554 505 L 559 509 L 560 515 L 562 516 L 562 522 L 560 523 L 560 525 L 556 531 L 549 535 L 544 535 L 544 537 L 546 538 L 545 542 L 547 543 L 547 546 L 550 548 L 550 550 L 548 551 L 547 553 L 539 552 L 538 554 L 534 553 L 533 555 L 531 555 L 530 553 L 528 552 L 528 547 L 529 546 L 536 546 L 539 544 L 538 543 L 538 539 L 536 533 L 530 530 L 530 534 L 531 534 L 534 538 L 533 541 L 530 541 L 523 538 L 522 535 L 520 534 L 520 530 L 518 529 L 518 524 L 516 523 L 516 520 L 515 522 L 513 522 L 511 525 L 509 526 L 506 536 L 507 539 L 505 540 L 505 544 L 506 545 L 506 549 L 505 550 L 492 551 L 487 548 L 487 544 L 489 542 L 495 543 L 495 542 L 498 541 L 499 539 L 498 533 L 500 532 L 499 529 L 499 521 L 500 519 L 499 518 L 498 511 L 500 510 L 500 508 L 502 507 L 501 500 L 503 499 L 504 495 L 508 491 L 509 484 L 512 483 L 513 480 L 512 478 L 513 472 L 511 471 L 512 468 L 510 467 L 510 464 L 509 463 L 509 460 L 510 459 L 509 458 L 510 455 L 509 454 L 504 453 L 503 456 L 504 460 L 502 461 L 503 465 L 501 466 L 502 471 L 500 472 L 501 478 L 499 479 L 500 485 L 498 486 L 499 491 L 497 492 L 498 497 L 496 498 L 497 502 L 495 503 L 496 508 L 494 509 L 495 514 L 493 515 L 494 520 L 492 521 L 492 523 L 490 526 L 484 530 L 482 530 L 480 527 L 476 528 L 476 529 L 473 531 L 470 530 L 470 527 L 472 526 L 473 523 L 475 523 L 480 520 L 483 521 L 488 520 L 487 519 L 487 515 L 489 514 L 488 505 L 490 504 L 489 495 L 491 494 L 490 485 L 492 484 L 491 479 L 493 477 L 492 472 L 494 471 L 494 468 L 495 467 L 494 463 L 496 462 L 495 456 L 497 455 L 496 450 L 498 449 L 501 444 L 509 444 L 512 443 L 514 446 L 512 443 L 510 443 L 509 441 L 507 440 L 506 441 L 503 441 L 502 440 L 496 443 L 490 443 L 488 440 L 485 440 L 484 438 L 478 439 L 477 436 L 481 430 L 483 420 L 485 419 L 488 411 L 497 406 L 499 406 L 500 404 L 502 404 L 503 406 L 507 407 L 510 411 L 514 411 L 516 415 L 521 415 L 522 416 L 524 415 L 524 413 L 528 410 L 527 408 L 528 405 L 524 402 L 524 400 L 518 399 L 518 400 L 515 402 L 513 408 L 510 408 L 508 406 L 508 401 L 510 398 L 510 395 L 511 394 L 514 394 Z M 470 362 L 473 363 L 474 367 L 477 370 L 482 372 L 482 375 L 477 377 L 474 380 L 474 383 L 472 385 L 469 384 L 468 379 L 466 377 L 462 376 L 460 374 L 461 371 L 467 369 Z M 544 343 L 547 344 L 547 346 L 549 349 L 554 351 L 553 354 L 551 354 L 548 356 L 548 358 L 546 361 L 544 361 L 542 356 L 537 353 L 537 351 L 542 348 Z M 498 309 L 500 309 L 502 314 L 507 317 L 507 319 L 502 322 L 500 327 L 498 327 L 496 323 L 490 319 L 491 316 L 495 315 Z M 526 271 L 528 271 L 531 275 L 534 276 L 534 278 L 531 280 L 529 283 L 526 283 L 525 281 L 521 278 L 521 276 L 524 275 Z M 169 151 L 165 156 L 149 171 L 149 173 L 145 176 L 145 179 L 142 180 L 142 182 L 139 184 L 137 187 L 137 189 L 135 190 L 126 205 L 127 208 L 125 211 L 122 213 L 119 219 L 111 241 L 111 244 L 108 253 L 110 254 L 110 256 L 107 257 L 108 262 L 106 263 L 107 269 L 105 270 L 106 278 L 104 279 L 104 284 L 105 285 L 105 739 L 104 740 L 104 745 L 106 746 L 105 753 L 107 754 L 106 759 L 108 760 L 107 765 L 108 766 L 108 769 L 110 770 L 109 773 L 111 774 L 110 777 L 112 778 L 111 781 L 118 801 L 122 809 L 128 816 L 127 819 L 128 821 L 130 822 L 131 826 L 133 827 L 133 829 L 135 830 L 135 832 L 137 833 L 137 835 L 139 836 L 139 838 L 142 840 L 142 842 L 145 844 L 145 846 L 149 849 L 149 851 L 152 854 L 154 854 L 158 857 L 159 860 L 165 865 L 166 868 L 168 870 L 170 870 L 174 875 L 176 875 L 179 879 L 181 879 L 183 882 L 185 882 L 186 884 L 188 884 L 189 886 L 192 886 L 194 889 L 196 889 L 197 891 L 203 894 L 206 894 L 208 897 L 214 898 L 215 900 L 242 910 L 245 910 L 250 912 L 254 911 L 255 913 L 259 912 L 260 914 L 266 913 L 267 915 L 275 914 L 276 916 L 281 916 L 282 915 L 743 915 L 744 916 L 749 916 L 750 914 L 757 915 L 758 913 L 763 914 L 765 912 L 769 913 L 770 911 L 774 912 L 777 911 L 778 909 L 781 910 L 782 909 L 785 909 L 797 904 L 802 903 L 809 899 L 811 899 L 821 894 L 822 892 L 828 890 L 831 888 L 832 886 L 834 886 L 835 884 L 837 884 L 838 882 L 840 882 L 842 879 L 844 879 L 846 876 L 848 876 L 851 872 L 853 872 L 859 864 L 862 864 L 867 859 L 867 857 L 875 850 L 875 848 L 879 845 L 879 843 L 882 841 L 882 839 L 885 837 L 885 835 L 887 834 L 887 832 L 889 831 L 889 829 L 891 828 L 892 824 L 894 823 L 895 821 L 895 818 L 898 816 L 902 808 L 902 806 L 905 801 L 912 782 L 912 779 L 913 778 L 912 775 L 914 774 L 915 766 L 916 765 L 915 761 L 917 760 L 916 755 L 918 754 L 917 746 L 919 745 L 919 741 L 918 740 L 918 285 L 919 284 L 919 279 L 917 278 L 918 271 L 916 270 L 917 263 L 916 262 L 916 258 L 914 257 L 915 253 L 913 252 L 914 248 L 912 247 L 913 244 L 907 226 L 901 213 L 900 213 L 897 209 L 897 205 L 892 196 L 890 195 L 890 193 L 888 192 L 888 190 L 886 189 L 886 187 L 884 184 L 882 183 L 882 181 L 879 179 L 879 177 L 874 173 L 874 171 L 870 168 L 854 151 L 852 151 L 848 146 L 846 146 L 845 144 L 842 143 L 840 140 L 838 140 L 837 138 L 835 138 L 834 136 L 832 136 L 831 134 L 825 132 L 824 130 L 804 120 L 799 119 L 790 115 L 787 115 L 779 112 L 776 113 L 775 111 L 772 111 L 771 110 L 767 111 L 766 109 L 761 110 L 760 108 L 759 108 L 758 110 L 753 109 L 752 107 L 746 107 L 745 108 L 279 108 L 278 107 L 272 107 L 271 110 L 266 110 L 265 108 L 263 108 L 262 110 L 257 109 L 256 111 L 252 110 L 251 112 L 248 111 L 219 120 L 197 131 L 196 133 L 194 133 L 189 136 L 188 138 L 186 138 L 183 140 L 182 142 L 179 143 L 177 146 L 175 146 L 172 151 Z M 178 164 L 205 144 L 231 131 L 255 123 L 259 123 L 260 122 L 264 122 L 270 120 L 277 120 L 278 119 L 288 119 L 289 118 L 734 118 L 735 119 L 746 119 L 747 120 L 753 120 L 754 121 L 764 122 L 797 133 L 813 141 L 833 154 L 844 163 L 861 180 L 878 202 L 893 230 L 900 250 L 900 253 L 904 266 L 904 270 L 905 271 L 906 285 L 907 286 L 907 303 L 908 304 L 908 727 L 907 728 L 907 740 L 906 741 L 906 747 L 905 748 L 904 758 L 903 759 L 901 770 L 891 797 L 882 814 L 872 829 L 865 838 L 849 855 L 827 873 L 797 890 L 768 900 L 755 902 L 754 903 L 748 903 L 747 904 L 738 904 L 737 905 L 288 905 L 287 904 L 277 904 L 276 903 L 264 902 L 263 901 L 248 898 L 226 890 L 214 884 L 192 870 L 183 863 L 166 847 L 151 829 L 132 797 L 121 766 L 120 758 L 118 753 L 117 739 L 116 738 L 116 723 L 115 722 L 115 689 L 116 688 L 115 687 L 115 650 L 116 649 L 115 648 L 115 608 L 116 607 L 115 604 L 115 571 L 116 570 L 115 569 L 115 561 L 116 560 L 115 557 L 116 554 L 116 538 L 115 537 L 116 534 L 116 528 L 115 527 L 115 523 L 116 522 L 116 515 L 115 514 L 115 509 L 116 508 L 116 503 L 115 502 L 116 499 L 116 487 L 115 486 L 115 480 L 116 479 L 116 476 L 115 475 L 115 468 L 116 467 L 116 462 L 115 461 L 115 457 L 116 456 L 115 454 L 115 451 L 116 450 L 116 445 L 115 444 L 116 441 L 116 414 L 115 413 L 115 407 L 116 406 L 116 399 L 115 398 L 116 395 L 116 286 L 117 285 L 118 271 L 119 270 L 119 266 L 120 265 L 123 250 L 130 231 L 137 216 L 139 214 L 142 207 L 157 186 Z" fill="#f8f6e8" stroke="#f8f6e8" stroke-width="1" fill-rule="evenodd"/>
  <path d="M 683 508 L 683 517 L 775 517 L 776 516 L 790 516 L 791 515 L 790 508 Z M 233 508 L 233 516 L 247 516 L 248 517 L 340 517 L 340 508 Z M 126 701 L 126 731 L 127 732 L 127 741 L 128 742 L 128 748 L 129 749 L 129 753 L 130 754 L 130 758 L 133 766 L 133 769 L 138 784 L 147 803 L 149 805 L 154 815 L 165 830 L 186 852 L 200 863 L 214 872 L 234 882 L 239 883 L 245 886 L 248 886 L 259 890 L 274 892 L 275 893 L 281 893 L 282 894 L 742 894 L 743 893 L 749 893 L 750 892 L 755 892 L 756 891 L 768 889 L 789 882 L 817 867 L 837 852 L 859 829 L 874 807 L 887 779 L 890 770 L 891 763 L 893 759 L 893 755 L 895 749 L 895 743 L 896 742 L 896 734 L 897 733 L 897 701 L 895 700 L 831 700 L 830 699 L 830 692 L 831 691 L 877 691 L 883 689 L 886 686 L 887 683 L 831 683 L 830 682 L 830 675 L 835 673 L 841 674 L 842 673 L 879 673 L 880 674 L 887 674 L 889 673 L 891 663 L 890 662 L 889 655 L 886 651 L 884 650 L 879 651 L 873 659 L 868 659 L 867 658 L 867 650 L 871 647 L 873 644 L 873 640 L 869 635 L 866 634 L 843 634 L 842 633 L 842 628 L 776 628 L 775 627 L 775 619 L 776 618 L 853 618 L 855 617 L 858 613 L 858 609 L 776 609 L 775 608 L 775 600 L 776 599 L 859 599 L 859 590 L 860 587 L 867 585 L 867 579 L 863 574 L 850 575 L 849 574 L 849 570 L 850 569 L 849 568 L 849 565 L 846 562 L 842 561 L 838 558 L 839 549 L 840 548 L 840 535 L 839 534 L 839 530 L 837 524 L 834 519 L 827 512 L 821 509 L 811 509 L 807 511 L 802 517 L 802 520 L 810 521 L 814 525 L 814 532 L 811 537 L 799 550 L 798 552 L 798 558 L 796 563 L 780 563 L 779 562 L 779 560 L 784 557 L 790 550 L 790 547 L 791 546 L 791 536 L 776 536 L 775 535 L 775 527 L 757 527 L 756 526 L 683 526 L 683 718 L 782 718 L 783 719 L 783 726 L 782 727 L 765 727 L 764 728 L 732 728 L 731 727 L 730 728 L 708 728 L 707 727 L 690 727 L 687 728 L 686 727 L 683 727 L 683 736 L 842 736 L 843 737 L 843 745 L 842 746 L 683 746 L 683 755 L 833 755 L 834 756 L 834 763 L 833 764 L 683 764 L 683 802 L 681 804 L 663 804 L 662 803 L 661 804 L 646 804 L 645 803 L 644 804 L 596 804 L 595 803 L 588 803 L 587 804 L 538 804 L 537 803 L 520 803 L 519 804 L 516 804 L 515 803 L 514 804 L 495 804 L 494 803 L 493 804 L 390 804 L 389 803 L 388 804 L 385 803 L 367 804 L 365 803 L 364 804 L 349 804 L 348 803 L 347 804 L 342 804 L 340 802 L 340 767 L 341 766 L 340 764 L 190 764 L 189 763 L 189 756 L 190 755 L 340 755 L 340 746 L 181 746 L 180 745 L 180 737 L 181 736 L 340 736 L 340 727 L 324 727 L 323 728 L 313 728 L 312 727 L 311 728 L 294 728 L 293 727 L 291 728 L 264 728 L 263 727 L 254 727 L 253 728 L 245 728 L 244 727 L 241 728 L 240 727 L 240 719 L 241 718 L 340 718 L 340 526 L 249 526 L 248 527 L 248 535 L 247 536 L 232 536 L 232 546 L 233 547 L 233 550 L 238 556 L 244 560 L 244 562 L 243 563 L 227 563 L 226 562 L 226 555 L 224 550 L 213 538 L 209 531 L 210 524 L 213 521 L 221 520 L 221 516 L 216 511 L 208 508 L 202 509 L 198 511 L 189 519 L 186 524 L 184 530 L 184 534 L 183 535 L 183 548 L 184 549 L 185 558 L 183 560 L 177 562 L 174 565 L 174 574 L 173 575 L 170 575 L 165 573 L 159 575 L 156 579 L 156 584 L 158 586 L 162 586 L 163 587 L 164 599 L 247 599 L 248 600 L 248 608 L 247 609 L 165 609 L 166 615 L 171 618 L 247 618 L 248 619 L 248 627 L 247 628 L 182 628 L 182 633 L 181 634 L 157 634 L 154 635 L 150 640 L 150 644 L 151 646 L 156 650 L 156 659 L 153 660 L 149 658 L 145 651 L 143 650 L 137 651 L 133 657 L 133 662 L 132 663 L 134 673 L 135 674 L 143 674 L 144 673 L 164 673 L 165 674 L 166 673 L 185 673 L 186 674 L 187 673 L 192 673 L 194 675 L 194 681 L 192 683 L 137 683 L 138 687 L 140 689 L 146 691 L 193 691 L 194 692 L 194 699 L 193 700 L 139 700 L 138 701 L 133 701 L 132 700 L 131 701 Z M 219 433 L 215 442 L 215 454 L 216 457 L 209 465 L 209 472 L 210 474 L 216 474 L 219 476 L 220 478 L 220 492 L 222 498 L 340 498 L 340 432 L 260 432 L 260 465 L 259 466 L 251 466 L 247 454 L 234 444 L 233 442 L 234 437 L 237 435 L 242 435 L 240 430 L 236 427 L 227 427 L 223 429 Z M 804 433 L 799 428 L 793 426 L 787 427 L 784 429 L 782 432 L 782 435 L 786 435 L 789 437 L 790 439 L 789 444 L 777 453 L 774 458 L 774 465 L 773 466 L 765 466 L 763 464 L 763 432 L 683 432 L 683 498 L 801 498 L 803 493 L 803 478 L 807 474 L 813 474 L 815 470 L 812 461 L 807 457 L 807 454 L 808 453 L 808 441 Z M 683 414 L 683 422 L 778 422 L 778 414 Z M 244 420 L 245 422 L 340 422 L 340 414 L 245 414 L 245 419 Z M 520 392 L 515 394 L 511 398 L 509 402 L 509 407 L 512 408 L 513 407 L 512 402 L 517 398 L 522 398 L 525 399 L 529 404 L 529 411 L 528 413 L 522 417 L 517 418 L 515 416 L 514 412 L 508 412 L 507 411 L 507 408 L 498 407 L 490 412 L 484 422 L 482 431 L 478 436 L 478 438 L 480 437 L 485 437 L 491 442 L 495 442 L 501 439 L 508 439 L 514 444 L 514 446 L 513 447 L 500 447 L 499 448 L 497 464 L 494 474 L 493 487 L 492 488 L 492 498 L 491 499 L 491 508 L 490 509 L 489 521 L 487 523 L 482 523 L 481 522 L 476 523 L 473 526 L 472 530 L 477 526 L 487 527 L 491 522 L 492 512 L 493 511 L 494 501 L 495 500 L 496 490 L 497 489 L 497 483 L 498 482 L 498 476 L 499 475 L 501 459 L 503 453 L 504 452 L 507 452 L 511 455 L 511 460 L 510 462 L 514 470 L 514 481 L 510 488 L 510 490 L 506 494 L 504 498 L 503 508 L 500 512 L 500 516 L 502 522 L 500 540 L 499 542 L 496 544 L 491 544 L 489 543 L 488 548 L 489 549 L 505 549 L 504 538 L 506 534 L 507 528 L 514 520 L 516 520 L 519 524 L 519 528 L 521 530 L 521 533 L 523 534 L 526 538 L 531 540 L 533 539 L 533 538 L 529 535 L 529 531 L 530 530 L 535 531 L 538 535 L 540 545 L 537 547 L 531 547 L 530 549 L 531 553 L 538 551 L 546 551 L 548 549 L 544 543 L 543 535 L 554 531 L 558 527 L 559 520 L 560 519 L 558 511 L 553 505 L 553 503 L 557 501 L 571 489 L 580 483 L 584 479 L 584 476 L 558 451 L 546 450 L 545 449 L 541 449 L 540 448 L 530 446 L 524 443 L 517 437 L 518 434 L 522 434 L 531 430 L 537 424 L 540 418 L 540 414 L 541 413 L 540 404 L 538 400 L 533 395 L 528 392 Z M 538 457 L 545 456 L 546 455 L 555 455 L 577 476 L 577 479 L 555 499 L 550 499 L 547 495 L 545 495 L 542 493 L 543 485 L 541 484 L 535 477 L 531 476 L 529 478 L 526 477 L 526 473 L 529 465 L 533 460 Z M 683 348 L 683 404 L 788 404 L 790 401 L 790 389 L 792 387 L 797 387 L 798 385 L 797 379 L 793 376 L 786 376 L 785 375 L 785 360 L 784 357 L 777 349 L 774 348 L 768 349 L 765 352 L 764 355 L 768 355 L 771 358 L 771 361 L 760 371 L 757 379 L 750 379 L 748 377 L 748 348 Z M 225 383 L 226 387 L 230 387 L 233 390 L 233 401 L 235 404 L 340 404 L 340 348 L 275 348 L 275 378 L 274 379 L 266 379 L 264 372 L 252 361 L 252 358 L 255 355 L 259 355 L 258 352 L 255 349 L 252 349 L 251 348 L 250 349 L 247 349 L 245 350 L 239 357 L 239 360 L 238 361 L 238 372 L 239 375 L 238 376 L 230 376 L 228 377 Z M 683 330 L 683 339 L 684 338 L 687 339 L 754 339 L 755 338 L 761 339 L 762 338 L 762 330 Z M 261 330 L 261 337 L 264 339 L 340 339 L 340 330 Z M 683 211 L 683 320 L 772 320 L 772 312 L 775 310 L 778 310 L 779 308 L 777 302 L 774 300 L 769 300 L 765 302 L 761 306 L 758 306 L 756 304 L 756 298 L 754 294 L 751 292 L 746 292 L 745 291 L 744 277 L 741 271 L 735 266 L 733 266 L 732 268 L 732 274 L 730 279 L 727 282 L 723 283 L 720 280 L 720 277 L 726 267 L 726 258 L 724 254 L 719 251 L 711 251 L 704 256 L 701 255 L 701 251 L 703 248 L 703 240 L 701 237 L 696 234 L 696 229 L 691 222 L 691 219 Z M 341 211 L 332 219 L 332 222 L 327 229 L 327 234 L 322 237 L 320 240 L 320 248 L 322 251 L 322 255 L 319 256 L 317 253 L 313 251 L 304 251 L 298 256 L 296 262 L 297 263 L 297 267 L 303 276 L 303 280 L 300 283 L 296 282 L 293 279 L 291 274 L 291 268 L 290 266 L 289 266 L 282 271 L 279 277 L 279 291 L 278 292 L 273 292 L 268 296 L 267 298 L 267 304 L 265 306 L 261 305 L 254 300 L 249 300 L 246 302 L 245 304 L 245 310 L 248 310 L 251 313 L 251 320 L 340 320 L 340 212 Z M 155 138 L 135 158 L 124 172 L 110 194 L 99 217 L 92 238 L 92 241 L 89 250 L 89 254 L 88 255 L 87 267 L 86 268 L 86 276 L 85 277 L 85 747 L 86 748 L 87 762 L 88 763 L 88 767 L 89 768 L 89 772 L 90 773 L 92 784 L 102 812 L 111 830 L 118 840 L 119 843 L 135 864 L 162 890 L 174 899 L 190 909 L 210 919 L 235 928 L 238 928 L 251 932 L 263 933 L 264 934 L 272 934 L 273 935 L 752 935 L 753 934 L 767 933 L 768 932 L 785 929 L 820 916 L 846 901 L 867 885 L 888 864 L 902 846 L 912 830 L 922 810 L 926 797 L 929 791 L 929 788 L 931 784 L 931 781 L 934 772 L 935 763 L 936 762 L 937 746 L 938 745 L 938 279 L 937 278 L 937 268 L 936 267 L 936 262 L 934 256 L 934 251 L 933 250 L 930 235 L 923 215 L 909 187 L 897 169 L 888 158 L 861 132 L 849 123 L 831 112 L 815 104 L 790 95 L 787 95 L 778 92 L 774 92 L 773 91 L 769 91 L 768 90 L 754 89 L 753 88 L 270 88 L 269 89 L 255 90 L 254 91 L 237 94 L 208 104 L 177 121 Z M 165 153 L 177 143 L 190 134 L 218 119 L 242 111 L 254 109 L 255 108 L 260 108 L 261 107 L 267 107 L 268 106 L 280 106 L 281 105 L 742 105 L 743 106 L 755 106 L 756 107 L 763 107 L 764 108 L 773 109 L 785 113 L 788 113 L 807 120 L 823 128 L 842 140 L 858 153 L 871 166 L 884 182 L 894 197 L 905 218 L 905 220 L 908 225 L 913 239 L 913 242 L 916 251 L 916 255 L 917 256 L 917 260 L 918 261 L 919 274 L 920 275 L 920 288 L 921 289 L 921 738 L 920 739 L 920 749 L 919 750 L 919 756 L 918 757 L 916 772 L 906 802 L 896 822 L 885 839 L 873 854 L 856 871 L 835 887 L 805 903 L 786 910 L 783 910 L 771 914 L 761 915 L 760 916 L 753 916 L 752 917 L 741 917 L 740 918 L 285 918 L 284 917 L 272 917 L 271 916 L 264 916 L 263 915 L 253 914 L 252 913 L 241 911 L 237 909 L 234 909 L 220 903 L 218 903 L 198 893 L 181 882 L 165 869 L 152 856 L 132 830 L 126 820 L 115 797 L 107 771 L 105 756 L 104 755 L 104 749 L 103 748 L 103 738 L 102 737 L 102 288 L 103 287 L 103 275 L 104 274 L 104 267 L 105 266 L 106 255 L 107 254 L 110 239 L 112 236 L 118 218 L 126 202 L 136 186 L 152 166 Z" fill="#13253f" stroke="#13253f" stroke-width="1" fill-rule="evenodd"/>
  <path d="M 880 691 L 877 692 L 830 692 L 831 693 L 831 699 L 877 699 L 879 700 L 877 699 L 877 692 Z M 144 691 L 146 692 L 146 699 L 145 700 L 146 699 L 193 699 L 193 692 L 146 692 Z M 831 682 L 886 682 L 887 685 L 887 675 L 889 674 L 887 675 L 880 675 L 879 674 L 835 674 L 832 675 L 831 674 Z M 134 674 L 136 676 L 136 684 L 137 682 L 192 682 L 193 681 L 193 675 L 192 674 L 144 674 L 143 675 Z M 776 619 L 776 627 L 842 627 L 842 619 Z M 181 621 L 181 633 L 181 628 L 182 627 L 247 627 L 247 619 L 182 619 Z M 776 608 L 858 608 L 858 601 L 859 600 L 776 600 Z M 165 600 L 165 608 L 247 608 L 247 600 Z M 660 591 L 649 591 L 649 651 L 650 652 L 649 655 L 650 656 L 649 659 L 649 666 L 650 667 L 650 674 L 649 675 L 649 728 L 648 729 L 636 729 L 635 728 L 603 729 L 602 730 L 596 730 L 595 731 L 581 733 L 558 740 L 532 752 L 556 745 L 574 743 L 575 742 L 583 742 L 584 741 L 622 741 L 623 742 L 631 742 L 632 743 L 644 744 L 645 745 L 649 745 L 650 746 L 654 746 L 660 748 Z M 363 591 L 363 748 L 369 746 L 378 745 L 379 744 L 390 743 L 391 742 L 401 742 L 402 741 L 440 741 L 441 742 L 449 742 L 450 743 L 456 743 L 462 745 L 467 745 L 472 747 L 480 748 L 491 752 L 468 741 L 438 732 L 428 731 L 427 730 L 421 730 L 420 729 L 407 729 L 406 728 L 390 728 L 389 729 L 375 729 L 374 728 L 374 591 Z M 383 569 L 383 720 L 416 720 L 417 721 L 424 721 L 425 722 L 431 722 L 432 723 L 441 724 L 471 733 L 493 744 L 470 727 L 451 717 L 424 708 L 420 708 L 414 706 L 408 706 L 407 705 L 397 705 L 394 703 L 394 569 Z M 640 568 L 639 569 L 629 569 L 629 703 L 625 705 L 615 705 L 614 706 L 599 708 L 577 715 L 550 729 L 532 743 L 552 733 L 582 724 L 586 724 L 592 722 L 598 722 L 599 721 L 607 721 L 608 720 L 641 720 L 641 714 L 640 713 L 640 709 L 641 708 L 641 569 Z M 620 548 L 604 550 L 599 552 L 587 554 L 568 561 L 561 565 L 559 565 L 539 577 L 524 589 L 516 597 L 516 746 L 524 738 L 539 726 L 553 717 L 569 709 L 588 702 L 591 702 L 600 699 L 604 699 L 605 698 L 618 697 L 620 696 Z M 403 548 L 403 696 L 428 700 L 454 709 L 468 716 L 488 729 L 498 737 L 507 746 L 507 597 L 491 582 L 464 565 L 462 565 L 453 560 L 436 554 L 433 554 L 424 551 L 420 551 L 419 550 Z M 606 495 L 603 501 L 603 503 L 599 506 L 594 507 L 594 508 L 598 509 L 603 512 L 606 520 L 609 512 L 613 509 L 618 508 L 618 507 L 611 505 L 609 503 Z M 429 470 L 425 481 L 421 485 L 411 488 L 411 489 L 421 492 L 426 497 L 429 507 L 431 504 L 432 499 L 436 493 L 448 489 L 448 488 L 436 484 L 433 481 Z M 610 451 L 609 452 L 609 457 L 611 459 L 616 459 L 618 457 L 617 451 L 615 450 Z M 448 430 L 446 431 L 445 433 L 445 437 L 446 439 L 451 440 L 453 439 L 454 437 L 454 432 L 451 430 Z M 583 402 L 579 413 L 577 415 L 567 418 L 567 419 L 577 422 L 580 425 L 583 435 L 584 435 L 587 425 L 590 422 L 600 419 L 600 418 L 590 415 L 587 412 L 584 402 Z M 471 361 L 468 369 L 466 371 L 459 373 L 459 374 L 466 376 L 469 379 L 471 386 L 472 386 L 473 380 L 477 376 L 484 374 L 484 373 L 477 371 L 473 367 Z M 545 342 L 543 348 L 541 350 L 536 351 L 536 352 L 541 354 L 543 356 L 545 362 L 547 356 L 549 354 L 555 352 L 549 350 L 547 348 Z M 499 308 L 496 315 L 489 318 L 494 320 L 497 323 L 499 328 L 501 322 L 509 318 L 504 317 L 501 314 Z M 527 270 L 526 274 L 524 276 L 520 277 L 520 278 L 523 278 L 526 281 L 527 285 L 528 285 L 529 281 L 531 279 L 535 278 L 535 277 L 531 276 L 529 274 L 528 270 Z M 682 211 L 682 802 L 681 803 L 536 803 L 681 803 L 682 802 L 682 764 L 683 763 L 833 763 L 833 757 L 834 756 L 683 756 L 682 755 L 682 746 L 683 745 L 842 745 L 842 737 L 683 737 L 682 736 L 682 728 L 683 727 L 689 727 L 690 726 L 704 726 L 705 727 L 767 727 L 768 726 L 782 726 L 782 719 L 683 719 L 682 718 L 682 526 L 683 525 L 746 525 L 747 526 L 748 525 L 756 525 L 757 526 L 775 526 L 775 518 L 776 517 L 790 517 L 791 516 L 790 517 L 776 517 L 775 518 L 683 518 L 682 517 L 682 508 L 683 507 L 790 507 L 791 508 L 791 511 L 791 508 L 796 505 L 800 501 L 800 499 L 683 499 L 682 498 L 682 432 L 683 431 L 763 431 L 764 432 L 764 464 L 765 465 L 773 465 L 773 461 L 773 464 L 772 465 L 765 465 L 764 464 L 764 432 L 766 431 L 766 424 L 767 423 L 776 423 L 683 423 L 682 422 L 682 414 L 683 413 L 778 413 L 779 414 L 779 421 L 779 414 L 784 411 L 789 404 L 788 405 L 683 405 L 682 404 L 682 348 L 683 347 L 748 347 L 749 348 L 749 377 L 749 349 L 754 347 L 754 340 L 755 339 L 759 339 L 755 339 L 754 340 L 687 340 L 682 338 L 682 330 L 683 329 L 762 329 L 763 330 L 769 328 L 772 324 L 772 321 L 683 321 L 682 320 Z M 340 211 L 339 212 L 341 213 L 341 320 L 340 321 L 251 321 L 251 323 L 256 329 L 340 329 L 341 330 L 341 339 L 340 340 L 279 340 L 278 339 L 277 340 L 269 340 L 268 339 L 262 339 L 261 338 L 262 339 L 268 339 L 269 340 L 269 347 L 270 348 L 273 348 L 274 351 L 274 348 L 275 347 L 340 347 L 341 348 L 341 404 L 340 405 L 236 405 L 236 408 L 244 414 L 244 421 L 244 414 L 245 413 L 340 413 L 341 414 L 341 422 L 340 423 L 247 423 L 256 423 L 257 424 L 257 431 L 259 432 L 259 464 L 258 465 L 251 465 L 259 465 L 259 432 L 260 431 L 340 431 L 341 432 L 341 498 L 340 499 L 223 499 L 223 500 L 227 505 L 232 508 L 232 515 L 232 508 L 233 507 L 340 507 L 341 508 L 341 517 L 340 518 L 248 518 L 247 517 L 234 517 L 247 517 L 248 518 L 248 526 L 249 525 L 340 525 L 341 526 L 341 718 L 340 719 L 241 719 L 241 727 L 257 727 L 258 726 L 263 726 L 264 727 L 323 727 L 324 726 L 340 726 L 341 727 L 341 736 L 340 737 L 181 737 L 181 745 L 340 745 L 341 746 L 341 755 L 340 756 L 190 756 L 190 764 L 191 763 L 340 763 L 341 764 L 341 802 L 342 803 L 376 803 L 342 803 L 341 802 L 341 212 Z M 178 165 L 158 186 L 149 198 L 138 216 L 131 231 L 124 250 L 124 253 L 120 266 L 120 270 L 119 271 L 118 285 L 117 286 L 117 373 L 116 374 L 117 375 L 117 383 L 116 384 L 117 386 L 117 395 L 116 396 L 116 413 L 117 414 L 117 439 L 116 440 L 116 444 L 117 445 L 117 448 L 116 449 L 116 461 L 117 462 L 117 467 L 116 468 L 116 486 L 117 487 L 117 491 L 116 492 L 117 493 L 116 496 L 117 497 L 116 500 L 117 503 L 116 506 L 116 537 L 117 538 L 117 542 L 116 543 L 116 546 L 117 547 L 117 554 L 116 555 L 116 604 L 117 605 L 116 608 L 116 722 L 117 723 L 117 738 L 118 739 L 119 753 L 121 758 L 122 766 L 133 797 L 152 829 L 167 847 L 192 869 L 214 883 L 226 889 L 248 897 L 251 897 L 264 901 L 276 902 L 277 903 L 287 903 L 288 904 L 737 904 L 738 903 L 747 903 L 748 902 L 754 902 L 755 901 L 764 900 L 797 889 L 827 872 L 849 854 L 871 829 L 881 814 L 890 797 L 890 795 L 895 785 L 903 758 L 904 748 L 905 747 L 905 741 L 906 740 L 906 728 L 907 727 L 907 304 L 906 303 L 906 286 L 905 285 L 905 277 L 904 276 L 903 266 L 902 265 L 899 250 L 892 230 L 877 202 L 860 180 L 844 164 L 833 155 L 813 142 L 797 134 L 764 123 L 754 122 L 753 121 L 747 121 L 746 120 L 735 120 L 734 119 L 289 119 L 288 120 L 278 120 L 277 121 L 270 121 L 269 122 L 255 124 L 231 132 L 205 145 Z M 188 168 L 207 154 L 217 149 L 219 147 L 236 139 L 263 131 L 273 130 L 274 129 L 281 129 L 282 128 L 741 128 L 742 129 L 749 129 L 750 130 L 755 130 L 765 133 L 769 133 L 796 143 L 822 158 L 835 168 L 849 181 L 864 199 L 874 214 L 883 231 L 894 264 L 896 280 L 897 281 L 897 290 L 898 291 L 898 699 L 896 700 L 898 701 L 898 733 L 897 734 L 896 749 L 895 750 L 895 754 L 894 755 L 894 759 L 892 763 L 891 770 L 884 789 L 875 807 L 860 829 L 837 853 L 817 868 L 789 883 L 768 890 L 756 892 L 755 893 L 750 893 L 749 894 L 743 894 L 742 895 L 282 895 L 281 894 L 275 894 L 274 893 L 259 891 L 248 887 L 245 887 L 239 884 L 234 883 L 214 873 L 200 864 L 186 853 L 169 836 L 153 815 L 148 805 L 146 803 L 137 784 L 129 758 L 129 754 L 127 748 L 127 742 L 126 741 L 126 732 L 125 731 L 125 701 L 126 700 L 138 700 L 126 700 L 125 699 L 125 293 L 126 292 L 127 275 L 128 274 L 129 265 L 133 253 L 133 250 L 137 241 L 138 236 L 148 216 L 162 195 Z" fill="#b89c5f" stroke="#b89c5f" stroke-width="1" fill-rule="evenodd"/>
</svg>