<svg xmlns="http://www.w3.org/2000/svg" width="1024" height="1024" viewBox="0 0 1024 1024" fill="none">
  <!-- NUSANTARAYA · Pilar S — Sejarah (vektor dari referensi: candi bentar + jam pasir) -->
  <path d="M 288 693 L 304 709 L 315 717 L 328 724 L 350 732 L 395 740 L 460 744 L 590 743 L 653 736 L 684 728 L 706 718 L 725 704 L 735 693 Z M 434 653 L 435 655 L 444 658 L 483 662 L 539 661 L 559 658 L 565 655 L 563 653 L 545 655 L 479 655 L 437 651 Z M 539 602 L 535 600 L 518 615 L 507 621 L 493 626 L 508 625 L 528 618 L 538 610 L 540 605 Z M 576 485 L 573 490 L 555 508 L 534 524 L 533 529 L 544 541 L 560 554 L 577 573 Z M 447 484 L 447 574 L 466 553 L 490 532 L 492 528 L 487 521 L 465 505 L 452 492 Z M 581 428 L 575 427 L 575 438 L 568 462 L 559 478 L 535 510 L 550 498 L 561 487 L 570 475 L 579 453 L 581 442 Z M 442 428 L 444 452 L 450 469 L 461 485 L 474 498 L 489 509 L 460 471 L 450 446 L 448 427 Z M 457 425 L 459 445 L 464 460 L 476 479 L 500 508 L 505 520 L 505 531 L 502 537 L 491 548 L 476 559 L 456 581 L 448 596 L 445 605 L 442 628 L 447 628 L 450 609 L 457 595 L 462 596 L 459 614 L 513 580 L 523 581 L 539 588 L 555 600 L 566 612 L 563 596 L 568 595 L 575 611 L 578 628 L 582 628 L 580 607 L 572 586 L 563 573 L 551 561 L 535 549 L 523 537 L 521 533 L 520 520 L 527 504 L 535 493 L 520 508 L 516 518 L 516 524 L 511 525 L 505 504 L 483 478 L 476 465 L 477 460 L 495 461 L 505 464 L 524 474 L 535 475 L 544 469 L 533 470 L 514 463 L 513 458 L 533 452 L 562 451 L 565 442 L 566 425 L 533 420 L 490 420 Z M 510 562 L 515 562 L 518 565 L 518 571 L 515 574 L 511 574 L 507 571 L 507 565 Z M 509 544 L 516 544 L 518 546 L 518 552 L 515 555 L 510 555 L 507 552 L 507 546 Z M 435 407 L 438 410 L 468 405 L 509 402 L 564 405 L 565 401 L 561 398 L 544 396 L 496 395 L 448 400 L 437 403 Z M 286 291 L 273 311 L 263 340 L 257 380 L 254 431 L 253 517 L 256 599 L 262 639 L 268 659 L 273 670 L 286 670 L 285 646 L 287 640 L 307 639 L 307 632 L 304 632 L 302 630 L 302 612 L 313 611 L 314 609 L 313 602 L 316 558 L 316 521 L 306 506 L 305 490 L 296 482 L 294 478 L 294 459 L 334 458 L 333 446 L 327 443 L 320 434 L 319 418 L 356 417 L 356 409 L 350 408 L 348 406 L 347 398 L 343 397 L 340 394 L 339 380 L 341 376 L 378 376 L 376 373 L 372 372 L 363 361 L 362 351 L 365 345 L 419 345 L 419 338 L 387 337 L 380 328 L 380 319 L 421 318 L 421 314 L 401 314 L 399 312 L 399 300 L 401 297 L 410 297 L 410 283 L 430 267 L 436 268 L 436 379 L 412 385 L 407 389 L 405 394 L 406 419 L 411 426 L 419 430 L 420 628 L 410 632 L 405 638 L 405 668 L 409 672 L 425 678 L 454 684 L 488 687 L 529 687 L 565 684 L 588 680 L 611 673 L 616 670 L 619 665 L 618 638 L 613 632 L 604 628 L 604 430 L 610 427 L 615 422 L 617 416 L 617 394 L 612 386 L 600 381 L 587 378 L 587 268 L 592 267 L 613 283 L 613 297 L 623 298 L 622 314 L 601 314 L 601 318 L 641 318 L 643 320 L 643 327 L 635 337 L 605 338 L 605 345 L 658 345 L 660 349 L 659 362 L 653 370 L 647 373 L 647 376 L 682 376 L 684 382 L 683 395 L 675 398 L 675 406 L 673 408 L 666 409 L 666 417 L 704 418 L 703 435 L 696 443 L 691 445 L 690 458 L 728 458 L 730 460 L 730 475 L 728 481 L 718 490 L 717 506 L 707 520 L 706 534 L 709 611 L 721 612 L 721 630 L 717 632 L 717 640 L 738 640 L 739 670 L 750 670 L 755 659 L 762 635 L 768 591 L 770 553 L 770 447 L 768 402 L 762 350 L 754 321 L 742 298 L 725 279 L 711 269 L 690 259 L 673 254 L 651 250 L 601 245 L 485 243 L 399 247 L 351 254 L 328 261 L 315 267 L 300 277 Z M 419 393 L 428 390 L 461 384 L 522 381 L 571 385 L 600 391 L 606 394 L 606 416 L 602 420 L 593 421 L 594 637 L 603 638 L 608 641 L 609 655 L 608 663 L 605 666 L 577 673 L 546 677 L 488 678 L 437 672 L 419 667 L 415 664 L 415 642 L 418 639 L 431 636 L 430 421 L 424 421 L 416 415 L 416 396 Z M 285 263 L 270 278 L 255 301 L 247 321 L 240 351 L 237 372 L 233 434 L 233 562 L 235 598 L 240 637 L 249 669 L 258 688 L 272 708 L 284 720 L 303 734 L 318 742 L 333 748 L 361 755 L 397 760 L 440 763 L 545 764 L 624 760 L 655 756 L 678 751 L 697 745 L 718 735 L 739 720 L 751 708 L 765 688 L 775 666 L 781 646 L 786 619 L 789 588 L 791 540 L 790 423 L 785 363 L 776 321 L 772 310 L 761 289 L 752 277 L 739 264 L 713 247 L 682 236 L 632 228 L 561 224 L 464 224 L 416 226 L 373 230 L 345 235 L 319 243 L 304 250 Z M 291 270 L 302 262 L 319 253 L 342 245 L 365 240 L 400 236 L 450 233 L 539 232 L 611 235 L 669 242 L 702 252 L 719 261 L 734 272 L 747 286 L 756 299 L 764 315 L 770 333 L 778 380 L 782 457 L 782 541 L 780 588 L 777 617 L 773 640 L 765 666 L 757 683 L 746 699 L 729 716 L 715 726 L 698 735 L 681 741 L 643 749 L 574 755 L 451 755 L 383 750 L 351 744 L 332 738 L 316 731 L 295 717 L 277 699 L 271 691 L 260 671 L 253 652 L 248 630 L 244 599 L 241 523 L 243 407 L 250 346 L 256 323 L 265 302 L 278 283 Z M 0 0 L 0 1023 L 1023 1023 L 1023 0 Z M 275 251 L 294 238 L 313 229 L 335 222 L 366 216 L 440 210 L 560 209 L 633 213 L 679 220 L 707 228 L 723 235 L 741 246 L 751 254 L 765 268 L 776 283 L 791 315 L 797 338 L 802 368 L 807 445 L 807 552 L 805 594 L 801 631 L 795 659 L 786 684 L 777 701 L 764 719 L 748 735 L 731 747 L 714 756 L 695 763 L 665 770 L 644 773 L 569 778 L 440 778 L 367 772 L 346 768 L 318 760 L 298 751 L 277 737 L 258 718 L 248 704 L 238 686 L 229 662 L 224 641 L 220 614 L 216 541 L 217 423 L 221 369 L 226 338 L 234 309 L 245 286 L 256 270 Z" fill="#fffffe" stroke="#fffffe" stroke-width="1" fill-rule="evenodd"/>
  <path d="M 432 419 L 431 420 L 431 457 L 432 458 L 432 637 L 440 640 L 456 642 L 457 643 L 475 644 L 476 645 L 488 645 L 489 646 L 536 646 L 537 645 L 548 645 L 549 644 L 558 644 L 559 643 L 573 642 L 574 641 L 584 640 L 591 638 L 592 637 L 592 419 L 579 415 L 570 414 L 569 413 L 546 411 L 545 410 L 532 410 L 531 409 L 495 409 L 494 410 L 470 411 L 469 412 L 462 412 L 461 413 L 455 413 L 454 414 L 444 415 Z M 574 487 L 577 488 L 577 552 L 578 553 L 578 571 L 577 572 L 575 572 L 565 560 L 545 543 L 532 529 L 532 525 L 539 518 L 543 516 L 557 505 Z M 447 486 L 449 486 L 454 493 L 463 502 L 486 519 L 493 527 L 493 529 L 491 532 L 481 542 L 465 555 L 454 566 L 449 573 L 446 572 L 446 487 Z M 581 427 L 582 428 L 582 443 L 581 444 L 580 454 L 577 463 L 571 475 L 563 486 L 548 501 L 543 505 L 539 506 L 538 503 L 555 482 L 566 464 L 572 447 L 573 437 L 574 436 L 574 427 L 575 426 Z M 445 426 L 448 426 L 449 427 L 450 440 L 455 458 L 467 480 L 487 504 L 486 507 L 484 507 L 476 501 L 459 484 L 450 471 L 447 465 L 442 447 L 442 439 L 441 438 L 441 428 Z M 457 424 L 470 422 L 471 421 L 477 421 L 478 420 L 487 420 L 488 419 L 535 419 L 536 420 L 559 422 L 560 423 L 564 423 L 567 425 L 566 443 L 565 444 L 563 454 L 553 473 L 543 486 L 537 492 L 526 508 L 521 521 L 521 530 L 525 538 L 534 547 L 549 558 L 564 573 L 572 584 L 578 596 L 581 606 L 582 616 L 583 617 L 583 628 L 582 629 L 578 629 L 577 628 L 575 615 L 571 603 L 562 587 L 556 581 L 563 595 L 567 609 L 567 614 L 569 620 L 569 630 L 568 631 L 559 632 L 558 633 L 552 633 L 551 634 L 526 635 L 525 636 L 497 636 L 496 635 L 482 635 L 481 634 L 471 634 L 470 633 L 459 632 L 455 629 L 456 618 L 457 617 L 460 600 L 463 594 L 464 589 L 468 582 L 462 588 L 453 604 L 449 617 L 448 628 L 447 629 L 442 629 L 441 628 L 441 620 L 442 619 L 442 613 L 443 612 L 444 604 L 453 584 L 467 566 L 477 557 L 492 546 L 501 537 L 504 531 L 504 521 L 499 508 L 474 478 L 462 458 L 458 445 L 458 440 L 457 439 L 457 429 L 456 428 L 456 425 Z M 416 278 L 412 282 L 412 285 L 411 286 L 411 297 L 410 298 L 401 298 L 400 310 L 401 313 L 421 313 L 422 314 L 422 318 L 421 319 L 382 319 L 381 320 L 381 328 L 383 332 L 389 337 L 419 337 L 420 338 L 420 345 L 419 346 L 365 346 L 364 347 L 364 361 L 366 365 L 371 370 L 375 372 L 413 372 L 414 373 L 414 376 L 413 377 L 341 377 L 341 380 L 340 381 L 341 394 L 343 396 L 345 396 L 348 398 L 350 407 L 355 407 L 356 408 L 368 408 L 369 407 L 383 408 L 384 407 L 393 407 L 394 408 L 394 417 L 393 418 L 321 418 L 320 419 L 321 434 L 323 438 L 327 442 L 329 442 L 334 445 L 334 451 L 404 451 L 405 452 L 405 458 L 404 459 L 296 459 L 294 463 L 294 474 L 295 475 L 295 478 L 297 482 L 301 486 L 306 489 L 307 496 L 404 496 L 405 497 L 405 504 L 404 505 L 400 505 L 399 504 L 337 504 L 336 505 L 333 505 L 332 504 L 307 504 L 308 508 L 316 519 L 353 519 L 355 523 L 355 527 L 353 532 L 317 532 L 318 533 L 317 546 L 318 547 L 319 546 L 333 546 L 334 547 L 334 554 L 333 555 L 317 555 L 317 561 L 316 562 L 316 582 L 315 583 L 315 608 L 346 608 L 347 611 L 345 613 L 315 613 L 314 612 L 303 612 L 303 630 L 304 631 L 365 631 L 365 519 L 366 518 L 374 518 L 375 519 L 375 640 L 374 641 L 287 641 L 287 653 L 286 654 L 287 661 L 386 661 L 387 662 L 387 669 L 386 670 L 287 670 L 281 672 L 274 672 L 284 689 L 287 692 L 736 692 L 744 681 L 749 672 L 739 672 L 738 670 L 639 670 L 638 669 L 638 662 L 639 661 L 737 661 L 738 662 L 738 641 L 650 641 L 648 639 L 648 519 L 649 518 L 657 518 L 659 520 L 659 631 L 718 631 L 720 630 L 720 613 L 719 612 L 709 612 L 708 613 L 678 613 L 677 612 L 677 609 L 678 608 L 708 608 L 706 555 L 690 555 L 689 554 L 689 548 L 691 546 L 704 546 L 705 547 L 706 546 L 705 532 L 671 532 L 670 531 L 670 520 L 671 519 L 703 519 L 706 520 L 714 510 L 716 504 L 710 504 L 709 505 L 704 505 L 703 504 L 702 505 L 693 505 L 692 504 L 688 504 L 687 505 L 679 505 L 678 504 L 656 505 L 655 504 L 648 504 L 645 505 L 644 504 L 643 505 L 640 505 L 639 504 L 619 504 L 618 503 L 618 497 L 619 496 L 717 496 L 717 490 L 726 482 L 728 478 L 728 475 L 729 474 L 729 461 L 728 459 L 619 459 L 618 458 L 618 452 L 619 451 L 689 451 L 690 445 L 694 442 L 696 442 L 702 435 L 702 432 L 703 431 L 703 418 L 630 418 L 629 417 L 629 408 L 630 407 L 637 407 L 638 408 L 656 408 L 657 407 L 668 408 L 669 407 L 673 407 L 674 405 L 674 398 L 680 396 L 682 394 L 682 390 L 683 389 L 682 377 L 609 377 L 607 375 L 608 372 L 648 372 L 656 365 L 659 358 L 659 350 L 658 349 L 658 346 L 604 346 L 603 345 L 603 338 L 604 337 L 632 337 L 635 336 L 641 329 L 642 321 L 641 319 L 601 319 L 600 318 L 600 314 L 601 313 L 622 313 L 622 298 L 613 298 L 612 297 L 612 285 L 611 282 L 601 274 L 588 266 L 588 377 L 589 378 L 593 378 L 601 381 L 604 381 L 611 384 L 616 389 L 618 393 L 618 417 L 617 420 L 610 428 L 605 430 L 605 503 L 606 504 L 606 628 L 612 630 L 616 633 L 620 640 L 620 665 L 619 668 L 615 672 L 609 675 L 593 680 L 589 680 L 588 681 L 580 682 L 579 683 L 574 683 L 573 684 L 567 684 L 566 685 L 549 686 L 548 687 L 533 687 L 532 688 L 484 688 L 483 687 L 470 687 L 469 686 L 453 685 L 452 684 L 447 684 L 446 683 L 432 681 L 415 676 L 409 673 L 404 668 L 403 666 L 403 641 L 404 638 L 410 631 L 419 628 L 419 581 L 418 580 L 418 576 L 419 575 L 418 573 L 418 430 L 412 428 L 406 422 L 404 416 L 404 393 L 405 390 L 410 385 L 414 383 L 424 381 L 425 380 L 434 379 L 435 378 L 435 265 Z M 618 473 L 619 472 L 677 472 L 678 473 L 678 479 L 677 480 L 619 480 L 618 479 Z M 346 473 L 347 472 L 404 472 L 405 473 L 405 479 L 404 480 L 347 480 L 346 479 Z M 274 253 L 258 269 L 245 288 L 236 307 L 228 334 L 226 349 L 225 350 L 225 355 L 224 356 L 224 362 L 223 363 L 221 390 L 220 391 L 220 405 L 219 406 L 218 471 L 217 472 L 217 526 L 218 527 L 218 567 L 219 568 L 219 587 L 220 588 L 221 612 L 222 613 L 222 621 L 223 622 L 225 640 L 226 641 L 226 645 L 227 646 L 230 661 L 237 681 L 249 704 L 261 720 L 276 735 L 293 747 L 313 757 L 334 764 L 342 765 L 352 768 L 356 768 L 357 769 L 361 769 L 362 770 L 368 770 L 369 771 L 375 771 L 376 772 L 384 772 L 385 773 L 393 773 L 394 774 L 421 775 L 422 776 L 444 776 L 445 777 L 566 777 L 567 776 L 590 776 L 591 775 L 609 775 L 610 774 L 622 774 L 623 773 L 643 772 L 644 771 L 651 771 L 652 770 L 658 770 L 659 769 L 664 769 L 670 767 L 675 767 L 676 766 L 691 763 L 718 753 L 734 744 L 749 733 L 762 720 L 777 699 L 787 679 L 788 674 L 793 662 L 793 659 L 796 650 L 796 646 L 798 641 L 798 637 L 799 636 L 799 631 L 800 630 L 801 615 L 802 614 L 802 605 L 803 604 L 803 592 L 804 591 L 804 576 L 805 575 L 805 546 L 806 545 L 806 451 L 805 450 L 805 422 L 804 421 L 804 405 L 803 404 L 802 379 L 801 378 L 801 370 L 800 369 L 798 349 L 797 348 L 797 344 L 796 343 L 796 339 L 795 338 L 795 334 L 794 333 L 792 322 L 785 302 L 778 288 L 763 267 L 752 256 L 735 243 L 714 232 L 704 229 L 701 227 L 698 227 L 691 224 L 687 224 L 674 220 L 669 220 L 668 219 L 663 219 L 656 217 L 650 217 L 649 216 L 641 216 L 640 215 L 632 215 L 631 214 L 620 214 L 619 213 L 584 212 L 583 211 L 553 211 L 552 210 L 444 211 L 443 212 L 408 213 L 407 214 L 395 214 L 394 215 L 367 217 L 366 218 L 361 218 L 360 219 L 355 219 L 354 220 L 340 222 L 311 231 L 291 241 Z M 278 268 L 286 261 L 302 250 L 321 241 L 333 237 L 336 237 L 340 235 L 344 235 L 345 234 L 349 234 L 350 233 L 358 232 L 359 231 L 364 231 L 365 230 L 388 228 L 389 227 L 413 226 L 414 225 L 431 225 L 432 224 L 456 224 L 457 223 L 569 223 L 570 224 L 593 224 L 594 225 L 609 225 L 610 226 L 623 226 L 624 227 L 643 228 L 644 229 L 650 229 L 651 230 L 657 230 L 658 231 L 674 233 L 699 240 L 717 248 L 738 262 L 754 278 L 760 286 L 769 301 L 778 324 L 778 327 L 780 331 L 784 354 L 785 355 L 785 361 L 786 362 L 786 368 L 787 369 L 787 377 L 788 378 L 788 388 L 789 389 L 790 419 L 791 420 L 791 450 L 792 451 L 792 547 L 791 548 L 791 574 L 790 575 L 790 591 L 789 592 L 788 613 L 787 614 L 787 620 L 786 621 L 786 627 L 785 628 L 784 638 L 783 639 L 780 654 L 778 658 L 778 661 L 776 664 L 773 674 L 765 690 L 753 707 L 737 723 L 720 735 L 700 745 L 695 746 L 689 749 L 686 749 L 682 751 L 679 751 L 666 755 L 662 755 L 656 757 L 650 757 L 649 758 L 643 758 L 642 759 L 636 759 L 635 760 L 615 761 L 614 762 L 601 762 L 600 763 L 583 763 L 582 764 L 554 764 L 553 765 L 464 765 L 463 764 L 435 764 L 434 763 L 420 763 L 419 762 L 395 761 L 394 760 L 386 760 L 385 759 L 365 757 L 364 756 L 360 756 L 359 755 L 355 755 L 354 754 L 343 752 L 322 745 L 304 736 L 286 723 L 270 707 L 258 690 L 250 674 L 243 654 L 243 651 L 239 638 L 238 627 L 237 626 L 236 611 L 235 610 L 235 600 L 234 599 L 233 567 L 232 566 L 232 520 L 231 519 L 233 406 L 234 405 L 234 391 L 235 390 L 235 380 L 236 379 L 236 371 L 237 370 L 239 350 L 240 349 L 240 345 L 241 344 L 241 340 L 242 339 L 242 335 L 245 327 L 245 324 L 252 305 L 262 287 Z" fill="#102852" stroke="#102852" stroke-width="1" fill-rule="evenodd"/>
  <path d="M 651 667 L 652 667 L 653 669 L 671 669 L 671 667 L 659 667 L 658 669 L 656 669 L 655 667 Z M 316 667 L 317 669 L 335 669 L 335 667 L 325 667 L 324 669 L 320 669 L 319 667 Z M 386 662 L 383 662 L 386 663 L 386 666 L 385 667 L 363 667 L 362 669 L 360 669 L 359 667 L 339 667 L 341 667 L 342 669 L 386 669 Z M 307 640 L 374 640 L 375 639 L 373 638 L 372 640 L 368 640 L 367 638 L 360 638 L 359 640 L 354 640 L 353 638 L 350 638 L 349 640 L 345 640 L 344 638 L 343 640 L 338 640 L 337 638 L 329 638 L 328 640 L 320 640 L 319 638 L 312 638 L 311 640 L 309 640 L 308 639 L 308 633 L 308 639 Z M 607 642 L 605 640 L 598 638 L 594 638 L 593 637 L 593 606 L 593 637 L 592 638 L 598 641 L 598 644 L 597 645 L 585 646 L 578 648 L 572 648 L 571 645 L 569 645 L 568 643 L 567 643 L 567 644 L 564 646 L 562 646 L 561 644 L 559 644 L 558 646 L 552 647 L 551 645 L 549 645 L 548 647 L 545 647 L 544 648 L 541 648 L 540 646 L 537 646 L 536 648 L 524 648 L 523 649 L 489 648 L 488 646 L 484 646 L 483 648 L 480 648 L 479 647 L 476 647 L 475 645 L 473 645 L 472 647 L 470 647 L 469 646 L 466 646 L 465 644 L 457 645 L 456 643 L 454 644 L 451 644 L 450 642 L 445 643 L 444 641 L 440 642 L 439 640 L 438 641 L 434 641 L 431 637 L 430 638 L 425 638 L 416 642 L 416 660 L 415 661 L 416 664 L 422 667 L 425 667 L 438 671 L 456 673 L 457 674 L 464 674 L 465 675 L 492 676 L 493 677 L 543 676 L 544 675 L 553 675 L 554 674 L 562 674 L 563 673 L 581 671 L 582 670 L 599 667 L 606 664 L 607 662 Z M 433 653 L 436 650 L 465 652 L 466 653 L 482 653 L 483 654 L 541 654 L 542 653 L 558 653 L 559 652 L 564 652 L 565 653 L 565 656 L 563 658 L 556 659 L 555 660 L 542 661 L 541 662 L 530 662 L 529 663 L 478 663 L 477 662 L 465 662 L 464 661 L 455 661 L 454 660 L 443 659 L 434 656 Z M 568 620 L 566 619 L 567 615 L 565 614 L 564 610 L 546 594 L 528 584 L 518 581 L 513 581 L 473 607 L 460 614 L 459 617 L 457 618 L 458 619 L 458 625 L 456 626 L 456 629 L 458 629 L 459 631 L 463 630 L 464 632 L 470 631 L 471 633 L 473 633 L 474 631 L 481 632 L 482 634 L 484 634 L 485 632 L 496 633 L 497 635 L 504 635 L 505 633 L 515 633 L 516 635 L 525 635 L 526 633 L 532 633 L 533 632 L 537 632 L 538 634 L 540 634 L 541 632 L 544 632 L 545 631 L 548 631 L 549 633 L 551 633 L 552 631 L 558 632 L 559 630 L 564 631 L 564 630 L 567 628 Z M 540 602 L 541 606 L 539 610 L 530 618 L 522 622 L 509 626 L 505 626 L 504 627 L 497 627 L 496 626 L 497 623 L 504 621 L 522 611 L 535 599 L 537 599 Z M 510 563 L 508 565 L 508 570 L 509 572 L 512 573 L 516 572 L 517 570 L 516 564 Z M 509 545 L 508 547 L 508 552 L 510 554 L 515 554 L 517 552 L 517 547 L 513 544 Z M 671 520 L 672 520 L 673 522 L 704 522 L 705 523 L 705 530 L 704 531 L 699 531 L 698 529 L 694 529 L 693 531 L 687 531 L 686 529 L 685 531 L 681 531 L 680 529 L 679 531 L 674 531 L 673 529 L 673 531 L 705 531 L 705 522 L 704 522 L 703 520 Z M 658 520 L 658 533 L 656 534 L 656 535 L 658 536 L 658 540 L 656 541 L 656 543 L 658 544 L 658 548 L 656 549 L 656 551 L 658 552 L 658 563 L 656 564 L 656 567 L 658 568 L 658 572 L 656 573 L 656 575 L 658 576 L 658 580 L 656 581 L 656 583 L 658 584 L 658 595 L 656 596 L 656 599 L 658 600 L 658 606 L 656 607 L 656 615 L 658 616 L 658 620 L 656 621 L 656 622 L 658 623 L 658 631 Z M 316 520 L 317 521 L 317 529 L 318 531 L 352 531 L 343 531 L 342 529 L 341 531 L 337 531 L 336 529 L 335 531 L 329 531 L 328 529 L 327 529 L 326 531 L 324 531 L 323 529 L 319 529 L 317 527 L 317 523 L 318 522 L 353 522 L 354 523 L 354 530 L 354 521 L 353 520 Z M 649 519 L 649 638 L 650 640 L 716 640 L 716 634 L 715 634 L 715 639 L 714 640 L 656 640 L 655 638 L 650 638 L 649 637 L 649 632 L 651 631 L 651 629 L 649 628 L 649 624 L 651 623 L 651 621 L 649 620 L 649 616 L 651 615 L 651 583 L 649 582 L 649 580 L 651 579 L 651 551 L 649 550 L 649 548 L 651 547 L 651 527 L 649 526 L 649 522 L 651 521 L 650 521 Z M 366 519 L 366 631 L 366 552 L 368 551 L 366 550 L 366 546 L 368 545 L 366 544 L 366 542 L 368 541 L 368 521 L 367 521 Z M 563 451 L 562 452 L 535 453 L 534 454 L 521 456 L 510 460 L 526 467 L 529 467 L 534 469 L 539 469 L 540 468 L 543 469 L 543 471 L 536 476 L 533 476 L 532 477 L 526 476 L 502 464 L 499 464 L 494 462 L 476 461 L 478 467 L 485 479 L 505 502 L 510 514 L 512 530 L 514 530 L 515 517 L 520 506 L 530 496 L 533 497 L 533 494 L 536 493 L 536 490 L 540 486 L 542 486 L 542 483 L 544 481 L 546 481 L 546 478 L 549 477 L 549 475 L 551 474 L 552 471 L 554 470 L 555 464 L 558 458 L 561 456 Z M 630 408 L 631 408 L 632 410 L 663 410 L 665 416 L 665 410 L 664 408 L 651 408 L 650 410 L 645 410 L 644 408 L 643 408 L 642 410 L 638 410 L 637 408 Z M 357 415 L 357 411 L 358 410 L 391 410 L 391 409 L 393 408 L 384 408 L 383 410 L 380 410 L 379 408 L 378 410 L 376 410 L 375 408 L 367 408 L 366 410 L 364 410 L 363 408 L 360 408 L 359 410 L 357 410 Z M 417 396 L 417 414 L 420 418 L 425 420 L 430 420 L 433 416 L 436 417 L 437 416 L 443 415 L 444 413 L 447 413 L 448 414 L 449 412 L 454 413 L 455 411 L 461 412 L 462 410 L 469 411 L 470 409 L 473 409 L 474 408 L 476 408 L 477 410 L 479 410 L 480 408 L 484 408 L 485 407 L 488 407 L 489 409 L 494 409 L 495 407 L 531 407 L 532 409 L 536 409 L 537 407 L 540 407 L 541 408 L 545 408 L 546 410 L 554 409 L 555 411 L 557 410 L 562 410 L 563 412 L 569 411 L 570 413 L 571 412 L 574 412 L 575 414 L 579 413 L 580 415 L 583 415 L 588 417 L 591 416 L 593 418 L 593 420 L 598 420 L 603 418 L 605 416 L 605 395 L 604 394 L 591 390 L 581 389 L 580 388 L 570 387 L 569 386 L 563 386 L 562 385 L 541 384 L 540 383 L 485 383 L 484 384 L 473 384 L 472 385 L 463 385 L 462 386 L 444 388 L 443 389 L 439 389 L 438 390 L 421 393 Z M 434 407 L 434 404 L 436 402 L 442 400 L 452 399 L 453 398 L 459 398 L 460 397 L 467 397 L 468 396 L 491 395 L 492 394 L 533 394 L 534 395 L 547 395 L 548 396 L 561 397 L 566 400 L 566 404 L 564 406 L 553 406 L 552 405 L 541 405 L 540 404 L 491 404 L 490 405 L 479 405 L 478 406 L 462 407 L 461 408 L 455 408 L 454 409 L 443 410 L 442 411 L 438 411 Z M 289 273 L 276 287 L 264 306 L 264 308 L 261 313 L 255 330 L 253 342 L 251 347 L 250 358 L 249 359 L 247 383 L 246 384 L 246 395 L 245 396 L 244 435 L 243 436 L 243 560 L 244 561 L 244 581 L 245 582 L 246 607 L 247 608 L 249 629 L 250 630 L 250 634 L 251 635 L 251 639 L 252 640 L 254 651 L 260 668 L 269 686 L 280 701 L 294 715 L 311 727 L 335 738 L 338 738 L 348 742 L 356 743 L 361 745 L 377 747 L 378 748 L 384 748 L 385 749 L 404 750 L 405 751 L 418 751 L 419 752 L 434 752 L 435 753 L 455 753 L 456 754 L 569 754 L 570 753 L 589 753 L 590 752 L 604 752 L 605 751 L 616 751 L 617 750 L 634 749 L 635 748 L 654 746 L 655 745 L 659 745 L 660 744 L 664 744 L 665 743 L 669 743 L 677 740 L 680 740 L 697 734 L 702 731 L 704 731 L 718 723 L 731 713 L 743 701 L 754 686 L 765 663 L 771 643 L 771 639 L 772 638 L 772 634 L 774 628 L 774 623 L 775 622 L 775 616 L 776 615 L 777 598 L 778 597 L 778 586 L 779 585 L 780 530 L 781 529 L 780 428 L 779 427 L 779 409 L 778 408 L 778 394 L 777 393 L 777 383 L 776 382 L 775 365 L 774 364 L 774 358 L 773 357 L 773 353 L 772 352 L 772 348 L 771 347 L 771 343 L 770 342 L 770 338 L 767 330 L 767 327 L 764 318 L 761 313 L 761 311 L 753 296 L 745 285 L 730 270 L 717 261 L 706 255 L 684 247 L 681 247 L 677 245 L 673 245 L 668 243 L 664 243 L 663 242 L 657 242 L 656 241 L 650 241 L 649 240 L 643 240 L 642 239 L 634 239 L 633 238 L 609 237 L 608 236 L 568 235 L 567 234 L 501 233 L 500 234 L 456 234 L 455 235 L 415 236 L 414 237 L 391 238 L 390 239 L 382 239 L 381 240 L 361 242 L 360 243 L 356 243 L 355 244 L 351 244 L 350 245 L 339 247 L 327 251 L 324 253 L 319 254 L 299 265 Z M 293 282 L 311 268 L 325 261 L 339 256 L 342 256 L 346 254 L 350 254 L 355 252 L 377 249 L 378 248 L 396 247 L 397 246 L 408 246 L 409 245 L 445 244 L 446 243 L 475 243 L 476 242 L 554 242 L 555 243 L 603 244 L 604 245 L 617 245 L 618 246 L 629 246 L 630 247 L 646 248 L 647 249 L 653 249 L 659 251 L 674 253 L 678 255 L 681 255 L 693 259 L 708 266 L 724 277 L 741 295 L 747 304 L 757 326 L 761 340 L 761 344 L 762 345 L 763 354 L 764 355 L 764 360 L 765 361 L 765 368 L 766 369 L 766 376 L 767 377 L 767 387 L 768 388 L 768 398 L 769 399 L 769 413 L 770 414 L 770 439 L 771 440 L 771 559 L 770 560 L 770 579 L 769 580 L 768 603 L 767 604 L 767 612 L 766 613 L 764 631 L 763 632 L 763 636 L 759 648 L 759 651 L 755 662 L 748 675 L 748 677 L 746 678 L 745 682 L 743 683 L 743 685 L 741 686 L 741 689 L 738 690 L 737 693 L 735 694 L 723 707 L 708 718 L 692 726 L 672 733 L 664 734 L 654 737 L 643 738 L 642 739 L 628 740 L 627 741 L 607 742 L 606 743 L 594 743 L 593 744 L 571 744 L 570 745 L 530 745 L 529 746 L 454 745 L 453 744 L 432 744 L 431 743 L 402 742 L 401 741 L 378 739 L 377 738 L 361 736 L 337 729 L 318 720 L 299 706 L 286 692 L 283 691 L 283 688 L 281 687 L 281 685 L 279 684 L 279 682 L 276 681 L 276 677 L 273 675 L 273 672 L 274 671 L 281 671 L 273 671 L 271 669 L 263 648 L 261 636 L 259 631 L 259 626 L 257 619 L 257 612 L 256 611 L 256 603 L 255 602 L 254 571 L 253 570 L 253 537 L 252 536 L 253 425 L 254 424 L 254 404 L 255 403 L 256 377 L 257 376 L 257 368 L 258 367 L 259 354 L 260 353 L 263 335 L 270 315 L 280 297 Z" fill="#b5892a" stroke="#b5892a" stroke-width="1" fill-rule="evenodd"/>
  <path d="M 639 662 L 639 669 L 652 669 L 653 668 L 666 668 L 667 669 L 669 668 L 672 669 L 687 669 L 688 668 L 695 668 L 696 669 L 737 669 L 738 668 L 737 667 L 737 664 L 738 663 L 712 663 L 711 662 L 709 663 L 686 663 L 685 662 L 684 663 L 679 663 L 678 662 L 675 663 L 671 663 L 670 662 L 667 663 L 647 663 L 646 662 Z M 286 663 L 288 664 L 288 668 L 289 669 L 316 669 L 317 668 L 332 668 L 333 669 L 341 669 L 342 668 L 345 668 L 346 669 L 349 669 L 350 668 L 384 668 L 385 669 L 386 668 L 386 663 L 385 662 L 380 662 L 379 663 L 375 663 L 374 662 L 372 663 L 367 663 L 366 662 L 363 663 L 350 663 L 349 662 L 346 662 L 345 663 L 342 662 L 340 663 L 335 663 L 334 662 L 331 663 Z M 429 637 L 430 639 L 447 642 L 448 643 L 453 643 L 454 644 L 469 645 L 470 646 L 479 646 L 480 647 L 500 647 L 501 648 L 544 647 L 545 646 L 555 646 L 556 645 L 564 645 L 565 644 L 567 644 L 568 647 L 578 647 L 579 646 L 591 645 L 598 643 L 597 641 L 593 639 L 590 639 L 585 641 L 569 643 L 568 644 L 552 645 L 551 646 L 541 646 L 540 647 L 484 647 L 483 646 L 473 646 L 472 645 L 463 645 L 462 644 L 455 644 L 454 643 L 443 642 L 435 639 L 431 639 L 430 637 Z M 568 623 L 566 616 L 566 610 L 565 612 L 566 613 L 567 623 L 568 624 L 568 628 L 566 630 L 555 631 L 554 632 L 545 632 L 544 633 L 533 633 L 532 634 L 489 634 L 488 633 L 477 633 L 476 632 L 467 632 L 457 629 L 458 613 L 457 630 L 465 631 L 466 632 L 473 632 L 474 633 L 484 633 L 485 634 L 504 634 L 505 635 L 537 634 L 538 633 L 548 633 L 549 632 L 556 632 L 557 631 L 568 630 Z M 678 609 L 678 612 L 707 612 L 708 611 L 707 609 Z M 314 608 L 314 611 L 316 612 L 345 612 L 345 609 L 315 609 Z M 691 548 L 691 554 L 706 554 L 706 548 Z M 317 548 L 317 554 L 333 554 L 333 548 Z M 671 521 L 671 531 L 673 530 L 705 530 L 706 529 L 706 521 Z M 317 521 L 318 522 L 317 533 L 318 530 L 352 530 L 353 531 L 353 521 Z M 650 519 L 649 520 L 650 521 L 650 638 L 649 639 L 716 639 L 714 636 L 714 634 L 716 633 L 716 632 L 658 632 L 657 631 L 657 519 Z M 374 519 L 367 519 L 367 631 L 366 632 L 308 632 L 309 633 L 309 638 L 308 639 L 374 639 Z M 619 497 L 619 503 L 716 503 L 715 502 L 716 497 Z M 307 497 L 308 498 L 308 502 L 307 503 L 404 503 L 404 497 Z M 619 473 L 619 479 L 677 479 L 677 473 Z M 347 473 L 347 479 L 404 479 L 404 473 Z M 619 453 L 619 458 L 689 458 L 688 456 L 689 452 L 620 452 Z M 562 452 L 554 469 L 536 492 L 541 487 L 553 471 L 560 458 Z M 335 452 L 336 454 L 336 457 L 335 458 L 404 458 L 404 453 L 403 452 Z M 630 409 L 630 417 L 665 417 L 663 415 L 663 410 L 665 409 Z M 357 409 L 358 410 L 358 415 L 357 417 L 393 417 L 393 409 Z M 431 418 L 433 418 L 439 415 L 452 413 L 453 412 L 459 412 L 460 411 L 466 411 L 467 410 L 476 410 L 477 409 L 488 409 L 489 408 L 536 408 L 537 409 L 548 409 L 549 410 L 556 410 L 557 411 L 564 411 L 565 412 L 576 413 L 593 418 L 572 412 L 551 410 L 550 409 L 541 409 L 540 408 L 485 408 L 484 409 L 465 410 L 458 412 L 455 412 L 454 411 L 454 408 L 454 411 L 453 412 L 450 412 L 449 409 L 446 414 L 442 414 Z M 608 373 L 609 376 L 646 376 L 646 373 L 614 373 L 613 374 Z M 377 373 L 379 376 L 413 376 L 413 373 L 411 374 L 407 374 L 406 373 Z" fill="#e4c646" stroke="#e4c646" stroke-width="1" fill-rule="evenodd"/>
</svg>