<svg xmlns="http://www.w3.org/2000/svg" width="512" height="512" viewBox="0 0 512 512" role="img" aria-label="Pin hidden gem Nusantara">
  <defs>
    <linearGradient id="pinBody" x1="0.18" y1="0.04" x2="0.82" y2="0.96">
      <stop offset="0" stop-color="#FFE07A"/>
      <stop offset="0.38" stop-color="#F4B12E"/>
      <stop offset="0.72" stop-color="#D08A18"/>
      <stop offset="1" stop-color="#9A6310"/>
    </linearGradient>
    <linearGradient id="pinRim" x1="0" y1="0" x2="0" y2="1">
      <stop offset="0" stop-color="#FFF1C2"/>
      <stop offset="1" stop-color="#92600F"/>
    </linearGradient>
    <radialGradient id="navy" cx="0.42" cy="0.36" r="0.85">
      <stop offset="0" stop-color="#21285C"/>
      <stop offset="0.6" stop-color="#161A47"/>
      <stop offset="1" stop-color="#0C0E2E"/>
    </radialGradient>
    <linearGradient id="ring" x1="0" y1="0" x2="0" y2="1">
      <stop offset="0" stop-color="#FFF4D0"/>
      <stop offset="1" stop-color="#C9962F"/>
    </linearGradient>
    <linearGradient id="gold" x1="0.2" y1="0" x2="0.8" y2="1">
      <stop offset="0" stop-color="#FFF0BE"/>
      <stop offset="0.42" stop-color="#FFD25C"/>
      <stop offset="0.8" stop-color="#F3AE33"/>
      <stop offset="1" stop-color="#D2871C"/>
    </linearGradient>
    <linearGradient id="gloss" x1="0" y1="0" x2="0" y2="1">
      <stop offset="0" stop-color="#FFFFFF" stop-opacity="0.6"/>
      <stop offset="1" stop-color="#FFFFFF" stop-opacity="0"/>
    </linearGradient>
    <filter id="shadow" x="-40%" y="-25%" width="180%" height="160%">
      <feDropShadow dx="0" dy="10" stdDeviation="12" flood-color="#5C3A08" flood-opacity="0.4"/>
    </filter>
    <clipPath id="medali"><circle cx="256" cy="200" r="122"/></clipPath>
  </defs>

  <g filter="url(#shadow)">
    <path fill="url(#pinRim)" d="M256 492 C198 360 92 300 92 200 A164 164 0 1 1 420 200 C420 300 314 360 256 492 Z"/>
    <path fill="url(#pinBody)" d="M256 484 C200 358 100 300 100 200 A156 156 0 1 1 412 200 C412 300 312 358 256 484 Z"/>
  </g>
  <path fill="url(#gloss)" d="M168 96 C210 64 302 64 344 96 C300 84 212 84 168 96 Z" opacity="0.85"/>
  <ellipse cx="206" cy="150" rx="40" ry="86" fill="#FFFFFF" opacity="0.12" transform="rotate(-26 206 150)"/>

  <circle cx="256" cy="200" r="122" fill="url(#navy)"/>
  <g clip-path="url(#medali)">
    <g transform="translate(15.5714 61.6293) scale(0.76448)" fill="url(#gold)" fill-rule="evenodd" stroke="#B5791B" stroke-width="0.5">
      <path d="M 341 247 L 339 255 L 335 259 L 327 261 L 327 263 L 336 266 L 340 272 L 341 277 L 343 277 L 346 269 L 349 266 L 356 264 L 357 261 L 348 258 L 346 256 L 344 248 Z M 404 185 L 402 192 L 394 196 L 394 198 L 400 200 L 403 204 L 404 209 L 406 209 L 408 203 L 411 200 L 416 199 L 417 196 L 412 195 L 408 191 L 406 185 Z M 304 109 L 295 136 L 292 139 L 266 148 L 266 150 L 291 159 L 295 163 L 303 188 L 306 189 L 315 162 L 318 159 L 344 150 L 344 148 L 317 139 L 314 135 L 306 110 Z M 305 87 L 296 87 L 284 90 L 271 97 L 259 108 L 254 115 L 247 131 L 245 141 L 245 151 L 247 153 L 251 151 L 252 137 L 256 125 L 266 110 L 275 102 L 284 97 L 293 94 L 305 93 L 306 92 Z M 248 80 L 240 88 L 230 102 L 222 120 L 218 139 L 218 159 L 222 178 L 229 194 L 242 212 L 256 224 L 270 232 L 285 237 L 299 239 L 316 238 L 329 235 L 346 227 L 355 220 L 357 220 L 367 230 L 367 240 L 371 246 L 418 297 L 427 303 L 434 303 L 438 301 L 444 293 L 444 285 L 439 277 L 387 222 L 376 221 L 367 211 L 367 208 L 375 198 L 382 184 L 388 161 L 388 137 L 386 126 L 382 114 L 375 100 L 367 89 L 357 79 L 344 70 L 325 62 L 307 59 L 290 60 L 275 64 L 262 70 Z M 300 76 L 314 77 L 328 81 L 347 93 L 357 104 L 364 115 L 369 128 L 372 145 L 371 162 L 367 176 L 363 185 L 354 198 L 346 206 L 336 213 L 323 219 L 307 222 L 287 220 L 276 216 L 263 208 L 250 195 L 240 178 L 235 160 L 235 139 L 240 120 L 250 103 L 263 90 L 272 84 L 287 78 Z M 205 59 L 201 72 L 198 75 L 185 79 L 185 81 L 198 85 L 202 90 L 205 101 L 207 101 L 212 87 L 214 85 L 227 81 L 227 79 L 215 75 L 211 71 L 207 59 Z"/>
    </g>
  </g>
  <circle cx="256" cy="200" r="118" fill="none" stroke="url(#ring)" stroke-width="5"/>
  <circle cx="256" cy="200" r="109" fill="none" stroke="#FFD879" stroke-width="1.4" opacity="0.5"/>
</svg>
