<svg xmlns="http://www.w3.org/2000/svg" width="512" height="512" viewBox="0 0 512 512" role="img" aria-label="Pin budaya Nusantara">
  <defs>
    <linearGradient id="pinBody" x1="0.18" y1="0.04" x2="0.82" y2="0.96">
      <stop offset="0" stop-color="#FF3DBD"/>
      <stop offset="0.38" stop-color="#E01C9B"/>
      <stop offset="0.72" stop-color="#9C1C8E"/>
      <stop offset="1" stop-color="#5B1668"/>
    </linearGradient>
    <linearGradient id="pinRim" x1="0" y1="0" x2="0" y2="1">
      <stop offset="0" stop-color="#FF7AD9"/>
      <stop offset="1" stop-color="#6B1A78"/>
    </linearGradient>
    <radialGradient id="navy" cx="0.42" cy="0.36" r="0.85">
      <stop offset="0" stop-color="#21285C"/>
      <stop offset="0.6" stop-color="#161A47"/>
      <stop offset="1" stop-color="#0C0E2E"/>
    </radialGradient>
    <linearGradient id="ring" x1="0" y1="0" x2="0" y2="1">
      <stop offset="0" stop-color="#FFE9A8"/>
      <stop offset="1" stop-color="#C9962F"/>
    </linearGradient>
    <linearGradient id="gold" x1="0.2" y1="0" x2="0.8" y2="1">
      <stop offset="0" stop-color="#FFE7A6"/>
      <stop offset="0.42" stop-color="#FFC94D"/>
      <stop offset="0.8" stop-color="#F0A52B"/>
      <stop offset="1" stop-color="#C97E1A"/>
    </linearGradient>
    <linearGradient id="gloss" x1="0" y1="0" x2="0" y2="1">
      <stop offset="0" stop-color="#FFFFFF" stop-opacity="0.55"/>
      <stop offset="1" stop-color="#FFFFFF" stop-opacity="0"/>
    </linearGradient>
    <filter id="shadow" x="-40%" y="-25%" width="180%" height="160%">
      <feDropShadow dx="0" dy="10" stdDeviation="12" flood-color="#3B0B43" flood-opacity="0.35"/>
    </filter>
    <clipPath id="medali"><circle cx="256" cy="200" r="122.0"/></clipPath>
  </defs>

  <g filter="url(#shadow)">
    <path fill="url(#pinRim)" d="M256 492 C198 360 92 300 92 200 A164 164 0 1 1 420 200 C420 300 314 360 256 492 Z"/>
    <path fill="url(#pinBody)" d="M256 484 C200 358 100 300 100 200 A156 156 0 1 1 412 200 C412 300 312 358 256 484 Z"/>
  </g>
  <path fill="url(#gloss)" d="M168 96 C210 64 302 64 344 96 C300 84 212 84 168 96 Z" opacity="0.8"/>
  <ellipse cx="206" cy="150" rx="40" ry="86" fill="#FFFFFF" opacity="0.10" transform="rotate(-26 206 150)"/>

  <circle cx="256" cy="200" r="122.0" fill="url(#navy)"/>
  <g clip-path="url(#medali)">
    <g transform="translate(109.2768 56.5880) scale(0.45923)" fill="url(#gold)" fill-rule="evenodd" stroke="#B5791B" stroke-width="0.6">
      <path d="M 487 440 L 481 441 L 477 443 L 472 450 L 472 459 L 476 464 L 483 466 L 486 465 L 489 461 L 492 462 L 491 467 L 485 473 L 480 475 L 472 474 L 465 470 L 457 459 L 455 449 L 452 450 L 449 457 L 449 464 L 451 470 L 455 477 L 465 486 L 473 489 L 487 489 L 496 485 L 501 480 L 506 468 L 506 458 L 502 449 L 496 443 Z M 145 442 L 138 448 L 133 459 L 134 472 L 139 481 L 145 486 L 153 489 L 167 489 L 179 483 L 187 473 L 191 462 L 191 459 L 186 449 L 184 450 L 184 454 L 180 464 L 172 472 L 164 475 L 159 475 L 153 472 L 149 468 L 147 461 L 150 460 L 154 465 L 162 465 L 167 460 L 168 457 L 167 449 L 162 443 L 158 441 L 152 440 Z M 372 369 L 374 378 L 379 383 L 382 384 L 393 383 L 398 378 L 400 373 L 399 367 L 393 364 L 384 364 Z M 240 367 L 240 375 L 242 379 L 249 384 L 258 384 L 262 382 L 265 379 L 267 374 L 267 369 L 260 365 L 246 364 Z M 499 352 L 497 352 L 489 360 L 478 368 L 474 399 L 478 398 L 490 384 L 496 369 Z M 140 352 L 143 368 L 150 385 L 157 394 L 165 398 L 161 368 L 142 352 Z M 119 290 L 117 299 L 116 331 L 119 361 L 126 390 L 130 399 L 137 409 L 147 419 L 161 428 L 170 437 L 175 448 L 177 448 L 176 432 L 171 415 L 166 409 L 159 405 L 146 392 L 139 379 L 135 364 L 132 334 L 135 333 L 150 350 L 158 356 L 161 356 L 158 335 L 155 330 L 132 307 L 121 290 Z M 520 289 L 518 290 L 508 306 L 481 334 L 479 356 L 483 355 L 488 351 L 505 333 L 508 334 L 506 353 L 502 374 L 496 388 L 484 402 L 469 413 L 463 433 L 462 441 L 463 447 L 465 446 L 470 436 L 476 430 L 491 420 L 504 407 L 513 391 L 520 363 L 523 334 L 523 314 Z M 242 287 L 239 289 L 230 302 L 221 311 L 210 319 L 190 330 L 184 336 L 181 342 L 178 352 L 178 376 L 183 407 L 189 428 L 195 444 L 214 479 L 232 502 L 250 519 L 279 539 L 305 551 L 316 554 L 325 554 L 337 550 L 364 537 L 392 517 L 416 492 L 433 467 L 447 438 L 458 400 L 461 380 L 461 350 L 459 343 L 454 334 L 449 329 L 427 317 L 414 307 L 398 287 L 393 288 L 378 297 L 365 302 L 354 302 L 343 298 L 330 288 L 321 277 L 319 277 L 300 296 L 285 302 L 275 302 L 265 299 L 254 292 Z M 287 496 L 290 495 L 297 500 L 313 504 L 333 503 L 340 501 L 350 495 L 352 496 L 352 498 L 346 505 L 338 510 L 328 513 L 312 513 L 304 511 L 295 506 L 289 500 Z M 263 473 L 265 471 L 269 471 L 275 476 L 286 476 L 300 471 L 309 471 L 318 476 L 322 476 L 330 471 L 339 471 L 353 476 L 365 476 L 369 472 L 374 471 L 376 473 L 376 477 L 372 481 L 363 484 L 352 486 L 335 486 L 318 490 L 305 486 L 289 486 L 268 481 L 264 477 Z M 284 435 L 286 430 L 290 428 L 291 429 L 290 437 L 294 443 L 299 440 L 303 440 L 315 448 L 322 449 L 337 440 L 341 440 L 345 443 L 349 439 L 349 429 L 351 428 L 355 434 L 355 442 L 349 449 L 345 451 L 334 451 L 326 456 L 316 457 L 306 451 L 295 451 L 289 448 L 285 443 Z M 348 386 L 348 383 L 352 376 L 363 364 L 380 355 L 385 354 L 399 355 L 424 365 L 439 367 L 439 369 L 424 381 L 413 387 L 404 390 L 380 391 L 361 387 L 349 387 Z M 201 367 L 216 365 L 241 355 L 254 354 L 265 357 L 274 362 L 286 374 L 292 385 L 290 387 L 278 387 L 260 391 L 241 391 L 229 388 L 219 383 L 205 373 L 201 369 Z M 346 342 L 358 330 L 373 321 L 388 317 L 399 317 L 413 321 L 425 328 L 445 347 L 445 349 L 443 350 L 428 339 L 413 331 L 400 327 L 380 328 L 367 333 L 349 344 L 347 344 Z M 195 349 L 198 343 L 215 328 L 229 320 L 241 317 L 252 317 L 266 321 L 277 327 L 294 342 L 293 344 L 291 344 L 282 338 L 260 328 L 240 327 L 229 330 L 215 337 L 197 350 Z M 169 302 L 171 304 L 180 294 L 183 294 L 185 296 L 184 302 L 176 312 L 171 322 L 170 335 L 172 335 L 182 318 L 200 299 L 215 288 L 232 279 L 257 271 L 285 266 L 307 265 L 308 264 L 346 265 L 384 271 L 403 277 L 422 286 L 434 294 L 450 309 L 461 323 L 467 334 L 470 335 L 470 329 L 467 318 L 461 307 L 454 298 L 455 295 L 459 293 L 464 297 L 468 303 L 470 303 L 469 294 L 461 278 L 450 267 L 435 257 L 416 248 L 389 240 L 355 235 L 344 235 L 343 234 L 287 235 L 258 239 L 228 247 L 202 259 L 190 267 L 175 283 L 170 295 Z M 199 277 L 202 280 L 202 283 L 196 289 L 191 291 L 187 287 L 188 283 L 195 277 Z M 441 276 L 446 277 L 453 284 L 453 287 L 450 290 L 446 290 L 438 283 L 438 279 Z M 223 263 L 225 265 L 225 270 L 222 273 L 218 275 L 213 275 L 210 272 L 211 268 L 214 265 L 218 263 Z M 417 262 L 425 265 L 428 268 L 428 272 L 425 275 L 419 274 L 414 270 L 413 266 Z M 387 256 L 390 253 L 395 253 L 402 258 L 402 262 L 399 265 L 393 264 L 387 260 Z M 253 257 L 252 261 L 245 265 L 240 265 L 237 262 L 237 259 L 243 254 L 249 253 Z M 265 252 L 270 248 L 278 248 L 281 251 L 281 254 L 278 257 L 269 259 L 265 255 Z M 358 250 L 361 247 L 369 247 L 374 251 L 374 255 L 370 258 L 363 257 L 358 253 Z M 329 249 L 333 244 L 341 244 L 345 248 L 345 251 L 339 255 L 333 254 Z M 295 252 L 295 248 L 298 245 L 306 244 L 311 248 L 311 250 L 307 254 L 304 255 L 298 255 Z M 510 211 L 507 213 L 496 230 L 475 252 L 467 264 L 467 269 L 470 274 L 473 276 L 480 267 L 484 257 L 487 258 L 488 260 L 487 268 L 485 273 L 477 284 L 478 289 L 481 289 L 485 287 L 497 274 L 501 264 L 502 244 L 505 243 L 507 245 L 508 266 L 506 273 L 499 285 L 480 302 L 479 305 L 479 320 L 480 321 L 502 299 L 512 285 L 518 272 L 520 262 L 519 238 L 516 225 Z M 445 211 L 442 230 L 436 244 L 436 247 L 439 250 L 444 251 L 448 247 L 452 239 L 455 238 L 456 245 L 452 254 L 452 257 L 456 260 L 460 260 L 470 244 L 471 231 L 468 224 L 461 217 L 453 213 Z M 194 211 L 178 218 L 173 223 L 169 232 L 170 245 L 176 256 L 181 261 L 183 261 L 188 257 L 188 254 L 183 245 L 184 238 L 187 239 L 195 251 L 200 251 L 204 248 L 204 243 L 201 239 L 198 230 L 196 214 Z M 129 211 L 125 219 L 120 239 L 119 260 L 121 271 L 126 283 L 137 299 L 155 319 L 160 321 L 159 302 L 139 284 L 132 271 L 131 252 L 134 243 L 137 244 L 138 263 L 142 274 L 157 289 L 160 290 L 162 288 L 162 284 L 153 270 L 151 258 L 153 256 L 156 258 L 160 268 L 167 277 L 169 276 L 172 270 L 172 266 L 165 253 L 141 227 L 131 211 Z M 318 197 L 311 209 L 310 219 L 313 224 L 321 226 L 327 223 L 328 212 L 323 201 L 320 197 Z M 396 194 L 391 190 L 384 188 L 373 188 L 367 191 L 356 202 L 341 223 L 341 225 L 372 229 L 384 210 L 394 199 Z M 243 194 L 243 196 L 253 207 L 262 220 L 264 225 L 268 229 L 287 226 L 296 226 L 299 224 L 282 199 L 274 191 L 267 188 L 255 188 Z M 424 183 L 415 188 L 403 199 L 383 228 L 384 231 L 388 231 L 396 234 L 402 234 L 406 229 L 413 212 L 416 211 L 417 221 L 411 237 L 423 243 L 427 241 L 432 232 L 434 224 L 434 207 L 430 193 Z M 215 183 L 209 194 L 205 209 L 206 226 L 213 241 L 215 243 L 218 243 L 230 237 L 223 224 L 222 220 L 223 210 L 226 211 L 234 229 L 238 234 L 242 235 L 255 232 L 257 230 L 256 227 L 239 202 L 227 190 L 217 183 Z M 319 162 L 308 174 L 300 187 L 297 197 L 298 208 L 302 210 L 307 198 L 316 185 L 319 183 L 329 195 L 336 211 L 339 212 L 342 208 L 342 201 L 338 187 L 327 169 Z M 358 152 L 355 153 L 352 160 L 342 174 L 342 177 L 349 195 L 353 193 L 355 189 L 363 181 L 365 176 L 365 164 Z M 281 152 L 274 163 L 273 171 L 274 176 L 278 183 L 289 194 L 298 174 L 284 153 Z M 319 88 L 296 132 L 293 142 L 293 151 L 296 158 L 300 164 L 303 166 L 314 155 L 317 149 L 320 147 L 335 166 L 338 166 L 341 163 L 346 153 L 347 148 L 346 140 L 338 121 L 327 103 L 321 89 Z"/>
    </g>
  </g>
  <circle cx="256" cy="200" r="118.0" fill="none" stroke="url(#ring)" stroke-width="5"/>
  <circle cx="256" cy="200" r="109.0" fill="none" stroke="#FFD879" stroke-width="1.4" opacity="0.5"/>
</svg>
