<svg xmlns="http://www.w3.org/2000/svg" width="512" height="512" viewBox="0 0 512 512" role="img" aria-label="Pin rempah Nusantara">
  <defs>
    <linearGradient id="pinBody" x1="0.18" y1="0.04" x2="0.82" y2="0.96">
      <stop offset="0" stop-color="#E8A24A"/>
      <stop offset="0.38" stop-color="#C56A22"/>
      <stop offset="0.72" stop-color="#8E3F12"/>
      <stop offset="1" stop-color="#5A2408"/>
    </linearGradient>
    <linearGradient id="pinRim" x1="0" y1="0" x2="0" y2="1">
      <stop offset="0" stop-color="#F6CC8E"/>
      <stop offset="1" stop-color="#6E3008"/>
    </linearGradient>
    <radialGradient id="navy" cx="0.42" cy="0.36" r="0.85">
      <stop offset="0" stop-color="#21285C"/>
      <stop offset="0.6" stop-color="#161A47"/>
      <stop offset="1" stop-color="#0C0E2E"/>
    </radialGradient>
    <linearGradient id="ring" x1="0" y1="0" x2="0" y2="1">
      <stop offset="0" stop-color="#FFF4D0"/>
      <stop offset="1" stop-color="#C9962F"/>
    </linearGradient>
    <linearGradient id="gold" x1="0.2" y1="0" x2="0.8" y2="1">
      <stop offset="0" stop-color="#FFF0BE"/>
      <stop offset="0.42" stop-color="#FFD25C"/>
      <stop offset="0.8" stop-color="#F3AE33"/>
      <stop offset="1" stop-color="#D2871C"/>
    </linearGradient>
    <linearGradient id="gloss" x1="0" y1="0" x2="0" y2="1">
      <stop offset="0" stop-color="#FFFFFF" stop-opacity="0.6"/>
      <stop offset="1" stop-color="#FFFFFF" stop-opacity="0"/>
    </linearGradient>
    <filter id="shadow" x="-40%" y="-25%" width="180%" height="160%">
      <feDropShadow dx="0" dy="10" stdDeviation="12" flood-color="#3A1604" flood-opacity="0.4"/>
    </filter>
    <clipPath id="medali"><circle cx="256" cy="200" r="122"/></clipPath>
  </defs>

  <g filter="url(#shadow)">
    <path fill="url(#pinRim)" d="M256 492 C198 360 92 300 92 200 A164 164 0 1 1 420 200 C420 300 314 360 256 492 Z"/>
    <path fill="url(#pinBody)" d="M256 484 C200 358 100 300 100 200 A156 156 0 1 1 412 200 C412 300 312 358 256 484 Z"/>
  </g>
  <path fill="url(#gloss)" d="M168 96 C210 64 302 64 344 96 C300 84 212 84 168 96 Z" opacity="0.85"/>
  <ellipse cx="206" cy="150" rx="40" ry="86" fill="#FFFFFF" opacity="0.12" transform="rotate(-26 206 150)"/>

  <circle cx="256" cy="200" r="122" fill="url(#navy)"/>
  <g clip-path="url(#medali)">
    <g transform="translate(60.2945 93.2515) scale(0.61350)" fill="url(#gold)" fill-rule="evenodd" stroke="#B5791B" stroke-width="0.5">
      <path d="M 333 286 L 331 292 L 336 294 L 337 296 L 334 297 L 331 295 L 328 295 L 326 299 L 327 302 L 330 305 L 335 307 L 339 307 L 341 305 L 348 303 L 347 294 L 345 290 L 339 286 Z M 331 301 L 334 300 L 335 302 L 332 303 Z M 222 278 L 215 284 L 214 293 L 216 297 L 221 301 L 224 302 L 231 301 L 237 295 L 236 283 L 229 278 Z M 219 288 L 221 288 L 224 292 L 224 294 L 221 297 L 217 294 L 217 290 Z M 328 278 L 324 279 L 321 277 L 316 277 L 310 280 L 306 286 L 306 289 L 308 289 L 310 285 L 315 281 L 317 283 L 311 289 L 308 296 L 313 296 L 315 299 L 319 299 L 321 296 L 318 295 L 317 293 L 321 290 L 327 282 Z M 282 277 L 281 283 L 284 285 L 287 284 L 288 279 L 286 277 Z M 250 275 L 243 282 L 242 286 L 243 291 L 247 296 L 251 298 L 258 298 L 262 296 L 265 292 L 266 283 L 264 279 L 259 275 Z M 253 277 L 255 279 L 255 282 L 252 285 L 249 285 L 247 281 L 251 277 Z M 413 256 L 410 257 L 408 264 L 408 270 L 411 276 L 415 272 L 415 261 Z M 430 248 L 432 254 L 440 262 L 444 263 L 445 259 L 442 254 L 434 248 Z M 199 257 L 186 258 L 185 257 L 186 254 L 196 253 L 196 251 L 188 248 L 181 248 L 170 253 L 163 261 L 172 266 L 187 267 L 195 263 L 199 259 Z M 393 247 L 385 251 L 379 258 L 380 263 L 384 262 L 390 256 L 394 249 Z M 411 240 L 401 260 L 400 275 L 405 290 L 409 297 L 413 299 L 421 285 L 424 270 L 423 262 L 419 250 L 415 243 Z M 411 245 L 414 246 L 418 254 L 420 262 L 420 274 L 413 289 L 409 287 L 406 281 L 403 269 L 405 256 Z M 253 238 L 253 245 L 255 249 L 264 256 L 277 261 L 300 265 L 321 265 L 335 263 L 354 257 L 364 249 L 364 247 L 351 244 L 339 249 L 324 252 L 295 252 L 281 249 L 262 242 L 256 238 Z M 230 238 L 228 240 L 228 243 L 230 245 L 234 245 L 236 243 L 236 240 L 234 238 Z M 419 237 L 422 250 L 429 263 L 439 272 L 447 276 L 461 280 L 462 278 L 460 269 L 453 254 L 442 244 L 429 238 Z M 422 241 L 423 240 L 430 241 L 442 248 L 450 257 L 455 271 L 449 272 L 436 265 L 428 256 L 423 246 Z M 403 237 L 395 238 L 382 244 L 370 255 L 364 268 L 362 276 L 363 280 L 377 276 L 385 272 L 394 264 L 402 249 L 404 242 Z M 400 240 L 401 244 L 399 250 L 393 260 L 382 269 L 370 273 L 369 268 L 375 255 L 386 245 L 394 241 Z M 438 228 L 439 231 L 446 233 L 452 233 L 458 230 L 454 226 L 444 226 Z M 365 229 L 366 231 L 371 233 L 377 233 L 386 230 L 386 228 L 380 226 L 370 226 Z M 414 224 L 410 224 L 407 226 L 407 232 L 411 235 L 415 234 L 417 231 L 417 227 Z M 423 228 L 423 230 L 428 234 L 436 238 L 447 241 L 458 241 L 466 239 L 482 230 L 482 228 L 472 222 L 461 218 L 454 217 L 444 218 L 435 221 Z M 428 228 L 440 222 L 456 221 L 471 227 L 472 230 L 464 235 L 449 238 L 436 235 L 430 232 Z M 342 228 L 342 230 L 349 235 L 365 241 L 381 240 L 390 237 L 401 230 L 398 226 L 391 222 L 373 217 L 359 219 Z M 352 228 L 364 222 L 379 221 L 395 227 L 396 230 L 388 235 L 372 238 L 360 235 L 354 232 Z M 205 207 L 198 220 L 198 231 L 201 238 L 205 240 L 204 228 L 207 227 L 210 241 L 212 241 L 216 232 L 216 223 L 210 210 L 207 207 Z M 156 207 L 156 214 L 159 224 L 169 236 L 178 240 L 184 240 L 183 237 L 170 223 L 170 221 L 172 220 L 200 248 L 208 254 L 227 263 L 231 264 L 235 263 L 234 261 L 215 255 L 199 244 L 192 237 L 189 225 L 186 219 L 181 214 L 168 208 L 159 206 Z M 444 196 L 439 197 L 433 203 L 430 209 L 431 211 L 438 208 L 445 200 Z M 379 196 L 378 198 L 380 202 L 386 208 L 393 211 L 393 208 L 389 201 L 386 198 Z M 411 183 L 409 186 L 408 195 L 410 202 L 413 203 L 415 198 L 415 187 Z M 461 179 L 457 179 L 445 183 L 435 189 L 426 200 L 421 211 L 419 219 L 420 222 L 433 219 L 441 215 L 450 208 L 459 193 L 462 181 Z M 454 186 L 455 190 L 449 203 L 437 214 L 424 219 L 422 216 L 429 201 L 439 191 L 447 187 Z M 363 179 L 362 183 L 364 191 L 371 205 L 381 214 L 391 219 L 404 222 L 403 212 L 395 196 L 386 187 L 376 182 Z M 368 187 L 374 186 L 386 192 L 396 203 L 400 211 L 401 218 L 400 219 L 395 218 L 382 211 L 372 199 Z M 185 173 L 182 174 L 177 179 L 176 190 L 180 195 L 184 197 L 191 197 L 197 193 L 199 189 L 199 182 L 198 179 L 194 175 Z M 184 176 L 188 178 L 188 181 L 185 184 L 182 184 L 180 182 L 180 179 Z M 411 159 L 401 179 L 400 193 L 402 202 L 407 213 L 411 218 L 413 218 L 421 204 L 424 188 L 421 174 L 413 159 Z M 411 169 L 414 170 L 420 185 L 420 197 L 417 207 L 413 214 L 409 212 L 404 199 L 403 191 L 405 180 Z M 205 148 L 207 162 L 212 179 L 217 190 L 229 208 L 245 224 L 257 232 L 280 242 L 301 246 L 319 246 L 343 241 L 343 239 L 333 232 L 331 228 L 342 220 L 354 214 L 366 211 L 366 208 L 362 203 L 358 194 L 354 173 L 356 171 L 366 172 L 379 176 L 393 184 L 397 170 L 407 153 L 404 153 L 402 155 L 386 161 L 352 168 L 331 169 L 330 170 L 290 170 L 261 167 L 238 162 L 223 157 Z M 220 167 L 223 167 L 225 169 L 227 177 L 231 185 L 242 201 L 252 211 L 269 223 L 267 227 L 261 225 L 251 218 L 234 201 L 221 179 L 218 170 Z M 462 138 L 455 140 L 454 138 L 456 137 L 456 135 L 449 137 L 444 142 L 442 148 L 444 151 L 444 156 L 442 159 L 445 158 L 454 159 L 462 155 L 465 150 L 465 146 L 463 146 L 462 148 L 460 147 Z M 459 149 L 460 151 L 457 153 L 456 151 Z M 452 140 L 453 142 L 447 148 L 446 145 Z M 307 125 L 295 118 L 291 114 L 284 111 L 280 111 L 274 113 L 260 124 L 252 126 L 239 138 L 245 141 L 263 146 L 286 148 Z M 257 133 L 261 135 L 259 138 L 255 137 Z M 269 125 L 271 124 L 272 127 L 270 128 Z M 463 108 L 460 111 L 460 113 L 463 116 L 466 116 L 468 113 L 468 110 L 466 108 Z M 205 130 L 205 135 L 207 139 L 212 144 L 225 151 L 240 156 L 265 161 L 284 163 L 303 163 L 304 164 L 337 163 L 376 157 L 392 152 L 405 146 L 412 140 L 415 134 L 413 126 L 408 121 L 390 112 L 387 112 L 383 117 L 383 120 L 390 124 L 394 129 L 394 135 L 389 141 L 380 146 L 368 150 L 340 155 L 292 156 L 266 153 L 240 146 L 231 141 L 225 134 L 226 128 L 236 120 L 253 114 L 265 112 L 270 108 L 277 105 L 287 105 L 294 109 L 303 108 L 323 109 L 329 103 L 329 101 L 288 101 L 246 107 L 229 112 L 216 118 L 207 126 Z M 431 100 L 430 105 L 427 107 L 428 117 L 433 121 L 435 119 L 445 116 L 443 114 L 446 113 L 445 106 L 441 102 Z M 415 56 L 406 47 L 399 43 L 392 41 L 386 41 L 379 44 L 374 52 L 374 61 L 371 69 L 295 147 L 295 149 L 316 150 L 356 146 L 392 92 L 399 85 L 411 82 L 418 75 L 419 65 Z M 370 81 L 372 83 L 371 86 L 318 141 L 315 141 L 313 139 L 314 136 L 367 81 Z M 376 70 L 379 68 L 392 81 L 388 82 L 384 80 L 377 73 Z"/>
    </g>
  </g>
  <circle cx="256" cy="200" r="118" fill="none" stroke="url(#ring)" stroke-width="5"/>
  <circle cx="256" cy="200" r="109" fill="none" stroke="#FFD879" stroke-width="1.4" opacity="0.5"/>
</svg>
