<svg xmlns="http://www.w3.org/2000/svg" width="512" height="512" viewBox="0 0 512 512" role="img" aria-label="Pin kota Nusantara">
  <defs>
    <linearGradient id="pinBody" x1="0.18" y1="0.04" x2="0.82" y2="0.96">
      <stop offset="0" stop-color="#5C93FF"/>
      <stop offset="0.38" stop-color="#2E6BF0"/>
      <stop offset="0.72" stop-color="#1A40C0"/>
      <stop offset="1" stop-color="#0E2270"/>
    </linearGradient>
    <linearGradient id="pinRim" x1="0" y1="0" x2="0" y2="1">
      <stop offset="0" stop-color="#8FB6FF"/>
      <stop offset="1" stop-color="#13308F"/>
    </linearGradient>
    <radialGradient id="navy" cx="0.42" cy="0.36" r="0.85">
      <stop offset="0" stop-color="#21285C"/>
      <stop offset="0.6" stop-color="#161A47"/>
      <stop offset="1" stop-color="#0C0E2E"/>
    </radialGradient>
    <linearGradient id="ring" x1="0" y1="0" x2="0" y2="1">
      <stop offset="0" stop-color="#FFE9A8"/>
      <stop offset="1" stop-color="#C9962F"/>
    </linearGradient>
    <linearGradient id="gold" x1="0.2" y1="0" x2="0.8" y2="1">
      <stop offset="0" stop-color="#FFE7A6"/>
      <stop offset="0.42" stop-color="#FFC94D"/>
      <stop offset="0.8" stop-color="#F0A52B"/>
      <stop offset="1" stop-color="#C97E1A"/>
    </linearGradient>
    <linearGradient id="gloss" x1="0" y1="0" x2="0" y2="1">
      <stop offset="0" stop-color="#FFFFFF" stop-opacity="0.55"/>
      <stop offset="1" stop-color="#FFFFFF" stop-opacity="0"/>
    </linearGradient>
    <filter id="shadow" x="-40%" y="-25%" width="180%" height="160%">
      <feDropShadow dx="0" dy="10" stdDeviation="12" flood-color="#081A5C" flood-opacity="0.38"/>
    </filter>
    <clipPath id="medali"><circle cx="256" cy="200" r="122"/></clipPath>
  </defs>

  <g filter="url(#shadow)">
    <path fill="url(#pinRim)" d="M256 492 C198 360 92 300 92 200 A164 164 0 1 1 420 200 C420 300 314 360 256 492 Z"/>
    <path fill="url(#pinBody)" d="M256 484 C200 358 100 300 100 200 A156 156 0 1 1 412 200 C412 300 312 358 256 484 Z"/>
  </g>
  <path fill="url(#gloss)" d="M168 96 C210 64 302 64 344 96 C300 84 212 84 168 96 Z" opacity="0.8"/>
  <ellipse cx="206" cy="150" rx="40" ry="86" fill="#FFFFFF" opacity="0.10" transform="rotate(-26 206 150)"/>

  <circle cx="256" cy="200" r="122" fill="url(#navy)"/>
  <g clip-path="url(#medali)">
    <g transform="translate(111.5305 57.7562) scale(0.45147)" fill="url(#gold)" fill-rule="evenodd" stroke="#B5791B" stroke-width="0.4">
      <path d="M 269 506 L 268 505 L 261 506 L 224 520 L 189 538 L 188 541 L 195 541 L 227 524 L 247 516 L 267 510 L 269 508 Z M 525 503 L 506 501 L 505 500 L 497 500 L 496 499 L 468 498 L 467 497 L 430 497 L 429 498 L 413 498 L 412 499 L 401 499 L 400 500 L 377 502 L 346 508 L 305 520 L 285 528 L 265 538 L 264 541 L 484 541 L 514 517 L 525 506 Z M 291 500 L 293 502 L 297 502 L 316 497 L 347 493 L 348 492 L 377 490 L 378 489 L 397 489 L 398 488 L 438 488 L 439 489 L 470 490 L 471 491 L 480 491 L 481 492 L 509 495 L 526 499 L 531 499 L 533 497 L 533 495 L 502 489 L 468 486 L 467 485 L 409 483 L 408 484 L 368 485 L 367 486 L 358 486 L 357 487 L 349 487 L 348 488 L 328 490 L 294 497 Z M 431 450 L 430 455 L 434 457 L 435 456 L 435 451 Z M 419 450 L 418 455 L 422 456 L 423 451 Z M 195 440 L 194 441 L 194 447 L 195 448 L 200 448 L 201 447 L 201 441 L 200 440 Z M 181 440 L 180 441 L 180 447 L 185 448 L 186 447 L 186 441 Z M 166 440 L 165 441 L 165 447 L 170 448 L 171 447 L 171 441 Z M 376 439 L 375 440 L 375 446 L 376 447 L 381 447 L 382 446 L 382 440 L 381 439 Z M 362 439 L 361 440 L 361 446 L 366 447 L 367 446 L 367 440 Z M 347 439 L 346 440 L 346 446 L 351 447 L 352 446 L 352 440 Z M 431 436 L 430 441 L 434 442 L 435 437 Z M 419 436 L 418 441 L 422 442 L 423 437 Z M 285 426 L 284 427 L 284 434 L 285 435 L 290 435 L 291 434 L 291 427 L 290 426 Z M 270 426 L 269 427 L 269 434 L 270 435 L 275 435 L 276 434 L 276 427 L 275 426 Z M 255 426 L 254 427 L 254 434 L 259 435 L 260 434 L 260 427 Z M 195 424 L 194 425 L 194 431 L 195 432 L 200 432 L 201 431 L 201 425 L 200 424 Z M 181 424 L 179 426 L 179 430 L 181 432 L 185 432 L 186 431 L 186 425 Z M 166 424 L 165 425 L 165 431 L 170 432 L 171 431 L 171 425 Z M 377 422 L 375 424 L 375 429 L 376 430 L 381 430 L 382 429 L 382 424 L 380 422 Z M 362 422 L 361 423 L 361 429 L 366 430 L 367 429 L 367 423 Z M 347 422 L 346 423 L 346 429 L 351 430 L 352 429 L 352 423 Z M 431 421 L 430 426 L 434 427 L 435 422 Z M 419 421 L 418 426 L 422 427 L 423 422 Z M 317 421 L 316 422 L 316 429 L 317 430 L 322 430 L 323 429 L 323 422 L 322 421 Z M 195 407 L 194 408 L 194 414 L 195 415 L 200 415 L 201 414 L 201 408 L 200 407 Z M 181 407 L 180 408 L 180 414 L 185 415 L 186 414 L 186 408 Z M 166 407 L 165 408 L 165 414 L 170 415 L 171 414 L 171 408 Z M 431 406 L 430 411 L 434 412 L 435 407 Z M 419 406 L 418 411 L 422 412 L 423 407 Z M 376 406 L 375 407 L 375 413 L 380 414 L 382 412 L 382 407 L 381 406 Z M 362 406 L 361 407 L 361 413 L 366 414 L 367 413 L 367 407 Z M 347 406 L 346 407 L 346 413 L 351 414 L 352 413 L 352 407 Z M 285 405 L 284 406 L 284 414 L 285 415 L 290 415 L 291 414 L 291 406 L 290 405 Z M 270 405 L 269 406 L 269 414 L 270 415 L 275 415 L 276 414 L 276 406 L 275 405 Z M 255 405 L 254 406 L 254 414 L 259 415 L 261 413 L 261 407 L 259 405 Z M 317 402 L 316 403 L 316 410 L 317 411 L 322 411 L 323 410 L 323 403 L 322 402 Z M 431 391 L 430 396 L 434 397 L 435 392 Z M 419 391 L 418 396 L 422 397 L 423 392 Z M 195 391 L 194 392 L 194 398 L 195 399 L 200 399 L 201 398 L 201 392 L 200 391 Z M 180 391 L 179 392 L 179 397 L 181 399 L 185 399 L 186 398 L 186 392 L 185 391 Z M 166 391 L 165 392 L 165 398 L 170 399 L 171 398 L 171 392 Z M 376 389 L 375 390 L 375 396 L 376 397 L 381 397 L 382 396 L 382 390 L 381 389 Z M 362 389 L 361 390 L 361 396 L 366 397 L 367 396 L 367 390 Z M 347 389 L 346 390 L 346 396 L 351 397 L 352 396 L 352 390 Z M 285 385 L 284 386 L 284 393 L 285 394 L 290 394 L 291 393 L 291 386 L 290 385 Z M 270 385 L 269 386 L 269 393 L 270 394 L 275 394 L 276 393 L 276 386 L 275 385 Z M 255 385 L 254 386 L 254 393 L 255 394 L 260 394 L 261 393 L 260 386 Z M 317 382 L 316 383 L 316 390 L 317 391 L 322 391 L 323 390 L 323 383 L 322 382 Z M 431 377 L 430 382 L 434 383 L 435 378 Z M 419 377 L 418 382 L 422 383 L 423 378 Z M 195 374 L 194 375 L 194 381 L 195 382 L 200 382 L 201 381 L 201 375 L 200 374 Z M 181 374 L 179 376 L 179 381 L 180 382 L 185 382 L 186 381 L 186 375 Z M 166 374 L 165 375 L 165 381 L 170 382 L 171 381 L 171 375 Z M 376 373 L 375 374 L 375 379 L 376 380 L 381 380 L 382 379 L 382 374 L 381 373 Z M 362 373 L 361 374 L 361 379 L 366 380 L 367 379 L 367 374 Z M 347 373 L 346 374 L 346 379 L 351 380 L 352 379 L 352 374 Z M 285 364 L 284 365 L 284 373 L 285 374 L 290 374 L 291 373 L 291 365 L 290 364 Z M 270 364 L 269 365 L 269 373 L 270 374 L 275 374 L 276 373 L 276 365 L 275 364 Z M 255 364 L 254 365 L 254 373 L 259 374 L 261 372 L 261 366 L 259 364 Z M 317 363 L 316 364 L 316 371 L 317 372 L 322 372 L 323 371 L 323 364 L 322 363 Z M 431 362 L 430 367 L 434 368 L 435 363 Z M 419 362 L 418 367 L 422 368 L 423 363 Z M 376 356 L 375 357 L 375 363 L 376 364 L 381 364 L 382 363 L 382 357 L 381 356 Z M 362 356 L 361 357 L 361 363 L 366 364 L 367 363 L 367 357 Z M 347 356 L 346 357 L 346 363 L 351 364 L 352 363 L 352 357 Z M 431 349 L 430 353 L 434 354 L 435 350 Z M 419 349 L 418 353 L 422 354 L 423 350 Z M 270 344 L 269 345 L 269 352 L 270 353 L 275 353 L 276 352 L 276 345 L 275 344 Z M 317 343 L 316 344 L 316 352 L 317 353 L 322 353 L 323 352 L 323 344 L 322 343 Z M 286 343 L 284 345 L 284 352 L 285 353 L 290 353 L 291 352 L 291 344 Z M 255 343 L 254 344 L 254 352 L 255 353 L 260 353 L 261 352 L 261 346 L 259 343 Z M 211 342 L 210 343 L 210 348 L 215 349 L 216 348 L 216 343 Z M 431 336 L 430 340 L 432 342 L 434 342 L 435 337 Z M 419 336 L 418 340 L 421 342 L 423 340 L 423 337 Z M 211 328 L 210 333 L 215 334 L 216 329 Z M 333 324 L 332 325 L 332 332 L 337 333 L 339 331 L 339 326 L 337 324 Z M 317 324 L 316 325 L 316 332 L 317 333 L 322 333 L 323 332 L 323 325 L 322 324 Z M 431 323 L 430 327 L 434 328 L 435 324 Z M 419 323 L 418 327 L 422 328 L 423 324 Z M 237 313 L 236 314 L 236 319 L 241 320 L 242 319 L 242 314 Z M 211 313 L 210 318 L 212 320 L 214 320 L 216 318 L 216 314 Z M 431 310 L 430 314 L 434 315 L 435 311 Z M 419 310 L 418 314 L 422 315 L 423 311 Z M 333 305 L 332 306 L 332 313 L 333 314 L 338 314 L 339 313 L 338 306 Z M 317 305 L 316 306 L 316 313 L 317 314 L 322 314 L 323 313 L 323 306 L 322 305 Z M 302 305 L 301 306 L 301 313 L 306 314 L 307 313 L 307 306 Z M 482 304 L 481 305 L 481 366 L 486 367 L 487 366 L 487 305 Z M 470 304 L 469 305 L 469 462 L 473 463 L 474 462 L 474 305 Z M 458 304 L 457 305 L 457 462 L 461 463 L 462 462 L 462 305 Z M 237 299 L 236 304 L 241 305 L 242 300 Z M 211 299 L 210 304 L 215 305 L 216 300 Z M 431 297 L 430 302 L 434 303 L 435 298 Z M 419 297 L 418 302 L 422 303 L 423 298 Z M 333 285 L 332 286 L 332 293 L 337 294 L 338 293 L 338 286 Z M 317 285 L 316 286 L 316 293 L 317 294 L 322 294 L 323 293 L 323 286 L 322 285 Z M 302 285 L 301 286 L 301 293 L 306 294 L 307 293 L 307 286 Z M 431 284 L 430 289 L 434 290 L 435 285 Z M 419 284 L 418 289 L 422 290 L 423 285 Z M 407 284 L 406 289 L 410 290 L 411 285 Z M 237 284 L 236 289 L 241 290 L 242 285 Z M 211 284 L 210 289 L 215 290 L 216 285 Z M 431 271 L 430 276 L 434 277 L 435 272 Z M 419 271 L 418 276 L 422 277 L 423 272 Z M 407 271 L 406 276 L 410 277 L 411 272 Z M 237 270 L 236 275 L 241 276 L 242 271 Z M 225 270 L 223 272 L 223 454 L 225 457 L 228 457 L 229 456 L 229 271 Z M 211 270 L 210 275 L 215 276 L 216 271 Z M 333 266 L 332 267 L 332 274 L 337 275 L 338 274 L 338 267 Z M 317 266 L 316 267 L 316 274 L 317 275 L 322 275 L 323 274 L 323 267 L 322 266 Z M 302 266 L 300 268 L 301 274 L 306 275 L 307 274 L 307 267 Z M 333 247 L 332 248 L 332 255 L 337 256 L 338 255 L 338 248 Z M 317 247 L 316 248 L 316 255 L 317 256 L 322 256 L 323 255 L 323 248 L 322 247 Z M 302 247 L 301 248 L 301 255 L 306 256 L 307 255 L 307 248 Z M 333 227 L 332 228 L 332 235 L 333 236 L 338 236 L 339 235 L 339 228 L 338 227 Z M 317 227 L 316 228 L 316 235 L 317 236 L 322 236 L 323 235 L 323 228 L 322 227 Z M 302 227 L 301 228 L 301 235 L 306 236 L 307 235 L 307 228 Z M 411 131 L 410 138 L 406 147 L 399 152 L 389 155 L 385 155 L 385 157 L 393 158 L 404 163 L 409 171 L 411 181 L 413 182 L 418 166 L 422 162 L 432 158 L 440 157 L 440 155 L 432 154 L 422 150 L 416 142 L 414 132 Z M 320 98 L 318 99 L 318 136 L 315 139 L 315 149 L 314 150 L 312 175 L 310 177 L 297 177 L 294 180 L 294 199 L 292 201 L 286 201 L 283 204 L 283 323 L 281 325 L 263 325 L 261 323 L 261 256 L 258 253 L 251 253 L 248 250 L 231 217 L 229 215 L 229 181 L 227 179 L 225 179 L 223 182 L 223 210 L 224 211 L 223 215 L 204 250 L 201 253 L 194 253 L 191 257 L 191 357 L 189 359 L 185 359 L 183 357 L 183 330 L 181 328 L 169 328 L 167 326 L 167 313 L 165 311 L 154 310 L 152 308 L 152 279 L 151 278 L 147 279 L 147 308 L 145 310 L 137 310 L 132 313 L 132 326 L 130 328 L 119 328 L 116 330 L 116 481 L 114 483 L 99 486 L 99 489 L 123 515 L 147 535 L 177 519 L 218 502 L 221 502 L 240 495 L 267 488 L 297 482 L 303 482 L 304 481 L 324 479 L 325 478 L 360 476 L 361 475 L 426 475 L 427 476 L 453 477 L 454 478 L 463 478 L 464 479 L 472 479 L 473 480 L 493 482 L 494 483 L 532 489 L 537 491 L 541 488 L 540 486 L 529 484 L 524 481 L 524 378 L 521 375 L 502 375 L 500 373 L 500 290 L 498 288 L 478 288 L 476 286 L 476 261 L 475 260 L 473 260 L 471 262 L 471 286 L 469 288 L 451 288 L 449 286 L 449 222 L 446 219 L 442 220 L 393 259 L 393 297 L 391 299 L 369 299 L 367 302 L 367 339 L 365 341 L 358 341 L 356 339 L 356 204 L 353 201 L 347 201 L 345 199 L 345 180 L 342 177 L 329 177 L 327 175 L 325 150 L 324 149 L 324 139 L 321 136 L 321 99 Z M 505 456 L 510 456 L 512 458 L 512 464 L 510 466 L 505 466 L 503 464 L 503 458 Z M 144 456 L 147 456 L 149 458 L 149 464 L 147 466 L 144 466 L 142 464 L 142 458 Z M 130 456 L 135 456 L 137 458 L 137 464 L 135 466 L 130 466 L 128 464 L 128 458 Z M 505 440 L 510 440 L 512 442 L 512 448 L 510 450 L 505 450 L 503 448 L 503 442 Z M 144 440 L 147 440 L 149 442 L 149 448 L 147 450 L 144 450 L 142 448 L 142 442 Z M 130 440 L 135 440 L 137 442 L 137 448 L 135 450 L 130 450 L 128 448 L 128 442 Z M 505 424 L 510 424 L 512 426 L 512 431 L 510 433 L 505 433 L 503 431 L 503 426 Z M 144 424 L 147 424 L 149 426 L 149 431 L 146 434 L 144 434 L 142 432 L 142 426 Z M 130 424 L 135 424 L 137 426 L 137 432 L 135 434 L 130 434 L 128 432 L 128 426 Z M 505 407 L 510 407 L 512 409 L 512 415 L 510 417 L 505 417 L 503 415 L 503 409 Z M 144 407 L 147 407 L 149 409 L 149 415 L 147 417 L 144 417 L 142 415 L 142 409 Z M 130 407 L 135 407 L 137 409 L 137 415 L 135 417 L 130 417 L 128 415 L 128 409 Z M 505 391 L 510 391 L 512 393 L 512 399 L 510 401 L 505 401 L 503 399 L 503 393 Z M 144 391 L 147 391 L 149 393 L 149 399 L 147 401 L 144 401 L 142 399 L 142 393 Z M 130 391 L 135 391 L 137 393 L 137 399 L 135 401 L 130 401 L 128 399 L 128 393 Z M 144 375 L 147 375 L 149 377 L 149 383 L 147 385 L 144 385 L 142 383 L 142 377 Z M 130 375 L 135 375 L 137 377 L 137 383 L 135 385 L 130 385 L 128 383 L 128 377 Z M 159 366 L 207 366 L 209 368 L 209 467 L 207 469 L 172 473 L 164 475 L 159 475 L 157 473 L 157 368 Z M 144 359 L 148 359 L 150 361 L 149 366 L 147 368 L 144 368 L 142 366 L 142 361 Z M 130 359 L 135 359 L 137 361 L 137 366 L 135 368 L 130 368 L 128 366 L 128 361 Z M 341 348 L 386 348 L 389 351 L 389 363 L 388 364 L 388 369 L 389 370 L 388 375 L 389 378 L 389 464 L 387 466 L 341 464 L 339 462 L 339 350 Z M 166 342 L 171 342 L 173 344 L 173 350 L 171 352 L 166 352 L 164 350 L 164 344 Z M 144 342 L 149 342 L 151 344 L 151 350 L 149 352 L 144 352 L 142 350 L 142 344 Z M 130 342 L 135 342 L 137 344 L 137 350 L 135 352 L 130 352 L 128 350 L 128 344 Z M 247 332 L 298 332 L 300 334 L 300 462 L 298 464 L 261 465 L 260 466 L 247 466 L 245 464 L 245 334 Z M 376 306 L 403 306 L 405 308 L 405 465 L 403 467 L 400 467 L 396 464 L 396 344 L 394 341 L 376 341 L 374 339 L 374 308 Z M 451 295 L 491 295 L 493 297 L 493 373 L 491 375 L 485 375 L 482 377 L 482 473 L 480 475 L 453 472 L 449 469 L 449 297 Z M 206 260 L 214 260 L 215 261 L 245 260 L 246 261 L 251 261 L 253 263 L 253 323 L 251 325 L 241 325 L 238 327 L 238 465 L 236 467 L 218 468 L 216 466 L 216 362 L 213 359 L 201 359 L 199 357 L 199 263 L 201 261 Z M 438 233 L 441 234 L 441 242 L 442 243 L 442 251 L 441 252 L 442 253 L 442 258 L 441 259 L 442 268 L 441 269 L 442 272 L 442 309 L 441 310 L 442 312 L 442 398 L 441 399 L 442 403 L 442 429 L 441 430 L 442 435 L 442 459 L 441 460 L 441 468 L 439 470 L 435 470 L 434 469 L 414 468 L 412 466 L 412 301 L 410 299 L 402 299 L 400 297 L 400 263 Z M 293 208 L 346 208 L 348 210 L 348 339 L 346 341 L 334 341 L 332 343 L 332 462 L 330 464 L 309 464 L 307 462 L 307 328 L 304 325 L 293 325 L 291 323 L 291 210 Z M 301 186 L 303 184 L 336 184 L 338 186 L 338 199 L 336 201 L 303 201 L 301 199 Z"/>
    </g>
  </g>
  <circle cx="256" cy="200" r="118" fill="none" stroke="url(#ring)" stroke-width="5"/>
  <circle cx="256" cy="200" r="109" fill="none" stroke="#FFD879" stroke-width="1.4" opacity="0.5"/>
</svg>
