<svg xmlns="http://www.w3.org/2000/svg" width="512" height="512" viewBox="0 0 512 512" role="img" aria-label="Pin kuliner Nusantara">
  <defs>
    <linearGradient id="pinBody" x1="0.18" y1="0.04" x2="0.82" y2="0.96">
      <stop offset="0" stop-color="#FF8A33"/>
      <stop offset="0.38" stop-color="#FF5A1E"/>
      <stop offset="0.72" stop-color="#E0260C"/>
      <stop offset="1" stop-color="#8E0B05"/>
    </linearGradient>
    <linearGradient id="pinRim" x1="0" y1="0" x2="0" y2="1">
      <stop offset="0" stop-color="#FFC07A"/>
      <stop offset="1" stop-color="#B81808"/>
    </linearGradient>
    <radialGradient id="navy" cx="0.42" cy="0.36" r="0.85">
      <stop offset="0" stop-color="#21285C"/>
      <stop offset="0.6" stop-color="#161A47"/>
      <stop offset="1" stop-color="#0C0E2E"/>
    </radialGradient>
    <linearGradient id="ring" x1="0" y1="0" x2="0" y2="1">
      <stop offset="0" stop-color="#FFE9A8"/>
      <stop offset="1" stop-color="#C9962F"/>
    </linearGradient>
    <linearGradient id="gold" x1="0.2" y1="0" x2="0.8" y2="1">
      <stop offset="0" stop-color="#FFE7A6"/>
      <stop offset="0.42" stop-color="#FFC94D"/>
      <stop offset="0.8" stop-color="#F0A52B"/>
      <stop offset="1" stop-color="#C97E1A"/>
    </linearGradient>
    <linearGradient id="gloss" x1="0" y1="0" x2="0" y2="1">
      <stop offset="0" stop-color="#FFFFFF" stop-opacity="0.55"/>
      <stop offset="1" stop-color="#FFFFFF" stop-opacity="0"/>
    </linearGradient>
    <filter id="shadow" x="-40%" y="-25%" width="180%" height="160%">
      <feDropShadow dx="0" dy="10" stdDeviation="12" flood-color="#5B0A06" flood-opacity="0.35"/>
    </filter>
    <clipPath id="medali"><circle cx="256" cy="200" r="122"/></clipPath>
  </defs>

  <g filter="url(#shadow)">
    <path fill="url(#pinRim)" d="M256 492 C198 360 92 300 92 200 A164 164 0 1 1 420 200 C420 300 314 360 256 492 Z"/>
    <path fill="url(#pinBody)" d="M256 484 C200 358 100 300 100 200 A156 156 0 1 1 412 200 C412 300 312 358 256 484 Z"/>
  </g>
  <path fill="url(#gloss)" d="M168 96 C210 64 302 64 344 96 C300 84 212 84 168 96 Z" opacity="0.8"/>
  <ellipse cx="206" cy="150" rx="40" ry="86" fill="#FFFFFF" opacity="0.10" transform="rotate(-26 206 150)"/>

  <circle cx="256" cy="200" r="122" fill="url(#navy)"/>
  <g clip-path="url(#medali)">
    <g transform="translate(118.5950 62.5950) scale(0.43006)" fill="url(#gold)" fill-rule="evenodd" stroke="#B5791B" stroke-width="0.5">
      <path d="M 151 379 L 152 387 L 158 406 L 169 429 L 182 448 L 200 467 L 225 486 L 246 497 L 268 505 L 290 510 L 306 512 L 333 512 L 364 507 L 393 497 L 409 489 L 423 480 L 437 469 L 452 454 L 467 434 L 479 411 L 488 382 L 487 378 L 152 378 Z M 176 393 L 182 393 L 186 397 L 196 418 L 205 431 L 215 442 L 233 457 L 253 468 L 256 471 L 257 476 L 253 481 L 250 482 L 246 481 L 223 467 L 214 460 L 196 442 L 183 424 L 172 402 L 172 397 Z M 185 273 L 166 291 L 155 308 L 147 331 L 145 350 L 143 352 L 126 352 L 122 357 L 125 386 L 133 414 L 147 443 L 163 466 L 182 486 L 194 496 L 213 509 L 231 519 L 227 528 L 227 540 L 231 549 L 236 554 L 243 558 L 247 559 L 393 559 L 402 555 L 409 548 L 412 541 L 413 535 L 412 528 L 408 519 L 426 509 L 445 496 L 457 486 L 476 466 L 495 438 L 502 424 L 511 399 L 516 374 L 517 357 L 513 352 L 496 352 L 494 350 L 493 338 L 489 324 L 482 309 L 475 299 L 459 283 L 439 271 L 421 265 L 405 263 L 388 264 L 377 267 L 370 257 L 361 248 L 351 241 L 336 235 L 325 233 L 307 234 L 294 238 L 279 247 L 269 257 L 266 262 L 239 257 L 222 258 L 201 264 Z M 239 530 L 245 524 L 257 529 L 287 536 L 305 538 L 335 538 L 372 532 L 395 524 L 399 528 L 401 535 L 399 541 L 391 547 L 248 547 L 241 542 L 239 538 Z M 135 366 L 137 364 L 502 364 L 504 366 L 504 372 L 498 400 L 485 431 L 465 460 L 439 485 L 412 503 L 391 513 L 373 519 L 344 525 L 305 526 L 278 522 L 241 510 L 215 496 L 195 481 L 174 460 L 154 431 L 141 400 L 136 379 Z M 376 344 L 379 339 L 388 331 L 397 328 L 406 328 L 418 333 L 427 343 L 429 350 L 427 352 L 398 352 L 380 348 Z M 353 331 L 359 322 L 374 309 L 382 305 L 394 302 L 410 302 L 421 305 L 435 313 L 445 323 L 453 337 L 456 350 L 454 352 L 444 352 L 441 348 L 441 345 L 437 336 L 432 329 L 424 322 L 409 316 L 395 316 L 381 321 L 368 333 L 364 340 L 361 340 L 353 334 Z M 183 345 L 186 333 L 191 322 L 206 305 L 216 299 L 226 296 L 244 296 L 254 299 L 264 304 L 275 312 L 310 349 L 309 352 L 295 352 L 277 333 L 275 333 L 276 338 L 275 350 L 273 352 L 264 352 L 263 351 L 264 335 L 261 326 L 252 315 L 241 310 L 227 310 L 215 315 L 203 328 L 202 337 L 206 340 L 209 340 L 213 337 L 217 330 L 224 324 L 229 322 L 239 322 L 243 324 L 250 331 L 252 336 L 252 344 L 250 349 L 247 352 L 232 352 L 231 349 L 237 343 L 236 338 L 233 336 L 228 336 L 224 338 L 219 343 L 217 350 L 215 352 L 185 352 L 183 350 Z M 332 315 L 347 297 L 360 287 L 372 281 L 390 276 L 419 277 L 440 285 L 453 294 L 464 305 L 472 316 L 477 326 L 480 335 L 482 350 L 480 352 L 470 352 L 468 350 L 466 337 L 462 327 L 452 312 L 438 300 L 429 295 L 417 291 L 391 290 L 377 294 L 360 304 L 349 315 L 342 325 L 332 317 Z M 310 273 L 318 271 L 329 273 L 336 277 L 342 284 L 323 306 L 300 283 L 300 280 Z M 157 343 L 163 320 L 169 308 L 178 296 L 187 287 L 206 275 L 223 270 L 237 269 L 259 273 L 281 284 L 296 296 L 332 334 L 346 345 L 352 348 L 353 351 L 352 352 L 333 352 L 331 351 L 280 300 L 260 288 L 251 285 L 236 283 L 224 284 L 213 287 L 199 295 L 190 303 L 183 312 L 177 323 L 172 338 L 171 350 L 169 352 L 159 352 L 157 350 Z M 278 266 L 289 255 L 302 248 L 309 246 L 323 245 L 334 247 L 349 254 L 358 262 L 364 271 L 352 277 L 340 265 L 332 261 L 322 259 L 307 261 L 296 267 L 289 274 L 280 270 Z M 406 130 L 393 130 L 385 133 L 375 142 L 370 154 L 370 167 L 372 175 L 378 186 L 392 202 L 395 209 L 395 220 L 389 232 L 393 238 L 400 237 L 405 228 L 407 222 L 407 207 L 402 195 L 388 179 L 384 172 L 382 166 L 383 153 L 389 145 L 395 142 L 404 142 L 412 148 L 414 153 L 414 158 L 412 162 L 408 165 L 403 165 L 399 170 L 400 174 L 403 177 L 410 177 L 417 174 L 424 166 L 426 160 L 426 151 L 422 141 L 415 134 Z M 249 130 L 236 130 L 225 135 L 217 144 L 213 155 L 213 166 L 215 174 L 222 187 L 234 200 L 238 208 L 239 217 L 237 224 L 233 230 L 233 235 L 236 238 L 242 238 L 247 231 L 251 219 L 251 210 L 245 195 L 232 180 L 226 169 L 225 165 L 226 153 L 235 143 L 238 142 L 247 142 L 255 148 L 257 152 L 256 161 L 253 164 L 246 165 L 243 168 L 243 174 L 246 177 L 253 177 L 260 174 L 266 168 L 269 161 L 269 150 L 267 144 L 261 136 Z M 327 80 L 311 81 L 299 87 L 289 98 L 284 112 L 284 125 L 288 139 L 295 151 L 314 172 L 319 183 L 319 196 L 311 212 L 312 216 L 316 219 L 319 219 L 323 216 L 329 205 L 331 198 L 331 181 L 324 165 L 306 145 L 298 131 L 296 123 L 297 110 L 302 101 L 311 94 L 318 92 L 325 92 L 336 97 L 342 105 L 343 117 L 336 126 L 332 128 L 327 128 L 324 130 L 323 136 L 327 140 L 334 140 L 345 135 L 351 128 L 355 118 L 355 107 L 353 100 L 349 93 L 340 85 Z"/>
    </g>
  </g>
  <circle cx="256" cy="200" r="118" fill="none" stroke="url(#ring)" stroke-width="5"/>
  <circle cx="256" cy="200" r="109" fill="none" stroke="#FFD879" stroke-width="1.4" opacity="0.5"/>
</svg>
