<?xml version="1.0" encoding="UTF-8"?>
<!--
  indonesia-outline.svg
  Siluet garis tepi Indonesia — 38 Provinsi (merged, tanpa batas internal)
  Gradient: #0EA5E9 → #1E3A8A | Stroke-only | NUSANTARAYA Asset
-->
<svg
  xmlns="http://www.w3.org/2000/svg"
  viewBox="0 0 1200 600"
  preserveAspectRatio="xMidYMid meet"
  role="img"
  aria-label="Peta Outline Indonesia 38 Provinsi"
>
  <title>Peta Outline Indonesia — 38 Provinsi</title>

  <defs>
    <!-- Gradient biru laut → biru tua: kesan premium, tajam, dan modern -->
    <linearGradient id="outlineGradient" x1="0%" y1="20%" x2="100%" y2="80%">
      <stop offset="0%"   stop-color="#0EA5E9" />
      <stop offset="45%"  stop-color="#2563EB" />
      <stop offset="100%" stop-color="#1E3A8A" />
    </linearGradient>

    <!-- Glow halus agar garis terlihat "bercahaya" -->
    <filter id="outlineGlow" x="-8%" y="-8%" width="116%" height="116%">
      <feGaussianBlur in="SourceGraphic" stdDeviation="1.8" result="blur" />
      <feMerge>
        <feMergeNode in="blur" />
        <feMergeNode in="SourceGraphic" />
      </feMerge>
    </filter>
  </defs>

  <!-- Layer 1: Garis batas per-provinsi (tipis, siap animasi hover CSS/JS) -->
  <g id="provinces-layer" aria-hidden="true">
    <path
      class="province-path"
      data-prov="72"
      data-name="Sulawesi Tengah"
      d="M636.31,257.81L640.37,253.11L644.22,258.17L641.24,248.83L642.52,240.00L639.11,239.56L637.40,236.88L643.31,239.04L644.23,234.71L641.85,230.94L644.75,231.18L644.35,225.12L648.39,223.8L648.27,218.82L653.03,216.81L654.38,211.98L657.22,216.85L662.02,217.71L663.13,213.15L667.45,210.93L667.43,203.51L669.81,202.75L678.60,205.89L683.82,204.00L682.71,206.99L685.97,210.01L702.07,210.67L697.58,213.90L693.79,211.87L677.67,216.85L676.36,219.89L680.45,222.24L680.63,224.77L674.24,226.67L663.40,223.58L656.58,225.08L650.64,231.80L648.07,238.52L649.37,253.8L655.01,260.72L657.54,259.68L659.92,261.49L664.14,271.93L667.80,270.40L674.70,272.50L680.61,263.19L688.05,256.75L690.18,260.39L695.86,261.48L699.72,260.62L702.24,256.28L721.17,255.43L715.77,253.50L723.60,250.68L728.72,251.07L733.10,254.51L730.93,262.42L728.57,262.45L724.73,257.49L717.26,260.09L706.92,273.93L693.35,278.99L689.11,285.19L679.82,281.38L680.70,286.18L682.56,284.35L685.99,290.73L692.83,293.88L697.46,304.52L705.20,309.54L703.47,312.20L709.33,316.02L704.95,318.35L703.70,314.04L688.96,309.04L691.8,302.57L683.93,296.91L674.86,296.54L674.91,293.55L665.81,292.58L657.75,286.01L654.50,287.50L649.09,285.24L644.02,287.00L644.07,281.11L639.08,275.21L639.38,272.62L632.97,270.03L637.11,264.69ZM688.93,250.94L691.09,247.24L695.06,247.62L694.33,250.07L690.59,248.98ZM696.58,247.15L693.67,246.04L698.66,245.28ZM706.76,245.72L702.89,241.93L706.75,243.67ZM725.22,326.82L723.23,326.38L726.14,325.51ZM719.20,276.56L716.84,272.74L719.94,266.07L726.86,265.31L728.32,271.30L731.25,267.24L736.01,268.49L733.56,274.49L728.56,272.61L728.20,277.76L724.63,276.57L726.76,274.4L725.58,269.02ZM734.35,279.21L735.73,273.74L737.44,279.01Z"
      fill="none"
      stroke="url(#outlineGradient)"
      stroke-width="0.6"
      stroke-linejoin="round"
      stroke-linecap="round"
      opacity="0.30"
    />
    <path
      class="province-path"
      data-prov="76"
      data-name="Sulawesi Barat"
      d="M636.31,257.81L637.11,264.69L632.97,270.03L639.38,272.62L639.08,275.21L644.07,281.11L644.02,287.00L639.21,293.52L641.32,301.10L640.97,304.38L636.73,305.36L638.09,314.27L631.96,316.95L634.13,324.07L630.03,322.17L622.13,325.61L619.97,324.66L616.76,313.56L619.33,308.55L616.56,308.20L616.24,306.15L617.89,302.08L620.40,303.02L625.74,298.43L627.60,286.47L631.35,283.05L629.33,278.76L629.87,268.39Z"
      fill="none"
      stroke="url(#outlineGradient)"
      stroke-width="0.6"
      stroke-linejoin="round"
      stroke-linecap="round"
      opacity="0.30"
    />
    <path
      class="province-path"
      data-prov="73"
      data-name="Sulawesi Selatan"
      d="M670.32,418.91L673.82,419.36L667.11,418.62ZM666.56,414.75L663.11,415.03L662.73,411.92ZM658.26,391.50L659.67,380.86L661.45,388.06L659.27,398.94ZM634.13,324.07L631.96,316.95L638.09,314.27L636.73,305.36L640.97,304.38L641.32,301.10L639.21,293.52L644.02,287.00L649.09,285.24L654.50,287.50L657.75,286.01L665.81,292.58L674.91,293.55L674.86,296.54L683.93,296.91L691.8,302.57L688.96,309.04L681.97,311.89L674.28,305.86L672.48,308.19L674.23,304.02L665.98,302.09L652.00,310.91L653.66,315.56L657.76,318.14L658.22,330.19L655.70,338.84L655.94,347.18L658.53,352.99L654.91,358.27L654.03,365.14L658.84,376.82L655.05,374.29L650.51,376.32L645.51,375.29L639.88,379.20L632.74,375.62L631.14,369.74L635.39,359.68L634.33,355.35L638.17,344.48L638.10,335.71L633.60,329.36ZM674.72,421.78L674.28,419.43L676.36,420.58Z"
      fill="none"
      stroke="url(#outlineGradient)"
      stroke-width="0.6"
      stroke-linejoin="round"
      stroke-linecap="round"
      opacity="0.30"
    />
    <path
      class="province-path"
      data-prov="91"
      data-name="Papua Tengah"
      d="M1018.86,342.85L1024.04,335.70L1022.17,329.50L1026.65,326.42L1022.07,326.50L1019.69,322.53L1014.90,320.54L1011.95,314.72L1011.37,306.65L1013.26,305.43L1013.89,310.70L1017.88,308.99L1018.25,317.77L1024.53,321.07L1030.40,321.25L1034.36,320.34L1044.78,310.55L1046.96,304.17L1051.79,306.54L1055.15,312.23L1060.95,312.68L1060.84,317.87L1063.30,317.15L1063.35,314.96L1065.29,318.19L1067.91,317.89L1069.11,321.68L1070.65,321.29L1069.23,315.48L1072.66,316.81L1070.41,318.62L1071.73,319.46L1074.40,314.86L1080.71,313.25L1093.46,313.55L1097.75,311.14L1096.78,316.14L1098.59,317.55L1098.49,326.19L1103.28,327.22L1103.08,330.89L1105.44,332.17L1096.64,333.96L1094.75,341.30L1090.02,339.56L1089.96,342.01L1092.88,341.68L1093.54,343.47L1095.88,342.09L1092.43,349.17L1094.72,351.38L1090.86,352.75L1094.03,356.07L1088.57,367.03L1044.88,348.88L1026.90,348.19Z"
      fill="none"
      stroke="url(#outlineGradient)"
      stroke-width="0.6"
      stroke-linejoin="round"
      stroke-linecap="round"
      opacity="0.30"
    />
    <path
      class="province-path"
      data-prov="92"
      data-name="Papua Barat"
      d="M980.24,339.04L985.72,342.54L983.25,342.82ZM990.01,300.44L991.20,301.2L991.66,302.72L991.44,302.94L990.63,302.95L990.57,302.03L989.17,301.85ZM961.77,291.50L964.15,288.30L962.56,284.27L965.21,282.76L969.68,268.72L972.34,270.34L978.09,266.13L982.59,266.01L983.92,255.09L996.04,254.57L1000.11,258.32L997.05,260.65L1003.63,269.97L998.46,278.42L999.68,290.54L1008.21,308.10L1010.05,297.76L1012.76,299.18L1013.26,305.43L1011.37,306.65L1011.95,314.72L1014.90,320.54L1019.69,322.53L1022.07,326.50L1026.65,326.42L1022.17,329.50L1024.04,335.70L1018.86,342.85L1012.46,339.48L1014.28,338.26L1013.27,336.12L1020.78,335.23L1013.66,334.52L1009.39,337.63L1005.49,333.89L1005.44,335.65L1003.54,335.22L1004.31,337.76L999.68,334.20L1001.53,332.36L1000.22,330.16L995.36,332.68L992.67,325.51L992.18,329.70L989.04,328.30L987.30,323.45L989.25,321.67L988.38,317.66L993.63,312.71L992.70,309.92L987.99,314.55L987.58,321.93L984.15,320.9L986.71,324.76L981.99,328.8L983.19,333.01L978.08,338.33L969.72,338.62L965.12,328.60L970.25,325.26L967.22,322.63L967.00,318.04L963.41,319.43L958.56,312.29L953.96,309.73L949.01,310.51L946.81,307.20L948.23,306.06L945.61,305.83L952.63,302.88L961.58,303.90L965.04,306.62L977.09,296.83L981.13,299.21L982.07,303.91L987.81,299.85L988.33,302.98L990.97,303.12L991.88,302.69L991.35,298.77L991.98,298.30L992.42,297.66L993.23,298.27L993.55,297.93L994.24,298.56L996.07,298.51L995.47,296.43L995.96,296.19L996.46,296.26L996.42,295.68L995.48,294.65L996.75,292.56L995.45,288.58L987.27,292.31L976.27,291.39L970.80,293.82L962.84,293.69ZM992.56,296.75L993.50,297.91L993.34,298.28L992.34,297.61L991.15,298.57L989.99,297.55ZM995.17,294.72L996.42,295.72L996.37,296.29L995.47,296.39L992.79,295.59ZM999.22,334.43L1001.42,336.79L998.85,336.12ZM1001.16,284.43L1000.43,282.29L1002.73,280.21ZM1006.82,288.09L1005.46,290.70L1005.81,286.59ZM1010.76,296.69L1009.41,296.30L1011.12,294.40Z"
      fill="none"
      stroke="url(#outlineGradient)"
      stroke-width="0.6"
      stroke-linejoin="round"
      stroke-linecap="round"
      opacity="0.30"
    />
    <path
      class="province-path"
      data-prov="75"
      data-name="Gorontalo"
      d="M680.63,224.77L680.45,222.24L676.36,219.89L677.67,216.85L693.79,211.87L697.58,213.90L702.07,210.67L708.49,210.85L717.91,216.14L720.65,212.68L725.19,213.51L728.92,216.56L728.98,219.17L735.46,222.24L733.98,228.60L728.83,228.55L723.72,223.98L707.11,223.63L692.51,226.12L685.30,222.89Z"
      fill="none"
      stroke="url(#outlineGradient)"
      stroke-width="0.6"
      stroke-linejoin="round"
      stroke-linecap="round"
      opacity="0.30"
    />
    <path
      class="province-path"
      data-prov="14"
      data-name="Riau"
      d="M152.51,217.57L151.03,216.09L152.13,207.39L149.32,202.15L158.83,198.64L157.73,192.66L154.99,191.35L157.29,181.06L156.02,172.98L157.87,178.65L162.16,182.77L167.04,184.51L167.23,179.67L174.11,179.38L180.52,185.61L182.76,193.82L191.97,195.16L201.63,202.21L203.64,211.75L208.48,216.63L212.12,218.14L220.76,218.79L225.64,226.99L231.01,223.00L240.6,229.11L243.07,236.88L238.21,236.75L234.25,241.19L242.31,245.25L233.40,249.63L233.89,254.87L231.69,256.55L222.97,255.44L213.69,264.67L204.86,259.46L197.57,258.60L193.51,261.00L174.62,249.17L172.76,244.48L169.08,245.16L166.60,237.89L169.55,235.44L167.43,234.53L169.03,231.02L165.11,231.89L159.65,228.75L159.50,226.32L154.88,226.31L152.93,220.97L155.09,219.39ZM212.13,217.44L208.82,215.98L208.17,214.33L216.24,211.07L224.28,217.09L223.38,219.48L219.31,216.78ZM220.24,212.61L216.49,210.66L213.46,211.17L216.31,207.77L220.21,208.51L226.69,215.42ZM210.16,212.22L209.43,209.59L211.31,208.39L213.08,211.51ZM203.53,205.57L203.15,201.61L204.7,201.18L210.02,205.68L208.86,209.86L209.98,212.82L207.72,213.80L204.81,211.50ZM200.87,200.14L197.96,196.76L209.39,198.69L210.61,205.08L205.04,200.82ZM183.45,191.15L183.07,186.14L190.53,184.25L192.55,188.12L190.67,193.04L186.09,194.06ZM228.01,223.62L226.32,222.41L228.02,219.06L230.40,221.69Z"
      fill="none"
      stroke="url(#outlineGradient)"
      stroke-width="0.6"
      stroke-linejoin="round"
      stroke-linecap="round"
      opacity="0.30"
    />
    <path
      class="province-path"
      data-prov="91"
      data-name="Papua Selatan"
      d="M1117.11,440.63L1119.00,446.70L1110.67,445.85L1113.55,441.26ZM1089.59,447.36L1087.64,447.61L1088.22,444.57L1093.29,433.25L1102.12,423.56L1114.98,421.06L1123.58,426.08L1121.42,433.19L1119.01,434.49L1119.34,438.90L1117.53,438.81L1116.64,440.34L1113.68,440.67L1107.56,445.96ZM1112.94,405.36L1116.48,407.57L1113.49,408.45ZM1114.30,402.56L1116.95,404.20L1117.11,406.18L1117.76,406.72L1120.20,406.83L1117.76,407.48L1113.43,404.86ZM1088.57,367.03L1094.03,356.07L1090.86,352.75L1094.72,351.38L1098.83,350.72L1101.42,354.40L1104.74,353.25L1106.61,356.86L1110.87,356.40L1111.33,354.03L1117.94,354.10L1122.85,357.72L1125.68,355.11L1123.51,361.23L1146.22,363.02L1144.51,366.72L1142.05,365.71L1145.12,367.13L1146.12,363.88L1147.68,366.06L1149.54,365.37L1148.03,362.82L1152.42,362.76L1156.21,366.90L1171.52,370.21L1171.50,394.75L1167.66,403.84L1169.33,408.36L1172,409.07L1171.99,465.38L1168.72,464.29L1145.30,439.52L1130.05,442.15L1126.75,439.41L1119.27,443.55L1117.43,440.06L1118.10,439.23L1119.26,439.17L1119.77,438.52L1119.30,435.26L1121.89,433.44L1124.32,426.13L1113.70,417.57L1114.23,413.66L1110.70,410.10L1120.09,407.89L1120.30,406.69L1117.34,406.28L1117.19,404.16L1107.12,395.32L1103.52,382.67L1098.26,379.73L1097.74,376.42L1099.73,374.93L1093.19,370.35L1089.99,370.89Z"
      fill="none"
      stroke="url(#outlineGradient)"
      stroke-width="0.6"
      stroke-linejoin="round"
      stroke-linecap="round"
      opacity="0.30"
    />
    <path
      class="province-path"
      data-prov="34"
      data-name="Daerah Istimewa Yogyakarta"
      d="M397.71,434.14L400.51,428.74L404.46,429.41L408.74,425.4L409.90,431.08L417.24,432.34L416.49,437.58L418.47,442.08Z"
      fill="none"
      stroke="url(#outlineGradient)"
      stroke-width="0.6"
      stroke-linejoin="round"
      stroke-linecap="round"
      opacity="0.30"
    />
    <path
      class="province-path"
      data-prov="13"
      data-name="Sumatera Barat"
      d="M129.91,277.58L129.93,280.20L128.43,277.55L129.08,281.44L126.14,281.75L118.66,276.94L112.95,266.53L115.16,260.55L120.76,259.30ZM151.10,307.42L148.29,307.61L147.28,299.37L153.52,305.27ZM143.31,294.15L144.58,296.26L138.01,293.61L136.94,287.82L140.29,288.45ZM154.40,312.79L152.71,306.30L159.39,311.90L159.64,315.20L157.44,315.75L159.60,320.20ZM152.51,217.57L155.09,219.39L152.93,220.97L154.88,226.31L159.50,226.32L159.65,228.75L165.11,231.89L169.03,231.02L167.43,234.53L169.55,235.44L166.60,237.89L169.08,245.16L172.76,244.48L174.62,249.17L193.51,261.00L195.01,264.89L190.41,268.40L189.92,274L184.85,278.46L176.31,278.64L180.26,293.75L173.51,298.49L168.58,290.97L169.67,285.14L163.92,276.74L162.14,269.92L157.99,268.33L156.23,258.04L143.50,244.11L141.25,237.12L132.02,230.90L127.20,230.90L135.82,223.15L145.70,224.81L147.1,222.97L143.76,219.22L143.91,214.37Z"
      fill="none"
      stroke="url(#outlineGradient)"
      stroke-width="0.6"
      stroke-linejoin="round"
      stroke-linecap="round"
      opacity="0.30"
    />
    <path
      class="province-path"
      data-prov="31"
      data-name="DKI Jakarta"
      d="M315.87,388.90L321.99,388.93L320.68,395.45L317.24,394.60L314.92,390.98Z"
      fill="none"
      stroke="url(#outlineGradient)"
      stroke-width="0.6"
      stroke-linejoin="round"
      stroke-linecap="round"
      opacity="0.30"
    />
    <path
      class="province-path"
      data-prov="81"
      data-name="Maluku"
      d="M850.41,443.88L849.27,442.18L852.49,442.27L852.82,443.81ZM848.24,442.85L842.43,442.00L841.14,439.68L850.11,440.83ZM792.24,437.13L795.73,428.44L801.70,430.08L812.45,425.81L818.08,430.26L810.75,432.51L808.63,436.32L798.82,434.13ZM830.86,428.15L831.13,424.39L833.90,424.75ZM863.66,415.82L862.60,417.16L860.08,415.42L862.22,413.34ZM850.12,330.97L852.78,327.23L846.93,331.06L845.04,328.55L855.43,324.08L855.85,327.25L853.50,326.98L854.43,328.88ZM857.47,327.35L858.19,324.27L861.19,325.66ZM863.54,326.69L861.10,323.98L865.2,324.34L865.28,326.97ZM814.32,333.06L801.57,326.84L797.22,320.48L797.48,315.87L816.74,313.01L824.78,317.41L822.87,318.16L823.78,320.61L828.47,320.87L827.59,328.02ZM837.61,319.21L838.40,320.68L834.17,318.98ZM845.57,311.94L842.94,312.18L846.76,309.63ZM916.72,445.65L920.29,440.13L926.01,439.96ZM886.47,434.24L888.80,431.57L893.59,434.6L890.73,438.34ZM918.33,424.44L921.17,426.02L917.70,425.75ZM844.36,323.77L845.54,320.3L842.97,315.61L849.82,313.12L848.99,310.55L851.64,308.20L873.27,306.43L875.14,310.75L885.04,305.87L897.52,311.51L906.47,311.21L911.88,315.21L913.02,320.92L917.00,321.70L918.88,326.87L917.41,333.28L897.41,323.62L895.12,319.98L885.03,318.98L885.38,323.26L870.31,320.43L871.09,317.18L869.08,316.61L863.78,322.36L858.76,323.01L853.60,316.59L851.51,317.30L851.57,313.15L849.24,314.79L845.98,324.73ZM922.50,429.66L921.05,430.44L924.85,428.01ZM925.19,423.40L921.09,424.11L925.90,421.98ZM930.15,435.79L929.37,437.53L928.98,435.05L924.43,436.86L924.51,429.56L927.63,429.89L925.75,428.69L927.90,423.63L932.93,420.42L935.27,415.37L938.32,414.86L940.51,417.08L937.66,418.16L937.64,427.44ZM933.08,338.17L931.02,335.86L932.41,335.34ZM945.76,415.94L945.59,418.13L939.68,415.66ZM965.33,385.42L962.68,378.31L964.56,376.45L967.15,382.88ZM968.10,386.48L975.63,368.41L974.34,376.60ZM1003.00,409L1001.64,410.07L998.07,406.05L999.66,397.92L1002.15,398.96L999.75,397.33L999.67,390.69L1009.98,401.27ZM1004.12,393.84L999.62,389.19L1000.28,386.98L1002.41,387.06L1002.56,389.84L1005.17,392.35ZM1008.19,393.58L1010.07,395.23L1008.79,397.90L1005.78,395.82ZM1005.27,387.31L1004.09,384.58L1006.63,381.36L1002.04,379.63L1005.33,379.84L1008.05,375.39L1009.92,375.72L1010.13,377.43L1010.38,377.90L1011.05,378.05L1011.05,378.39L1011.59,379.19L1012.19,379.77L1012.66,379.47L1013.87,380.98L1013.97,382.48ZM1011.52,398.31L1009.65,400.00L1009.78,395.91ZM1003.90,390.21L1003.74,387.86L1007.72,387.02L1010.14,384.62L1016.29,389.00L1014.96,394.23L1012.11,395.99ZM1011.68,375.81L1009.38,375.44L1009.23,372.10L1014.20,374.41ZM1014.57,404.91L1012.30,405.64L1014.31,401.19ZM1014.60,398.18L1015.83,399.95L1013.77,400.81L1012.73,398.64ZM1014.73,382.47L1015.07,386.13L1012.46,384.59ZM1010.29,377.52L1010.01,375.92L1010.57,375.65L1015.83,378.29L1014.24,379.81L1012.71,379.42L1012.14,379.71L1011.04,378.25L1010.40,377.85ZM1018.57,393.84L1017.85,398.62L1016.65,396.42Z"
      fill="none"
      stroke="url(#outlineGradient)"
      stroke-width="0.6"
      stroke-linejoin="round"
      stroke-linecap="round"
      opacity="0.30"
    />
    <path
      class="province-path"
      data-prov="17"
      data-name="Bengkulu"
      d="M202.84,371.99L200.07,370.11L201.29,368.98L207.43,371.25L207.28,373.75ZM173.51,298.49L180.26,293.75L186.82,297.74L186.48,300.81L189.86,299.85L194.4,304.79L199.51,305.74L204.60,312.59L209.67,313.70L210.25,318.23L222.59,320.74L222.75,324.65L220.56,326.94L218.14,324.77L217.15,329.23L213.65,331.77L222.78,337.00L220.85,338.87L224.57,342.96L233.92,344.80L233.03,349.07L234.95,350.97L238.34,349.84L239.78,354.5L242.61,356.04L237.76,359.63L231.06,356.77L205.54,336.20L203.84,328.62L188.49,317.64L180.94,304.92Z"
      fill="none"
      stroke="url(#outlineGradient)"
      stroke-width="0.6"
      stroke-linejoin="round"
      stroke-linecap="round"
      opacity="0.30"
    />
    <path
      class="province-path"
      data-prov="18"
      data-name="Lampung"
      d="M237.76,359.63L242.61,356.04L244.44,359.51L256.21,358.37L255.19,352.99L257.44,345.23L273.35,340.69L280.76,329.84L285.81,332.51L289.08,338.71L293.31,340.47L293.42,345.34L295.59,347.52L295.28,359.65L290.69,384.25L280.06,372.78L276.99,376.77L278.08,380.90L276.53,381.86L265.53,374.66L261.79,374.46L266.05,384.97L262.42,385.23L245.53,367.41L245.60,364.74Z"
      fill="none"
      stroke="url(#outlineGradient)"
      stroke-width="0.6"
      stroke-linejoin="round"
      stroke-linecap="round"
      opacity="0.30"
    />
    <path
      class="province-path"
      data-prov="91"
      data-name="Papua"
      d="M1019.01,265.06L1016.59,262.37L1017.75,259.92L1020.25,260.72L1019.88,263.44L1021.23,261.94ZM1033.49,255.07L1033.92,256.69L1030.79,252.33L1040.31,255.15L1037.76,258.74ZM1034.16,278.54L1033.03,276.55L1069.11,281.21L1052.98,283.94ZM1041.02,258.46L1039.70,256.50L1041.97,253.71L1050.69,262.42L1056.30,263.62L1050.04,266.55L1043.13,265.72ZM1046.96,304.17L1052.29,301.81L1056.45,292.06L1065.39,292.84L1075.63,288.93L1077.35,287.95L1073.85,282.83L1074.74,280.95L1094.96,273.00L1098.27,276.56L1113.65,281.63L1118.46,285.78L1140.67,295.59L1149.31,294.51L1155.22,298.09L1156.29,296.57L1163.85,298.48L1164.17,302.25L1171.53,301.64L1171.53,337.02L1163.03,336.17L1163.86,337.72L1161.17,339.39L1157.20,334.81L1156.84,331.08L1160.08,332.24L1160.07,335.70L1165.93,335.54L1167.14,333.24L1164.07,333.69L1163.71,331.36L1154.55,330.12L1153.28,328.28L1146.57,329.06L1140.45,324.29L1136.44,329.59L1133.39,323.01L1125.08,322.17L1123.21,318.43L1118.39,322.10L1119.31,317.92L1115.22,315.96L1113.14,319.27L1111.19,317.10L1111.45,310.56L1109.70,309.96L1105.53,310.10L1102.71,312.75L1099.92,311.33L1098.59,317.55L1096.78,316.14L1097.75,311.14L1093.46,313.55L1080.71,313.25L1074.40,314.86L1071.73,319.46L1070.41,318.62L1072.66,316.81L1069.23,315.48L1070.65,321.29L1069.11,321.68L1067.91,317.89L1065.29,318.19L1063.35,314.96L1063.30,317.15L1060.84,317.87L1060.95,312.68L1055.15,312.23L1051.79,306.54Z"
      fill="none"
      stroke="url(#outlineGradient)"
      stroke-width="0.6"
      stroke-linejoin="round"
      stroke-linecap="round"
      opacity="0.30"
    />
    <path
      class="province-path"
      data-prov="21"
      data-name="Kepulauan Riau"
      d="M234.44,220.45L231.80,218.42L232.30,214.22L235.60,217.59ZM233.83,211.92L231.06,211.17L231.63,208.26ZM246.99,212.40L246.32,213.86L243.70,211.20ZM246.46,211.42L245.91,208.07L251.32,207.42L251.16,210.78ZM254.38,216.62L254.20,219.31L252.30,217.20ZM253.77,215.03L252.36,217.06L249.79,213.02ZM254.31,248.48L255.99,245.31L256.00,247.47L259.76,244.98L262.81,248.30L260.44,252.67L258.84,251.27L256.97,253.67ZM258.82,244.66L257.61,243.84L259.70,243.54ZM253.58,210.31L256.41,206.97L262.46,205.97L264.15,213.95L261.74,216.28L258.78,213.92L259.03,210.28L256.17,211.70ZM261.02,243.32L258.51,241.18L261.86,236.13L266.61,241.33L268.46,239.93L272.28,243.63L268.73,244.47L265.41,241.71ZM292.45,164.09L290.91,166.25L290.19,160.57L293.50,161.96ZM302.85,158.19L303.50,155.89L304.89,159.20ZM373.52,174.55L372.12,172.76L375.57,173.62ZM350.25,141.08L347.04,136.30L353.18,130.89L357.74,137.71L357.60,140.99L355.09,145.22L351.49,145.83L350.57,143.22L354.04,142.65Z"
      fill="none"
      stroke="url(#outlineGradient)"
      stroke-width="0.6"
      stroke-linejoin="round"
      stroke-linecap="round"
      opacity="0.30"
    />
    <path
      class="province-path"
      data-prov="52"
      data-name="Nusa Tenggara Barat"
      d="M550.09,458.98L547.51,459.75L543.00,456.22L549.36,455.36L548.22,448.21L549.87,446.11L556.13,442.29L565.33,445.75L559.75,457.51L561.63,459.46L558.29,460.18L559.20,457.84L557.65,458.22L556.79,461.08ZM571.08,463.65L565.86,462.12L567.69,457.64L566.35,453.98L575.00,446.36L582.18,448.87L586.52,447.28L592.44,455.30L604.18,453.43L603.00,450.86L589.64,442.97L595.43,438.98L601.00,440.51L604.32,446.16L608.86,443.24L613.45,444.26L613.84,450.37L617.31,444.20L622.40,444.88L623.19,453.15L626.90,451.80L625.49,455.93L620.00,454.12L615.11,455.66L620.04,456.28L619.90,458.24L616.05,457.04L607.63,458.87L607.24,452.58L600.50,459.12L573.79,464.84ZM589.48,441.67L585.56,446.78L584.12,445.96L584.41,441.65ZM624.07,440.26L625.38,441.73L623.56,443.56L622.32,441.43Z"
      fill="none"
      stroke="url(#outlineGradient)"
      stroke-width="0.6"
      stroke-linejoin="round"
      stroke-linecap="round"
      opacity="0.30"
    />
    <path
      class="province-path"
      data-prov="15"
      data-name="Jambi"
      d="M193.51,261.00L197.57,258.60L204.86,259.46L213.69,264.67L222.97,255.44L231.69,256.55L233.89,254.87L243.06,261.91L256.79,262.03L260.10,278.24L257.96,277.28L237.51,283.08L235.37,285.53L236.94,287.59L234.21,295.52L228.63,289.93L228.15,294.54L219.28,294.87L217.32,300.38L212.41,303.48L204.69,302.14L199.51,305.74L194.4,304.79L189.86,299.85L186.48,300.81L186.82,297.74L180.26,293.75L176.31,278.64L184.85,278.46L189.92,274L190.41,268.40L195.01,264.89Z"
      fill="none"
      stroke="url(#outlineGradient)"
      stroke-width="0.6"
      stroke-linejoin="round"
      stroke-linecap="round"
      opacity="0.30"
    />
    <path
      class="province-path"
      data-prov="51"
      data-name="Bali"
      d="M520.60,448.88L512.14,447.08L508.43,439.35L519.00,441.92L527.03,438.51L540.18,446.49L529.18,453.46L526.70,458.38L524.62,458.06L526.55,454.73ZM534.54,456.14L536.50,453.92L538.13,456.39Z"
      fill="none"
      stroke="url(#outlineGradient)"
      stroke-width="0.6"
      stroke-linejoin="round"
      stroke-linecap="round"
      opacity="0.30"
    />
    <path
      class="province-path"
      data-prov="35"
      data-name="Jawa Timur"
      d="M420.09,442.29L421.43,438.51L425.37,438.55L426.44,435.00L430.01,433.86L427.14,429.17L426.34,418.33L433.90,421.13L433.95,418.25L437.87,415.26L437.00,409.70L439.85,405.6L446.58,405.76L450.63,409.33L461.44,407.93L464.03,417.01L468.68,418.97L469.74,427.28L476.27,430.39L491.26,430.3L498.64,427.11L500.00,429.46L508.79,432.01L506.27,450.32L512.34,455.90L506.09,455.70L506.80,454.06L503.69,452.09L496.51,452.52L478.45,444.15L463.81,448.25L442.44,443.4L439.64,446.41L433.24,443.48ZM462.39,382.99L462.91,380.36L465.68,380.06L465.49,382.71ZM479.99,448.20L482.75,449.06L479.23,449.50ZM464.82,415.67L464.59,412.59L468.97,409.10L495.17,408.35L500.57,411.24L494.78,413.32L494.64,415.15L487.66,414.95L485.32,418.16ZM531.26,410.32L532.53,411.48L527.50,410.19L528.53,407.46L536.70,410.33ZM542.17,414.69L544.95,414.99L544.75,416.62L541.30,416.11Z"
      fill="none"
      stroke="url(#outlineGradient)"
      stroke-width="0.6"
      stroke-linejoin="round"
      stroke-linecap="round"
      opacity="0.30"
    />
    <path
      class="province-path"
      data-prov="92"
      data-name="Papua Barat Daya"
      d="M891.63,266.74L890.25,266.34L896.34,265.82ZM892.65,282.27L905.59,278.29L907.96,282.21L905.72,284.52L907.88,286.10L900.36,287.92L890.17,284.05ZM912.22,248.71L908.59,249.57L909.50,247.55L914.29,247.78ZM914.15,258.83L907.86,258.40L908.98,256.31L919.78,256.15ZM915.66,267.48L913.04,260.43L922.65,259.38L923.89,262.39L921.64,269.98L918.27,270.14ZM902.71,241.63L906.56,242.35L908.03,241.35L903.93,239.40L916.74,236.75L925.18,238.36L930.36,243.77L928.03,246.08L924.44,244.29L921.52,245.53L912.80,238.93L915.50,243.88L920.11,244.84L915.63,247.66L914.24,244.09L911.42,244.53L911.11,246.68L909.81,242.63L905.31,243.22ZM940.36,272.92L940.15,274.27L938.39,275.19L936.51,273.65L939.72,272.25ZM983.92,255.09L982.59,266.01L978.09,266.13L972.34,270.34L969.68,268.72L965.21,282.76L962.56,284.27L964.15,288.30L961.77,291.50L954.73,293.62L947.82,288.31L949.02,287.29L946.18,285.85L944.87,281.88L947.50,279.40L944.77,279.54L943.17,275.78L939.66,276.03L940.47,273.91L940.48,273.08L940.32,272.61L939.78,272.18L932.98,274.22L930.72,269.53L928.90,274.15L920.50,272.6L928.08,263.63L927.75,257.33L942.94,254.26L950.83,247.44L957.32,245.20L970.65,247.93Z"
      fill="none"
      stroke="url(#outlineGradient)"
      stroke-width="0.6"
      stroke-linejoin="round"
      stroke-linecap="round"
      opacity="0.30"
    />
    <path
      class="province-path"
      data-prov="12"
      data-name="Sumatera Utara"
      d="M85.91,213.99L74.57,201.49L80.15,201.01L81.84,198.11L85.29,199.81L90.28,207.14L96.06,211.01L95.18,221.44L90.81,222.59ZM107.04,250.24L109.06,242.73L110.69,250.16ZM106.69,237.59L107.57,236.41L109.81,238.96L111.42,245.39ZM113.07,234.27L111.17,233.06L119.38,233.70ZM104.38,129.41L102.38,133.85L111.57,136.36L115.69,142.36L141.93,157.47L147.79,163.17L147.61,167.72L153.49,169.06L156.02,172.98L157.29,181.06L154.99,191.35L157.73,192.66L158.83,198.64L149.32,202.15L152.13,207.39L151.03,216.09L152.51,217.57L143.91,214.37L143.76,219.22L147.1,222.97L145.70,224.81L135.82,223.15L127.20,230.90L124.48,218.08L116.28,198.42L118.72,194.81L101.24,182.43L102.97,178.84L100.09,173.71L100.78,167.25L96.79,164.30L97.61,158.77L95.84,155.38L98.79,153.40L93.08,143.60L95.57,138.93L100.12,137.82L99.86,130.40Z"
      fill="none"
      stroke="url(#outlineGradient)"
      stroke-width="0.6"
      stroke-linejoin="round"
      stroke-linecap="round"
      opacity="0.30"
    />
    <path
      class="province-path"
      data-prov="74"
      data-name="Sulawesi Tenggara"
      d="M693.25,369.97L693.22,364.28L696.14,363.09L698.73,366.71L698.35,372.96L695.86,373.71ZM672.48,308.19L674.28,305.86L681.97,311.89L688.96,309.04L703.70,314.04L704.95,318.35L706.69,322.74L704.19,320.63L704.15,325.36L702.07,326.72L708.27,330.29L710.32,333.91L713.81,333.96L710.63,335.73L713.63,336.71L714.14,340.51L718.52,338.30L719.45,346.51L717.69,347.64L714.01,344.71L715.68,349.30L711.89,346.46L702.67,348.53L698.85,351.22L699.51,357.18L697.76,358.89L689.31,357.84L683.97,353.36L687.43,338.19L680.84,336.22L669.24,324.75L668.84,322.42L673.62,316.14L674.46,309.59ZM705.46,371.50L703.84,369.77L706.72,363.78L705.13,357.35L714.61,351.97L716.31,359.04L711.88,365.59L713.17,370.50L710.18,372.56L710.28,368.51L708.75,371.68L706.78,369.62ZM711.50,375.02L713.56,369.69L717.44,367.12L715.85,367.02L715.97,362.38L718.85,349.70L724.15,345.73L727.47,358.04L725.61,354.63L722.85,355.66L720.18,365.95L723.22,365.12L727.59,369.12L718.95,372.98L719.55,375.73L716.78,379.19L714.71,377.38L713.08,379.01ZM736.96,371.25L735.46,367.79L738.25,369.00ZM724.36,356.48L724.99,357.75L723.13,357.39ZM720.68,339.12L722.47,335.99L728.61,338.86L725.16,343.07ZM745.51,381.09L744.73,379.63L747.02,380.89Z"
      fill="none"
      stroke="url(#outlineGradient)"
      stroke-width="0.6"
      stroke-linejoin="round"
      stroke-linecap="round"
      opacity="0.30"
    />
    <path
      class="province-path"
      data-prov="53"
      data-name="Nusa Tenggara Timur"
      d="M633.86,447.93L636.57,449.72L633.21,455.88L631.89,452.71ZM638.34,452.36L639.08,454.28L642.11,452.47L639.66,457.38L637.38,455.99ZM630.57,481.50L622.95,479.27L620.48,476.12L621.42,474.39L629.83,471.24L642.43,472.17L645.64,469.19L649.21,473.94L652.51,474.61L653.38,478.23L658.74,477.78L662.15,480.70L668.19,489.97L658.60,495.46L651.44,493.53L639.05,481.96ZM686.77,503.67L685.2,503.59L687.95,502.68ZM647.49,457.59L644.50,458.63L642.30,456.22L644.18,448.52L647.82,446.60L650.09,448.02L652.28,444.66L657.95,443.04L671.66,445.71L685.12,452.50L687.65,448.88L697.23,448.32L704.58,453.17L709.14,452.20L709.45,448.90L719.49,443.96L719.68,441.48L715.45,442.42L718.80,438.56L722.59,444.04L719.40,448.22L716.76,447.83L717.64,452.01L706.6,455.94L700.08,455.36L691.55,459.24L681.93,456.86L680.77,459.80L672.98,461.10L668.17,457.89L666.09,459.49L662.21,457.55ZM691.08,503.07L689.33,502.10L693.50,498.72L697.19,498.77L696.85,501.49ZM717.98,511.13L717.41,507.36L729.9,502.56L727.48,502.22L732.26,499.06L732.17,504.94L727.72,508.50ZM720.77,451.67L718.92,451.70L721.56,447.96L726.24,447.83ZM722.12,447.21L725.72,442.98L730.49,443.63L729.51,446.75ZM730.94,495.28L729.66,494.39L733.42,490.41L734.70,492.15L732.07,492.68L732.21,496.11ZM735.02,496.14L733.52,496.37L734.36,493.20L741.40,488.61L736.79,488.39L736.59,486.08L742.00,474.62L749.07,470.48L749.58,472.55L752.53,471.45L755.97,474.48L759.05,466.64L770.25,461.35L771.67,463.88L774.99,461.43L776.60,462.74L776.45,466.59L771.65,467.04L774.23,473.91L771.66,478.26L759.04,490.60L750.60,491.61L741.85,496.54ZM729.38,450.80L727.45,449.84L733.74,445.70L731.86,443.51L736.08,443.04L734.64,445.82L736.31,446.17L737.30,442.55L739.28,443.49L741.92,441.30L745.21,443.11L737.60,447.23L736.10,451.14ZM749.66,450.69L747.96,447.57L744.97,447.97L746.21,445.78L748.58,444.35L749.40,446.40L755.17,441.61L754.64,445.29ZM758.86,447.92L755.54,447.56L760.64,442.96L757.29,443.79L758.90,440.29L762.05,440.07L762.32,441.94L774.21,440.63L775.43,442.47L775.16,445.49Z"
      fill="none"
      stroke="url(#outlineGradient)"
      stroke-width="0.6"
      stroke-linejoin="round"
      stroke-linecap="round"
      opacity="0.30"
    />
    <path
      class="province-path"
      data-prov="63"
      data-name="Kalimantan Selatan"
      d="M506.27,323.12L512.4,306.92L516.51,304.53L520.82,297.57L529.84,291.94L532.83,286.86L533.45,285.10L530.14,282.75L532.20,274.56L541.38,269.37L537.89,273.75L540.62,281.46L539.79,287.55L542.60,288.07L543.3,296.28L551.46,294.19L561.27,296.75L560.16,300.57L555.31,299.8L557.62,301.28L554.14,311.59L551.14,309.91L550.91,307.33L549.62,311.22L554.07,314.29L548.18,320.63L546.56,326.78L513.51,340.91L512.83,327.75ZM549.90,338.05L547.47,327.48L550.25,319.23L553.83,316.77L555.14,334.41ZM557.47,326.41L556.46,327.83L555.23,325.31L557.61,320.54Z"
      fill="none"
      stroke="url(#outlineGradient)"
      stroke-width="0.6"
      stroke-linejoin="round"
      stroke-linecap="round"
      opacity="0.30"
    />
    <path
      class="province-path"
      data-prov="11"
      data-name="Aceh"
      d="M31.29,92.24L28.58,88.87L31.86,89.39ZM43.24,170.78L40.45,167.32L42.81,163.52L50.43,167.96L50.83,170.77L59.45,174.77L60.56,177.6L56.73,178.13L50.13,172.50ZM77.54,180.81L80.61,181.31L81.61,185.28L75.91,181.28ZM104.38,129.41L99.86,130.40L100.12,137.82L95.57,138.93L93.08,143.60L98.79,153.40L95.84,155.38L97.61,158.77L96.79,164.30L100.78,167.25L100.09,173.71L102.97,178.84L101.24,182.43L96.87,179.92L92.72,180.88L89.77,176.89L87.87,164.66L82.19,161.78L70.09,144.74L60.67,143.01L36.66,120.23L28.62,104.52L28,98.41L33.96,95.16L38.41,95.88L45.35,99.03L50.18,104.30L57.94,106.37L69.58,104.72L78.16,108.05L85.50,105.37L95.66,114.35L97.71,123.30L105.23,126.21Z"
      fill="none"
      stroke="url(#outlineGradient)"
      stroke-width="0.6"
      stroke-linejoin="round"
      stroke-linecap="round"
      opacity="0.30"
    />
    <path
      class="province-path"
      data-prov="62"
      data-name="Kalimantan Tengah"
      d="M415.93,311.44L426.93,303.72L425.47,294.72L423.21,292.18L425.12,286.25L421.71,284.28L423.14,279.38L419.76,276.55L427.58,273.42L436.30,266.74L438.60,260.76L449.63,254.1L451.93,254.71L452.94,251.90L455.31,254.61L461.59,253.95L475.79,247.89L477.96,249.24L478.02,244.93L483.58,238.20L479.69,230.38L486.33,228.28L493.53,220.18L500.55,219.24L502.55,223.12L506.57,223.36L513.92,219.16L522.08,218.33L525.55,227.36L520.01,228.67L515.18,234.75L519.76,237.25L521.97,243.48L526.59,238.78L530.16,238.61L528.27,245.67L529.69,250.47L531.95,250.88L529.64,256.45L531.84,258.45L536.28,258.06L541.58,265.00L543.46,263.97L541.38,269.37L532.20,274.56L530.14,282.75L533.45,285.10L532.83,286.86L529.84,291.94L520.82,297.57L516.51,304.53L512.4,306.92L506.27,323.12L498.66,319.51L488.19,323.15L487.48,315.67L480.92,318.39L473.69,310.88L471.15,314.08L472.75,315.53L461.61,322.70L453.95,319.37L443.58,325.00L441.86,324.26L443.18,312.79L440.51,307.7L436.44,311.80L432.88,309.11L422.03,313.18Z"
      fill="none"
      stroke="url(#outlineGradient)"
      stroke-width="0.6"
      stroke-linejoin="round"
      stroke-linecap="round"
      opacity="0.30"
    />
    <path
      class="province-path"
      data-prov="91"
      data-name="Papua Pegunungan"
      d="M1094.72,351.38L1092.43,349.17L1095.88,342.09L1093.54,343.47L1092.88,341.68L1089.96,342.01L1090.02,339.56L1094.75,341.30L1096.64,333.96L1105.44,332.17L1103.08,330.89L1103.28,327.22L1098.49,326.19L1098.59,317.55L1099.92,311.33L1102.71,312.75L1105.53,310.10L1109.70,309.96L1111.45,310.56L1111.19,317.10L1113.14,319.27L1115.22,315.96L1119.31,317.92L1118.39,322.10L1123.21,318.43L1125.08,322.17L1133.39,323.01L1136.44,329.59L1140.45,324.29L1146.57,329.06L1153.28,328.28L1154.55,330.12L1163.71,331.36L1164.07,333.69L1167.14,333.24L1165.93,335.54L1160.07,335.70L1160.08,332.24L1156.84,331.08L1157.20,334.81L1161.17,339.39L1163.86,337.72L1163.03,336.17L1171.53,337.02L1171.52,370.21L1156.21,366.90L1152.42,362.76L1148.03,362.82L1149.54,365.37L1147.68,366.06L1146.12,363.88L1145.12,367.13L1142.05,365.71L1144.51,366.72L1146.22,363.02L1123.51,361.23L1125.68,355.11L1122.85,357.72L1117.94,354.10L1111.33,354.03L1110.87,356.40L1106.61,356.86L1104.74,353.25L1101.42,354.40L1098.83,350.72Z"
      fill="none"
      stroke="url(#outlineGradient)"
      stroke-width="0.6"
      stroke-linejoin="round"
      stroke-linecap="round"
      opacity="0.30"
    />
    <path
      class="province-path"
      data-prov="19"
      data-name="Kepulauan Bangka Belitung"
      d="M282.76,289.70L280.32,290.39L275.52,287.11L282.47,281.57L282.64,276.71L287.91,274.79L290.70,277.90L289.16,280.18L293.00,281.88L290.79,275.10L294.98,274.09L298.96,276.57L305.25,297.05L318.75,300.83L315.46,302.6L312.51,309.51L316.20,311.65L316.15,313.69L310.60,314.36L308.50,310.89L296.51,306.99L296.13,298.54L292.86,295.71L292.40,290.69L286.27,288.52ZM318.90,309.49L319.81,312.26L315.69,310.77ZM333.38,309.76L332.23,307.75L334.43,307.09ZM339.37,316.87L337.59,317.14L337.71,309.84L335.94,309.55L339.17,300.52L347.43,300.84L354.44,305.30L355.04,308.49L349.62,317.68L347.33,318.31L343.76,313.11L343.62,315.45Z"
      fill="none"
      stroke="url(#outlineGradient)"
      stroke-width="0.6"
      stroke-linejoin="round"
      stroke-linecap="round"
      opacity="0.30"
    />
    <path
      class="province-path"
      data-prov="16"
      data-name="Sumatera Selatan"
      d="M199.51,305.74L204.69,302.14L212.41,303.48L217.32,300.38L219.28,294.87L228.15,294.54L228.63,289.93L234.21,295.52L236.94,287.59L235.37,285.53L237.51,283.08L257.96,277.28L260.10,278.24L260.96,279.34L259.62,283.16L260.43,285.75L262.26,286.67L263.10,286.68L264.22,285.65L268.50,286.63L270.28,289.15L265.35,295.56L270.35,293.51L273.94,295.94L288.31,296.31L288.05,301.47L292.33,303.77L293.16,309.55L298.95,311.40L300.18,317.48L295.69,321.13L293.32,327.47L296.79,332.14L293.31,340.47L289.08,338.71L285.81,332.51L280.76,329.84L273.35,340.69L257.44,345.23L255.19,352.99L256.21,358.37L244.44,359.51L242.61,356.04L239.78,354.5L238.34,349.84L234.95,350.97L233.03,349.07L233.92,344.80L224.57,342.96L220.85,338.87L222.78,337.00L213.65,331.77L217.15,329.23L218.14,324.77L220.56,326.94L222.75,324.65L222.59,320.74L210.25,318.23L209.67,313.70L204.60,312.59ZM261.73,282.92L263.8,284.46L262.93,286.55L260.35,285.20Z"
      fill="none"
      stroke="url(#outlineGradient)"
      stroke-width="0.6"
      stroke-linejoin="round"
      stroke-linecap="round"
      opacity="0.30"
    />
    <path
      class="province-path"
      data-prov="36"
      data-name="Banten"
      d="M279.34,399.76L277.06,403.30L275.82,401.48ZM315.87,388.90L314.92,390.98L317.24,394.60L308.42,395.39L308.48,403.74L310.90,405.94L307.68,411.24L297.59,407.11L286.25,408.62L279.48,407.86L278.56,405.65L282.18,403.10L284.49,407.46L289.03,398.74L292.08,399.63L294.80,388.58L298.25,383.92L302.00,387.35L306.52,385.76L309.9,387.86L314.72,386.98Z"
      fill="none"
      stroke="url(#outlineGradient)"
      stroke-width="0.6"
      stroke-linejoin="round"
      stroke-linecap="round"
      opacity="0.30"
    />
    <path
      class="province-path"
      data-prov="71"
      data-name="Sulawesi Utara"
      d="M733.98,228.60L735.46,222.24L728.98,219.17L728.92,216.56L725.19,213.51L745.50,215.74L754.53,211.39L756.69,207.14L761.51,206.94L760.40,202.83L767.48,200.19L767.25,197.25L771.59,192.95L776.21,194.45L777.81,200.07L774.02,202.49L769.21,212.35L763.10,216.81L759.90,224.76ZM781.40,169.81L782.87,166.53L782.86,170.43ZM784.52,149.98L782.74,143.31L785.98,145.03L788.96,151.01L787.22,152.38ZM816.57,142.92L815.85,140.32L818.29,142.83ZM814.31,136.70L816.79,131.27L814.04,128.29L815.47,123.06L818.42,124.56L819.79,129.89L816.78,136.23Z"
      fill="none"
      stroke="url(#outlineGradient)"
      stroke-width="0.6"
      stroke-linejoin="round"
      stroke-linecap="round"
      opacity="0.30"
    />
    <path
      class="province-path"
      data-prov="65"
      data-name="Kalimantan Utara"
      d="M511.59,200.99L515.08,195.72L515.11,191.14L519.48,188.65L515.98,181.88L528.66,173.93L524.64,171.26L526.28,166.85L524.88,165.97L529.54,160.49L532.27,162.18L536.47,157.88L536.00,152.73L538.84,150.70L536.58,138.66L544.34,126.86L549.22,129.74L551.82,127.13L556.09,126.89L558.40,129.44L561.49,126.87L572.89,128.68L578.55,127.30L584.05,132.32L587.18,132.35L585.26,134.18L582.76,133.16L583.79,138.42L589.97,140.19L591.93,142.79L589.51,142.50L592.62,144.11L589.06,146.28L584.50,143.75L583.07,146.05L572.78,146.78L578.01,146.58L577.80,149.35L585.42,154.16L580.40,157.61L583.46,157.63L583.24,160.38L588.03,160.39L586.76,162.14L589.61,162.71L589.61,167.04L597.04,175.79L591.02,178.50L587.67,173.67L582.06,172.68L578.10,174.68L577.73,172.55L573.58,172.97L571.92,175.84L567.25,173.93L565.24,176.88L559.98,175.30L559.32,179.37L554.64,180.78L556.08,182.61L552.90,184.35L551.44,193.05L548.44,197.74L541.53,205.17L534.61,205.33L531.95,208.69L524.92,206.66L519.99,201.17L515.51,203.81ZM578.67,146.98L585.30,149.63L578.13,149.25ZM586.98,154.34L586.07,150.62L588.99,151.29L588.55,155.65ZM585.80,136.00L589.39,139.47L583.89,138.41L583.44,136.52ZM591.02,135.52L589.07,137.50L587.08,134.66L589.07,133.06ZM595.46,135.14L589.43,132.49L594.86,132.49Z"
      fill="none"
      stroke="url(#outlineGradient)"
      stroke-width="0.6"
      stroke-linejoin="round"
      stroke-linecap="round"
      opacity="0.30"
    />
    <path
      class="province-path"
      data-prov="64"
      data-name="Kalimantan Timur"
      d="M493.53,220.18L495.64,215.59L494.72,210.45L500.67,207.72L502.61,201.39L507.14,198.68L511.59,200.99L515.51,203.81L519.99,201.17L524.92,206.66L531.95,208.69L534.61,205.33L541.53,205.17L548.44,197.74L551.44,193.05L552.90,184.35L556.08,182.61L554.64,180.78L559.32,179.37L559.98,175.30L565.24,176.88L567.25,173.93L571.92,175.84L573.58,172.97L577.73,172.55L578.10,174.68L582.06,172.68L587.67,173.67L591.02,178.50L597.04,175.79L599.79,179.55L597.85,181.72L589.59,182.14L589.89,185.76L592.89,186.39L595.11,191.13L621.96,212.00L617.18,216.59L606.51,216.47L598.95,214.04L594.70,208.56L597.96,217.19L595.22,215.72L591.14,217.72L586.33,226.17L585.29,237.38L582.85,241.92L583.68,248.14L579.26,251.00L578.58,259.25L569.48,268.47L567.66,268.60L565.44,262.54L566.43,270.61L561.28,272.75L561.33,276.59L553.55,281.02L558.65,280.87L558.83,288.09L556.40,289.30L557.40,291.89L562.07,290.84L561.27,296.75L551.46,294.19L543.3,296.28L542.60,288.07L539.79,287.55L540.62,281.46L537.89,273.75L541.38,269.37L543.46,263.97L541.58,265.00L536.28,258.06L531.84,258.45L529.64,256.45L531.95,250.88L529.69,250.47L528.27,245.67L530.16,238.61L526.59,238.78L521.97,243.48L519.76,237.25L515.18,234.75L520.01,228.67L525.55,227.36L522.08,218.33L513.92,219.16L506.57,223.36L502.55,223.12L500.55,219.24ZM581.74,254.52L583.24,258.33L579.87,252.3ZM582.77,252.16L584.23,253.21L579.50,251.15ZM585.04,247.70L584.00,248.63L585.78,246.42ZM584.85,247.34L583.99,248.61L585.30,245.34ZM584.97,250.24L587.00,249.64L586.16,251.52ZM592.45,182.84L590.63,184.44L590.58,182.46ZM594.59,182.79L596.03,183.80L592.39,182.06Z"
      fill="none"
      stroke="url(#outlineGradient)"
      stroke-width="0.6"
      stroke-linejoin="round"
      stroke-linecap="round"
      opacity="0.30"
    />
    <path
      class="province-path"
      data-prov="33"
      data-name="Jawa Tengah"
      d="M369.40,429.49L373.91,431.29L367.48,429.26ZM367.70,428.72L364.58,420.78L361.59,419.00L361.73,416.09L366.84,414.64L368.44,406.37L374.32,405.71L375.12,407.71L380.24,408.57L385.31,406.51L396.98,409.87L402.08,407.95L405.67,410.95L409.00,410.63L415.45,398.15L420.13,396.81L423.73,397.37L426.44,403.17L432.12,404.28L434.88,402.24L439.85,405.6L437.00,409.70L437.87,415.26L433.95,418.25L433.90,421.13L426.34,418.33L427.14,429.17L430.01,433.86L426.44,435.00L425.37,438.55L421.43,438.51L420.09,442.29L418.47,442.08L416.49,437.58L417.24,432.34L409.90,431.08L408.74,425.4L404.46,429.41L400.51,428.74L397.71,434.14L379.94,429.43L372.67,430.50Z"
      fill="none"
      stroke="url(#outlineGradient)"
      stroke-width="0.6"
      stroke-linejoin="round"
      stroke-linecap="round"
      opacity="0.30"
    />
    <path
      class="province-path"
      data-prov="82"
      data-name="Maluku Utara"
      d="M798.88,297.37L796.83,297.55L794.07,291.84L794.72,285.94L796.85,287.23L796.12,291.11ZM789.53,284.76L782.63,285.30L780.36,282.19L805.10,282.56ZM758.02,287.17L755.54,283.80L757.13,278.05L763.89,277.64L773.78,280.86L775.48,278.71L776.62,281.14L778.11,279.67L780.10,281.14L779.76,283.85L768.64,283.83ZM828.11,255.70L826.12,255.27L827.55,251.66L830.36,256.23ZM827.70,249.37L824.97,248.77L825.70,243.04L829.22,243.89ZM830.79,272.38L829.04,271.93L831.52,270.79ZM830.69,228.76L832.94,227.88L832.35,229.61ZM830.07,217.76L830.12,214.95L831.78,216.86ZM834.51,268.29L834.74,266.02L839.39,267.28L838.73,268.85ZM830.73,250.44L830.25,245.32L833.42,246.99L836.21,244.47L839.25,248.22L836.95,251.99L844.52,255.82L841.05,258.22L837.72,255.09L833.86,257.15L834.01,252.32ZM833.62,278.92L831.94,277.21L832.83,272.48L838.03,269.82L851.16,277.48L847.49,279.69ZM832.65,210.53L832.21,205.78L836.32,192.75L846.41,181.49L848.57,182.38L843.02,190.42L847.24,193.20L847.21,203.84L844.55,207.88L838.26,211.08L838.66,214.77L844.06,215.89L846.67,209.37L851.84,207.52L849.13,205.11L851.13,202.49L858.75,197.86L865.01,197.34L864.07,209.94L851.92,216.88L854.94,220.23L863.90,222.86L863.90,228.19L868.66,230.61L848.97,224.70L844.89,225.25L843.78,228.85L844.22,236.68L848.20,247.02L857.47,259.05L847.27,253.54L843.59,245.76L839.17,243.34L840.34,228.84L835.17,222.80L837.92,216.26ZM851.89,179.68L861.12,170.54L864.13,174.12L859.98,184.98L854.47,185.76Z"
      fill="none"
      stroke="url(#outlineGradient)"
      stroke-width="0.6"
      stroke-linejoin="round"
      stroke-linecap="round"
      opacity="0.30"
    />
    <path
      class="province-path"
      data-prov="61"
      data-name="Kalimantan Barat"
      d="M371.45,275.69L371.6,277.53L368.43,278.18L367.65,275.84ZM375.90,241.66L377.48,242.06L374.74,243.34L375.00,244.87L374.06,242.28ZM377.14,239.59L377.06,241.45L376.76,238.13ZM381.81,258.51L382.79,259.88L380.24,259.12ZM378.68,257.07L378.87,253.11L386.59,255.28L391.23,259.10L389.72,261.91L386.57,258.77L383.36,257.98L380.15,259.08ZM389.73,266.74L385.23,269.25L382.14,267.94L384.83,260.91L386.45,261.65L388.58,261.24L389.78,262.04L390.58,261.30L391.53,261.94L392.13,265.18ZM502.61,201.39L500.67,207.72L494.72,210.45L495.64,215.59L493.53,220.18L486.33,228.28L479.69,230.38L483.58,238.20L478.02,244.93L477.96,249.24L475.79,247.89L461.59,253.95L455.31,254.61L452.94,251.90L451.93,254.71L449.63,254.1L438.60,260.76L436.30,266.74L427.58,273.42L419.76,276.55L423.14,279.38L421.71,284.28L425.12,286.25L423.21,292.18L425.47,294.72L426.93,303.72L415.93,311.44L413.27,312.25L411.69,307.50L404.05,310.42L399.78,292.58L400.21,286.31L395.17,282.31L398.45,278.13L398.82,269.62L395.3,266.66L396.12,264.65L390.94,261.25L391.58,259.17L388.52,256.46L389.33,253.67L375.51,249.19L374.9,243.43L377.50,242.15L377.51,235.08L374.82,230.33L370.50,228.12L370.88,221.02L368.68,216.26L371.92,213.09L370.24,207.57L372.13,207.02L373.70,199.52L378.94,195.16L381.09,188.08L388.27,185.04L386.14,188.50L387.30,191.86L389.77,192.10L389.19,196.22L393.57,201.10L396.71,201.58L399.25,206.42L402.44,207.07L404.52,211.72L411.44,215.14L428.37,209.48L434.79,210.75L435.59,212.67L439.25,210.56L443.01,211.97L445.94,208.58L451.12,208.26L452.85,200.41L459.68,197.16L473.37,197.49L472.04,201.44L485.94,203.58L488.31,206.16L496.85,200.40Z"
      fill="none"
      stroke="url(#outlineGradient)"
      stroke-width="0.6"
      stroke-linejoin="round"
      stroke-linecap="round"
      opacity="0.30"
    />
    <path
      class="province-path"
      data-prov="32"
      data-name="Jawa Barat"
      d="M307.68,411.24L310.90,405.94L308.48,403.74L308.42,395.39L317.24,394.60L320.68,395.45L321.99,388.93L322.93,384.66L331.36,385.95L334.55,390.39L339.68,392.61L345.16,391.37L350.13,394.91L352.96,392.57L356.73,393.21L361.06,398.73L362.62,405.70L368.44,406.37L366.84,414.64L361.73,416.09L361.59,419.00L364.58,420.78L367.70,428.72L360.60,429.37L360.07,431.75L356.31,432.38L343.88,430.33L333.78,424.54L310.84,422.04L307.02,418.82L311.30,411.37Z"
      fill="none"
      stroke="url(#outlineGradient)"
      stroke-width="0.6"
      stroke-linejoin="round"
      stroke-linecap="round"
      opacity="0.30"
    />
  </g>

  <!-- Layer 2: Siluet garis tepi utama (merged — tanpa batas antar-provinsi) -->
  <path
    id="indonesia-outline"
    class="indonesia-shape"
    d="M733.98,228.60L728.83,228.55L723.72,223.98L707.11,223.63L692.51,226.12L685.30,222.89L680.63,224.77L674.24,226.67L663.40,223.58L656.58,225.08L650.64,231.80L648.07,238.52L649.37,253.8L655.01,260.72L657.54,259.68L659.92,261.49L664.14,271.93L667.80,270.40L674.70,272.50L680.61,263.19L688.05,256.75L690.18,260.39L695.86,261.48L699.72,260.62L702.24,256.28L721.17,255.43L715.77,253.50L723.60,250.68L728.72,251.07L733.10,254.51L730.93,262.42L728.57,262.45L724.73,257.49L717.26,260.09L706.92,273.93L693.35,278.99L689.11,285.19L679.82,281.38L680.70,286.18L682.56,284.35L685.99,290.73L692.83,293.88L697.46,304.52L705.20,309.54L703.47,312.20L709.33,316.02L704.95,318.35L706.69,322.74L704.19,320.63L704.15,325.36L702.07,326.72L708.27,330.29L710.32,333.91L713.81,333.96L710.63,335.73L713.63,336.71L714.14,340.51L718.52,338.30L719.45,346.51L717.69,347.64L714.01,344.71L715.68,349.30L711.89,346.46L702.67,348.53L698.85,351.22L699.51,357.18L697.76,358.89L689.31,357.84L683.97,353.36L687.43,338.19L680.84,336.22L669.24,324.75L668.84,322.42L673.62,316.14L674.46,309.59L672.48,308.19L674.23,304.02L665.98,302.09L652.00,310.91L653.66,315.56L657.76,318.14L658.22,330.19L655.70,338.84L655.94,347.18L658.53,352.99L654.91,358.27L654.03,365.14L658.84,376.82L655.05,374.29L650.51,376.32L645.51,375.29L639.88,379.20L632.74,375.62L631.14,369.74L635.39,359.68L634.33,355.35L638.17,344.48L638.10,335.71L633.60,329.36L634.13,324.07L630.03,322.17L622.13,325.61L619.97,324.66L616.76,313.56L619.33,308.55L616.56,308.20L616.24,306.15L617.89,302.08L620.40,303.02L625.74,298.43L627.60,286.47L631.35,283.05L629.33,278.76L629.87,268.39L636.31,257.81L640.37,253.11L644.22,258.17L641.24,248.83L642.52,240.00L639.11,239.56L637.40,236.88L643.31,239.04L644.23,234.71L641.85,230.94L644.75,231.18L644.35,225.12L648.39,223.8L648.27,218.82L653.03,216.81L654.38,211.98L657.22,216.85L662.02,217.71L663.13,213.15L667.45,210.93L667.43,203.51L669.81,202.75L678.60,205.89L683.82,204.00L682.71,206.99L685.97,210.01L702.07,210.67L708.49,210.85L717.91,216.14L720.65,212.68L725.19,213.51L745.50,215.74L754.53,211.39L756.69,207.14L761.51,206.94L760.40,202.83L767.48,200.19L767.25,197.25L771.59,192.95L776.21,194.45L777.81,200.07L774.02,202.49L769.21,212.35L763.10,216.81L759.90,224.76ZM688.93,250.94L691.09,247.24L695.06,247.62L694.33,250.07L690.59,248.98ZM696.58,247.15L693.67,246.04L698.66,245.28ZM706.76,245.72L702.89,241.93L706.75,243.67ZM725.22,326.82L723.23,326.38L726.14,325.51ZM719.20,276.56L716.84,272.74L719.94,266.07L726.86,265.31L728.32,271.30L731.25,267.24L736.01,268.49L733.56,274.49L728.56,272.61L728.20,277.76L724.63,276.57L726.76,274.4L725.58,269.02ZM734.35,279.21L735.73,273.74L737.44,279.01ZM670.32,418.91L673.82,419.36L667.11,418.62ZM666.56,414.75L663.11,415.03L662.73,411.92ZM658.26,391.50L659.67,380.86L661.45,388.06L659.27,398.94ZM674.72,421.78L674.28,419.43L676.36,420.58ZM983.92,255.09L996.04,254.57L1000.11,258.32L997.05,260.65L1003.63,269.97L998.46,278.42L999.68,290.54L1008.21,308.10L1010.05,297.76L1012.76,299.18L1013.26,305.43L1013.89,310.70L1017.88,308.99L1018.25,317.77L1024.53,321.07L1030.40,321.25L1034.36,320.34L1044.78,310.55L1046.96,304.17L1052.29,301.81L1056.45,292.06L1065.39,292.84L1075.63,288.93L1077.35,287.95L1073.85,282.83L1074.74,280.95L1094.96,273.00L1098.27,276.56L1113.65,281.63L1118.46,285.78L1140.67,295.59L1149.31,294.51L1155.22,298.09L1156.29,296.57L1163.85,298.48L1164.17,302.25L1171.53,301.64L1171.53,337.02L1171.52,370.21L1171.50,394.75L1167.66,403.84L1169.33,408.36L1172,409.07L1171.99,465.38L1168.72,464.29L1145.30,439.52L1130.05,442.15L1126.75,439.41L1119.27,443.55L1117.43,440.06L1118.10,439.23L1119.26,439.17L1119.77,438.52L1119.30,435.26L1121.89,433.44L1124.32,426.13L1113.70,417.57L1114.23,413.66L1110.70,410.10L1120.09,407.89L1120.30,406.69L1117.34,406.28L1117.19,404.16L1107.12,395.32L1103.52,382.67L1098.26,379.73L1097.74,376.42L1099.73,374.93L1093.19,370.35L1089.99,370.89L1088.57,367.03L1044.88,348.88L1026.90,348.19L1018.86,342.85L1012.46,339.48L1014.28,338.26L1013.27,336.12L1020.78,335.23L1013.66,334.52L1009.39,337.63L1005.49,333.89L1005.44,335.65L1003.54,335.22L1004.31,337.76L999.68,334.20L1001.53,332.36L1000.22,330.16L995.36,332.68L992.67,325.51L992.18,329.70L989.04,328.30L987.30,323.45L989.25,321.67L988.38,317.66L993.63,312.71L992.70,309.92L987.99,314.55L987.58,321.93L984.15,320.9L986.71,324.76L981.99,328.8L983.19,333.01L978.08,338.33L969.72,338.62L965.12,328.60L970.25,325.26L967.22,322.63L967.00,318.04L963.41,319.43L958.56,312.29L953.96,309.73L949.01,310.51L946.81,307.20L948.23,306.06L945.61,305.83L952.63,302.88L961.58,303.90L965.04,306.62L977.09,296.83L981.13,299.21L982.07,303.91L987.81,299.85L988.33,302.98L990.97,303.12L991.88,302.69L991.35,298.77L991.98,298.30L992.42,297.66L993.23,298.27L993.55,297.93L994.24,298.56L996.07,298.51L995.47,296.43L995.96,296.19L996.46,296.26L996.42,295.68L995.48,294.65L996.75,292.56L995.45,288.58L987.27,292.31L976.27,291.39L970.80,293.82L962.84,293.69L961.77,291.50L954.73,293.62L947.82,288.31L949.02,287.29L946.18,285.85L944.87,281.88L947.50,279.40L944.77,279.54L943.17,275.78L939.66,276.03L940.47,273.91L940.48,273.08L940.32,272.61L939.78,272.18L932.98,274.22L930.72,269.53L928.90,274.15L920.50,272.6L928.08,263.63L927.75,257.33L942.94,254.26L950.83,247.44L957.32,245.20L970.65,247.93ZM980.24,339.04L985.72,342.54L983.25,342.82ZM990.01,300.44L991.20,301.2L991.66,302.72L991.44,302.94L990.63,302.95L990.57,302.03L989.17,301.85ZM992.56,296.75L993.50,297.91L993.34,298.28L992.34,297.61L991.15,298.57L989.99,297.55ZM995.17,294.72L996.42,295.72L996.37,296.29L995.47,296.39L992.79,295.59ZM999.22,334.43L1001.42,336.79L998.85,336.12ZM1001.16,284.43L1000.43,282.29L1002.73,280.21ZM1006.82,288.09L1005.46,290.70L1005.81,286.59ZM1010.76,296.69L1009.41,296.30L1011.12,294.40ZM104.38,129.41L102.38,133.85L111.57,136.36L115.69,142.36L141.93,157.47L147.79,163.17L147.61,167.72L153.49,169.06L156.02,172.98L157.87,178.65L162.16,182.77L167.04,184.51L167.23,179.67L174.11,179.38L180.52,185.61L182.76,193.82L191.97,195.16L201.63,202.21L203.64,211.75L208.48,216.63L212.12,218.14L220.76,218.79L225.64,226.99L231.01,223.00L240.6,229.11L243.07,236.88L238.21,236.75L234.25,241.19L242.31,245.25L233.40,249.63L233.89,254.87L243.06,261.91L256.79,262.03L260.10,278.24L260.96,279.34L259.62,283.16L260.43,285.75L262.26,286.67L263.10,286.68L264.22,285.65L268.50,286.63L270.28,289.15L265.35,295.56L270.35,293.51L273.94,295.94L288.31,296.31L288.05,301.47L292.33,303.77L293.16,309.55L298.95,311.40L300.18,317.48L295.69,321.13L293.32,327.47L296.79,332.14L293.31,340.47L293.42,345.34L295.59,347.52L295.28,359.65L290.69,384.25L280.06,372.78L276.99,376.77L278.08,380.90L276.53,381.86L265.53,374.66L261.79,374.46L266.05,384.97L262.42,385.23L245.53,367.41L245.60,364.74L237.76,359.63L231.06,356.77L205.54,336.20L203.84,328.62L188.49,317.64L180.94,304.92L173.51,298.49L168.58,290.97L169.67,285.14L163.92,276.74L162.14,269.92L157.99,268.33L156.23,258.04L143.50,244.11L141.25,237.12L132.02,230.90L127.20,230.90L124.48,218.08L116.28,198.42L118.72,194.81L101.24,182.43L96.87,179.92L92.72,180.88L89.77,176.89L87.87,164.66L82.19,161.78L70.09,144.74L60.67,143.01L36.66,120.23L28.62,104.52L28,98.41L33.96,95.16L38.41,95.88L45.35,99.03L50.18,104.30L57.94,106.37L69.58,104.72L78.16,108.05L85.50,105.37L95.66,114.35L97.71,123.30L105.23,126.21ZM212.13,217.44L208.82,215.98L208.17,214.33L216.24,211.07L224.28,217.09L223.38,219.48L219.31,216.78ZM220.24,212.61L216.49,210.66L213.46,211.17L216.31,207.77L220.21,208.51L226.69,215.42ZM210.16,212.22L209.43,209.59L211.31,208.39L213.08,211.51ZM203.53,205.57L203.15,201.61L204.7,201.18L210.02,205.68L208.86,209.86L209.98,212.82L207.72,213.80L204.81,211.50ZM200.87,200.14L197.96,196.76L209.39,198.69L210.61,205.08L205.04,200.82ZM183.45,191.15L183.07,186.14L190.53,184.25L192.55,188.12L190.67,193.04L186.09,194.06ZM228.01,223.62L226.32,222.41L228.02,219.06L230.40,221.69ZM1117.11,440.63L1119.00,446.70L1110.67,445.85L1113.55,441.26ZM1089.59,447.36L1087.64,447.61L1088.22,444.57L1093.29,433.25L1102.12,423.56L1114.98,421.06L1123.58,426.08L1121.42,433.19L1119.01,434.49L1119.34,438.90L1117.53,438.81L1116.64,440.34L1113.68,440.67L1107.56,445.96ZM1112.94,405.36L1116.48,407.57L1113.49,408.45ZM1114.30,402.56L1116.95,404.20L1117.11,406.18L1117.76,406.72L1120.20,406.83L1117.76,407.48L1113.43,404.86ZM315.87,388.90L321.99,388.93L322.93,384.66L331.36,385.95L334.55,390.39L339.68,392.61L345.16,391.37L350.13,394.91L352.96,392.57L356.73,393.21L361.06,398.73L362.62,405.70L368.44,406.37L374.32,405.71L375.12,407.71L380.24,408.57L385.31,406.51L396.98,409.87L402.08,407.95L405.67,410.95L409.00,410.63L415.45,398.15L420.13,396.81L423.73,397.37L426.44,403.17L432.12,404.28L434.88,402.24L439.85,405.6L446.58,405.76L450.63,409.33L461.44,407.93L464.03,417.01L468.68,418.97L469.74,427.28L476.27,430.39L491.26,430.3L498.64,427.11L500.00,429.46L508.79,432.01L506.27,450.32L512.34,455.90L506.09,455.70L506.80,454.06L503.69,452.09L496.51,452.52L478.45,444.15L463.81,448.25L442.44,443.4L439.64,446.41L433.24,443.48L420.09,442.29L418.47,442.08L397.71,434.14L379.94,429.43L372.67,430.50L367.70,428.72L360.60,429.37L360.07,431.75L356.31,432.38L343.88,430.33L333.78,424.54L310.84,422.04L307.02,418.82L311.30,411.37L307.68,411.24L297.59,407.11L286.25,408.62L279.48,407.86L278.56,405.65L282.18,403.10L284.49,407.46L289.03,398.74L292.08,399.63L294.80,388.58L298.25,383.92L302.00,387.35L306.52,385.76L309.9,387.86L314.72,386.98ZM129.91,277.58L129.93,280.20L128.43,277.55L129.08,281.44L126.14,281.75L118.66,276.94L112.95,266.53L115.16,260.55L120.76,259.30ZM151.10,307.42L148.29,307.61L147.28,299.37L153.52,305.27ZM143.31,294.15L144.58,296.26L138.01,293.61L136.94,287.82L140.29,288.45ZM154.40,312.79L152.71,306.30L159.39,311.90L159.64,315.20L157.44,315.75L159.60,320.20ZM850.41,443.88L849.27,442.18L852.49,442.27L852.82,443.81ZM848.24,442.85L842.43,442.00L841.14,439.68L850.11,440.83ZM792.24,437.13L795.73,428.44L801.70,430.08L812.45,425.81L818.08,430.26L810.75,432.51L808.63,436.32L798.82,434.13ZM830.86,428.15L831.13,424.39L833.90,424.75ZM863.66,415.82L862.60,417.16L860.08,415.42L862.22,413.34ZM850.12,330.97L852.78,327.23L846.93,331.06L845.04,328.55L855.43,324.08L855.85,327.25L853.50,326.98L854.43,328.88ZM857.47,327.35L858.19,324.27L861.19,325.66ZM863.54,326.69L861.10,323.98L865.2,324.34L865.28,326.97ZM814.32,333.06L801.57,326.84L797.22,320.48L797.48,315.87L816.74,313.01L824.78,317.41L822.87,318.16L823.78,320.61L828.47,320.87L827.59,328.02ZM837.61,319.21L838.40,320.68L834.17,318.98ZM845.57,311.94L842.94,312.18L846.76,309.63ZM916.72,445.65L920.29,440.13L926.01,439.96ZM886.47,434.24L888.80,431.57L893.59,434.6L890.73,438.34ZM918.33,424.44L921.17,426.02L917.70,425.75ZM844.36,323.77L845.54,320.3L842.97,315.61L849.82,313.12L848.99,310.55L851.64,308.20L873.27,306.43L875.14,310.75L885.04,305.87L897.52,311.51L906.47,311.21L911.88,315.21L913.02,320.92L917.00,321.70L918.88,326.87L917.41,333.28L897.41,323.62L895.12,319.98L885.03,318.98L885.38,323.26L870.31,320.43L871.09,317.18L869.08,316.61L863.78,322.36L858.76,323.01L853.60,316.59L851.51,317.30L851.57,313.15L849.24,314.79L845.98,324.73ZM922.50,429.66L921.05,430.44L924.85,428.01ZM925.19,423.40L921.09,424.11L925.90,421.98ZM930.15,435.79L929.37,437.53L928.98,435.05L924.43,436.86L924.51,429.56L927.63,429.89L925.75,428.69L927.90,423.63L932.93,420.42L935.27,415.37L938.32,414.86L940.51,417.08L937.66,418.16L937.64,427.44ZM933.08,338.17L931.02,335.86L932.41,335.34ZM945.76,415.94L945.59,418.13L939.68,415.66ZM965.33,385.42L962.68,378.31L964.56,376.45L967.15,382.88ZM968.10,386.48L975.63,368.41L974.34,376.60ZM1003.00,409L1001.64,410.07L998.07,406.05L999.66,397.92L1002.15,398.96L999.75,397.33L999.67,390.69L1009.98,401.27ZM1004.12,393.84L999.62,389.19L1000.28,386.98L1002.41,387.06L1002.56,389.84L1005.17,392.35ZM1008.19,393.58L1010.07,395.23L1008.79,397.90L1005.78,395.82ZM1005.27,387.31L1004.09,384.58L1006.63,381.36L1002.04,379.63L1005.33,379.84L1008.05,375.39L1009.92,375.72L1010.13,377.43L1010.38,377.90L1011.05,378.05L1011.05,378.39L1011.59,379.19L1012.19,379.77L1012.66,379.47L1013.87,380.98L1013.97,382.48ZM1011.52,398.31L1009.65,400.00L1009.78,395.91ZM1003.90,390.21L1003.74,387.86L1007.72,387.02L1010.14,384.62L1016.29,389.00L1014.96,394.23L1012.11,395.99ZM1011.68,375.81L1009.38,375.44L1009.23,372.10L1014.20,374.41ZM1014.57,404.91L1012.30,405.64L1014.31,401.19ZM1014.60,398.18L1015.83,399.95L1013.77,400.81L1012.73,398.64ZM1014.73,382.47L1015.07,386.13L1012.46,384.59ZM1010.29,377.52L1010.01,375.92L1010.57,375.65L1015.83,378.29L1014.24,379.81L1012.71,379.42L1012.14,379.71L1011.04,378.25L1010.40,377.85ZM1018.57,393.84L1017.85,398.62L1016.65,396.42ZM202.84,371.99L200.07,370.11L201.29,368.98L207.43,371.25L207.28,373.75ZM1019.01,265.06L1016.59,262.37L1017.75,259.92L1020.25,260.72L1019.88,263.44L1021.23,261.94ZM1033.49,255.07L1033.92,256.69L1030.79,252.33L1040.31,255.15L1037.76,258.74ZM1034.16,278.54L1033.03,276.55L1069.11,281.21L1052.98,283.94ZM1041.02,258.46L1039.70,256.50L1041.97,253.71L1050.69,262.42L1056.30,263.62L1050.04,266.55L1043.13,265.72ZM234.44,220.45L231.80,218.42L232.30,214.22L235.60,217.59ZM233.83,211.92L231.06,211.17L231.63,208.26ZM246.99,212.40L246.32,213.86L243.70,211.20ZM246.46,211.42L245.91,208.07L251.32,207.42L251.16,210.78ZM254.38,216.62L254.20,219.31L252.30,217.20ZM253.77,215.03L252.36,217.06L249.79,213.02ZM254.31,248.48L255.99,245.31L256.00,247.47L259.76,244.98L262.81,248.30L260.44,252.67L258.84,251.27L256.97,253.67ZM258.82,244.66L257.61,243.84L259.70,243.54ZM253.58,210.31L256.41,206.97L262.46,205.97L264.15,213.95L261.74,216.28L258.78,213.92L259.03,210.28L256.17,211.70ZM261.02,243.32L258.51,241.18L261.86,236.13L266.61,241.33L268.46,239.93L272.28,243.63L268.73,244.47L265.41,241.71ZM292.45,164.09L290.91,166.25L290.19,160.57L293.50,161.96ZM302.85,158.19L303.50,155.89L304.89,159.20ZM373.52,174.55L372.12,172.76L375.57,173.62ZM350.25,141.08L347.04,136.30L353.18,130.89L357.74,137.71L357.60,140.99L355.09,145.22L351.49,145.83L350.57,143.22L354.04,142.65ZM550.09,458.98L547.51,459.75L543.00,456.22L549.36,455.36L548.22,448.21L549.87,446.11L556.13,442.29L565.33,445.75L559.75,457.51L561.63,459.46L558.29,460.18L559.20,457.84L557.65,458.22L556.79,461.08ZM571.08,463.65L565.86,462.12L567.69,457.64L566.35,453.98L575.00,446.36L582.18,448.87L586.52,447.28L592.44,455.30L604.18,453.43L603.00,450.86L589.64,442.97L595.43,438.98L601.00,440.51L604.32,446.16L608.86,443.24L613.45,444.26L613.84,450.37L617.31,444.20L622.40,444.88L623.19,453.15L626.90,451.80L625.49,455.93L620.00,454.12L615.11,455.66L620.04,456.28L619.90,458.24L616.05,457.04L607.63,458.87L607.24,452.58L600.50,459.12L573.79,464.84ZM589.48,441.67L585.56,446.78L584.12,445.96L584.41,441.65ZM624.07,440.26L625.38,441.73L623.56,443.56L622.32,441.43ZM520.60,448.88L512.14,447.08L508.43,439.35L519.00,441.92L527.03,438.51L540.18,446.49L529.18,453.46L526.70,458.38L524.62,458.06L526.55,454.73ZM534.54,456.14L536.50,453.92L538.13,456.39ZM462.39,382.99L462.91,380.36L465.68,380.06L465.49,382.71ZM479.99,448.20L482.75,449.06L479.23,449.50ZM464.82,415.67L464.59,412.59L468.97,409.10L495.17,408.35L500.57,411.24L494.78,413.32L494.64,415.15L487.66,414.95L485.32,418.16ZM531.26,410.32L532.53,411.48L527.50,410.19L528.53,407.46L536.70,410.33ZM542.17,414.69L544.95,414.99L544.75,416.62L541.30,416.11ZM891.63,266.74L890.25,266.34L896.34,265.82ZM892.65,282.27L905.59,278.29L907.96,282.21L905.72,284.52L907.88,286.10L900.36,287.92L890.17,284.05ZM912.22,248.71L908.59,249.57L909.50,247.55L914.29,247.78ZM914.15,258.83L907.86,258.40L908.98,256.31L919.78,256.15ZM915.66,267.48L913.04,260.43L922.65,259.38L923.89,262.39L921.64,269.98L918.27,270.14ZM902.71,241.63L906.56,242.35L908.03,241.35L903.93,239.40L916.74,236.75L925.18,238.36L930.36,243.77L928.03,246.08L924.44,244.29L921.52,245.53L912.80,238.93L915.50,243.88L920.11,244.84L915.63,247.66L914.24,244.09L911.42,244.53L911.11,246.68L909.81,242.63L905.31,243.22ZM940.36,272.92L940.15,274.27L938.39,275.19L936.51,273.65L939.72,272.25ZM85.91,213.99L74.57,201.49L80.15,201.01L81.84,198.11L85.29,199.81L90.28,207.14L96.06,211.01L95.18,221.44L90.81,222.59ZM107.04,250.24L109.06,242.73L110.69,250.16ZM106.69,237.59L107.57,236.41L109.81,238.96L111.42,245.39ZM113.07,234.27L111.17,233.06L119.38,233.70ZM693.25,369.97L693.22,364.28L696.14,363.09L698.73,366.71L698.35,372.96L695.86,373.71ZM705.46,371.50L703.84,369.77L706.72,363.78L705.13,357.35L714.61,351.97L716.31,359.04L711.88,365.59L713.17,370.50L710.18,372.56L710.28,368.51L708.75,371.68L706.78,369.62ZM711.50,375.02L713.56,369.69L717.44,367.12L715.85,367.02L715.97,362.38L718.85,349.70L724.15,345.73L727.47,358.04L725.61,354.63L722.85,355.66L720.18,365.95L723.22,365.12L727.59,369.12L718.95,372.98L719.55,375.73L716.78,379.19L714.71,377.38L713.08,379.01ZM736.96,371.25L735.46,367.79L738.25,369.00ZM724.36,356.48L724.99,357.75L723.13,357.39ZM720.68,339.12L722.47,335.99L728.61,338.86L725.16,343.07ZM745.51,381.09L744.73,379.63L747.02,380.89ZM633.86,447.93L636.57,449.72L633.21,455.88L631.89,452.71ZM638.34,452.36L639.08,454.28L642.11,452.47L639.66,457.38L637.38,455.99ZM630.57,481.50L622.95,479.27L620.48,476.12L621.42,474.39L629.83,471.24L642.43,472.17L645.64,469.19L649.21,473.94L652.51,474.61L653.38,478.23L658.74,477.78L662.15,480.70L668.19,489.97L658.60,495.46L651.44,493.53L639.05,481.96ZM686.77,503.67L685.2,503.59L687.95,502.68ZM647.49,457.59L644.50,458.63L642.30,456.22L644.18,448.52L647.82,446.60L650.09,448.02L652.28,444.66L657.95,443.04L671.66,445.71L685.12,452.50L687.65,448.88L697.23,448.32L704.58,453.17L709.14,452.20L709.45,448.90L719.49,443.96L719.68,441.48L715.45,442.42L718.80,438.56L722.59,444.04L719.40,448.22L716.76,447.83L717.64,452.01L706.6,455.94L700.08,455.36L691.55,459.24L681.93,456.86L680.77,459.80L672.98,461.10L668.17,457.89L666.09,459.49L662.21,457.55ZM691.08,503.07L689.33,502.10L693.50,498.72L697.19,498.77L696.85,501.49ZM717.98,511.13L717.41,507.36L729.9,502.56L727.48,502.22L732.26,499.06L732.17,504.94L727.72,508.50ZM720.77,451.67L718.92,451.70L721.56,447.96L726.24,447.83ZM722.12,447.21L725.72,442.98L730.49,443.63L729.51,446.75ZM730.94,495.28L729.66,494.39L733.42,490.41L734.70,492.15L732.07,492.68L732.21,496.11ZM735.02,496.14L733.52,496.37L734.36,493.20L741.40,488.61L736.79,488.39L736.59,486.08L742.00,474.62L749.07,470.48L749.58,472.55L752.53,471.45L755.97,474.48L759.05,466.64L770.25,461.35L771.67,463.88L774.99,461.43L776.60,462.74L776.45,466.59L771.65,467.04L774.23,473.91L771.66,478.26L759.04,490.60L750.60,491.61L741.85,496.54ZM729.38,450.80L727.45,449.84L733.74,445.70L731.86,443.51L736.08,443.04L734.64,445.82L736.31,446.17L737.30,442.55L739.28,443.49L741.92,441.30L745.21,443.11L737.60,447.23L736.10,451.14ZM749.66,450.69L747.96,447.57L744.97,447.97L746.21,445.78L748.58,444.35L749.40,446.40L755.17,441.61L754.64,445.29ZM758.86,447.92L755.54,447.56L760.64,442.96L757.29,443.79L758.90,440.29L762.05,440.07L762.32,441.94L774.21,440.63L775.43,442.47L775.16,445.49ZM415.93,311.44L413.27,312.25L411.69,307.50L404.05,310.42L399.78,292.58L400.21,286.31L395.17,282.31L398.45,278.13L398.82,269.62L395.3,266.66L396.12,264.65L390.94,261.25L391.58,259.17L388.52,256.46L389.33,253.67L375.51,249.19L374.9,243.43L377.50,242.15L377.51,235.08L374.82,230.33L370.50,228.12L370.88,221.02L368.68,216.26L371.92,213.09L370.24,207.57L372.13,207.02L373.70,199.52L378.94,195.16L381.09,188.08L388.27,185.04L386.14,188.50L387.30,191.86L389.77,192.10L389.19,196.22L393.57,201.10L396.71,201.58L399.25,206.42L402.44,207.07L404.52,211.72L411.44,215.14L428.37,209.48L434.79,210.75L435.59,212.67L439.25,210.56L443.01,211.97L445.94,208.58L451.12,208.26L452.85,200.41L459.68,197.16L473.37,197.49L472.04,201.44L485.94,203.58L488.31,206.16L496.85,200.40L502.61,201.39L507.14,198.68L511.59,200.99L515.08,195.72L515.11,191.14L519.48,188.65L515.98,181.88L528.66,173.93L524.64,171.26L526.28,166.85L524.88,165.97L529.54,160.49L532.27,162.18L536.47,157.88L536.00,152.73L538.84,150.70L536.58,138.66L544.34,126.86L549.22,129.74L551.82,127.13L556.09,126.89L558.40,129.44L561.49,126.87L572.89,128.68L578.55,127.30L584.05,132.32L587.18,132.35L585.26,134.18L582.76,133.16L583.79,138.42L589.97,140.19L591.93,142.79L589.51,142.50L592.62,144.11L589.06,146.28L584.50,143.75L583.07,146.05L572.78,146.78L578.01,146.58L577.80,149.35L585.42,154.16L580.40,157.61L583.46,157.63L583.24,160.38L588.03,160.39L586.76,162.14L589.61,162.71L589.61,167.04L597.04,175.79L599.79,179.55L597.85,181.72L589.59,182.14L589.89,185.76L592.89,186.39L595.11,191.13L621.96,212.00L617.18,216.59L606.51,216.47L598.95,214.04L594.70,208.56L597.96,217.19L595.22,215.72L591.14,217.72L586.33,226.17L585.29,237.38L582.85,241.92L583.68,248.14L579.26,251.00L578.58,259.25L569.48,268.47L567.66,268.60L565.44,262.54L566.43,270.61L561.28,272.75L561.33,276.59L553.55,281.02L558.65,280.87L558.83,288.09L556.40,289.30L557.40,291.89L562.07,290.84L561.27,296.75L560.16,300.57L555.31,299.8L557.62,301.28L554.14,311.59L551.14,309.91L550.91,307.33L549.62,311.22L554.07,314.29L548.18,320.63L546.56,326.78L513.51,340.91L512.83,327.75L506.27,323.12L498.66,319.51L488.19,323.15L487.48,315.67L480.92,318.39L473.69,310.88L471.15,314.08L472.75,315.53L461.61,322.70L453.95,319.37L443.58,325.00L441.86,324.26L443.18,312.79L440.51,307.7L436.44,311.80L432.88,309.11L422.03,313.18ZM549.90,338.05L547.47,327.48L550.25,319.23L553.83,316.77L555.14,334.41ZM557.47,326.41L556.46,327.83L555.23,325.31L557.61,320.54ZM31.29,92.24L28.58,88.87L31.86,89.39ZM43.24,170.78L40.45,167.32L42.81,163.52L50.43,167.96L50.83,170.77L59.45,174.77L60.56,177.6L56.73,178.13L50.13,172.50ZM77.54,180.81L80.61,181.31L81.61,185.28L75.91,181.28ZM282.76,289.70L280.32,290.39L275.52,287.11L282.47,281.57L282.64,276.71L287.91,274.79L290.70,277.90L289.16,280.18L293.00,281.88L290.79,275.10L294.98,274.09L298.96,276.57L305.25,297.05L318.75,300.83L315.46,302.6L312.51,309.51L316.20,311.65L316.15,313.69L310.60,314.36L308.50,310.89L296.51,306.99L296.13,298.54L292.86,295.71L292.40,290.69L286.27,288.52ZM318.90,309.49L319.81,312.26L315.69,310.77ZM333.38,309.76L332.23,307.75L334.43,307.09ZM339.37,316.87L337.59,317.14L337.71,309.84L335.94,309.55L339.17,300.52L347.43,300.84L354.44,305.30L355.04,308.49L349.62,317.68L347.33,318.31L343.76,313.11L343.62,315.45ZM261.73,282.92L263.8,284.46L262.93,286.55L260.35,285.20ZM279.34,399.76L277.06,403.30L275.82,401.48ZM781.40,169.81L782.87,166.53L782.86,170.43ZM784.52,149.98L782.74,143.31L785.98,145.03L788.96,151.01L787.22,152.38ZM816.57,142.92L815.85,140.32L818.29,142.83ZM814.31,136.70L816.79,131.27L814.04,128.29L815.47,123.06L818.42,124.56L819.79,129.89L816.78,136.23ZM578.67,146.98L585.30,149.63L578.13,149.25ZM586.98,154.34L586.07,150.62L588.99,151.29L588.55,155.65ZM585.80,136.00L589.39,139.47L583.89,138.41L583.44,136.52ZM591.02,135.52L589.07,137.50L587.08,134.66L589.07,133.06ZM595.46,135.14L589.43,132.49L594.86,132.49ZM581.74,254.52L583.24,258.33L579.87,252.3ZM582.77,252.16L584.23,253.21L579.50,251.15ZM585.04,247.70L584.00,248.63L585.78,246.42ZM584.85,247.34L583.99,248.61L585.30,245.34ZM584.97,250.24L587.00,249.64L586.16,251.52ZM592.45,182.84L590.63,184.44L590.58,182.46ZM594.59,182.79L596.03,183.80L592.39,182.06ZM369.40,429.49L373.91,431.29L367.48,429.26ZM798.88,297.37L796.83,297.55L794.07,291.84L794.72,285.94L796.85,287.23L796.12,291.11ZM789.53,284.76L782.63,285.30L780.36,282.19L805.10,282.56ZM758.02,287.17L755.54,283.80L757.13,278.05L763.89,277.64L773.78,280.86L775.48,278.71L776.62,281.14L778.11,279.67L780.10,281.14L779.76,283.85L768.64,283.83ZM828.11,255.70L826.12,255.27L827.55,251.66L830.36,256.23ZM827.70,249.37L824.97,248.77L825.70,243.04L829.22,243.89ZM830.79,272.38L829.04,271.93L831.52,270.79ZM830.69,228.76L832.94,227.88L832.35,229.61ZM830.07,217.76L830.12,214.95L831.78,216.86ZM834.51,268.29L834.74,266.02L839.39,267.28L838.73,268.85ZM830.73,250.44L830.25,245.32L833.42,246.99L836.21,244.47L839.25,248.22L836.95,251.99L844.52,255.82L841.05,258.22L837.72,255.09L833.86,257.15L834.01,252.32ZM833.62,278.92L831.94,277.21L832.83,272.48L838.03,269.82L851.16,277.48L847.49,279.69ZM832.65,210.53L832.21,205.78L836.32,192.75L846.41,181.49L848.57,182.38L843.02,190.42L847.24,193.20L847.21,203.84L844.55,207.88L838.26,211.08L838.66,214.77L844.06,215.89L846.67,209.37L851.84,207.52L849.13,205.11L851.13,202.49L858.75,197.86L865.01,197.34L864.07,209.94L851.92,216.88L854.94,220.23L863.90,222.86L863.90,228.19L868.66,230.61L848.97,224.70L844.89,225.25L843.78,228.85L844.22,236.68L848.20,247.02L857.47,259.05L847.27,253.54L843.59,245.76L839.17,243.34L840.34,228.84L835.17,222.80L837.92,216.26ZM851.89,179.68L861.12,170.54L864.13,174.12L859.98,184.98L854.47,185.76ZM371.45,275.69L371.6,277.53L368.43,278.18L367.65,275.84ZM375.90,241.66L377.48,242.06L374.74,243.34L375.00,244.87L374.06,242.28ZM377.14,239.59L377.06,241.45L376.76,238.13ZM381.81,258.51L382.79,259.88L380.24,259.12ZM378.68,257.07L378.87,253.11L386.59,255.28L391.23,259.10L389.72,261.91L386.57,258.77L383.36,257.98L380.15,259.08ZM389.73,266.74L385.23,269.25L382.14,267.94L384.83,260.91L386.45,261.65L388.58,261.24L389.78,262.04L390.58,261.30L391.53,261.94L392.13,265.18Z"
    fill="none"
    stroke="url(#outlineGradient)"
    stroke-width="1.8"
    stroke-linejoin="round"
    stroke-linecap="round"
    filter="url(#outlineGlow)"
  />
</svg>